{"glyphs":{"0":{"ha":771,"x_min":0,"x_max":0,"o":"m 385 -15 b 725 456 613 -15 725 178 b 389 918 725 703 629 918 b 46 450 156 918 46 713 b 383 -15 47 194 150 -15 z m 386 144 b 257 453 306 144 256 244 b 386 758 257 657 307 758 b 514 453 471 758 514 653 b 388 144 514 247 469 144 z "},"1":{"ha":771,"x_min":0,"x_max":0,"o":"m 328 0 l 532 0 l 532 903 l 358 903 l 118 792 l 153 633 l 325 715 l 328 715 z "},"2":{"ha":771,"x_min":0,"x_max":0,"o":"m 700 0 l 700 174 l 358 174 l 358 176 l 442 246 b 682 635 574 363 682 483 b 365 918 682 799 571 918 b 71 825 244 918 138 876 l 131 675 b 324 749 178 710 246 749 b 471 617 428 749 471 690 b 175 232 469 511 374 410 l 60 128 l 60 0 z "},"3":{"ha":771,"x_min":0,"x_max":0,"o":"m 53 47 b 321 -15 106 15 204 -15 b 690 260 550 -15 690 101 b 494 481 690 379 603 461 l 494 483 b 660 693 606 521 660 597 b 361 918 660 817 553 918 b 82 850 243 918 136 885 l 125 697 b 313 751 161 719 239 751 b 446 657 403 751 446 711 b 286 553 446 581 357 553 l 204 553 l 204 401 l 290 401 b 471 271 382 401 471 361 b 306 151 471 204 415 151 b 96 207 219 151 133 186 z "},"4":{"ha":771,"x_min":0,"x_max":0,"o":"m 632 0 l 632 215 l 739 215 l 739 374 l 632 374 l 632 903 l 372 903 l 32 353 l 32 215 l 432 215 l 432 0 z m 228 374 l 229 376 l 349 574 b 433 742 379 631 404 683 l 438 742 b 432 574 435 683 432 628 l 432 374 z "},"5":{"ha":771,"x_min":0,"x_max":0,"o":"m 661 903 l 164 903 l 106 429 b 226 438 142 435 176 438 b 481 288 407 438 481 381 b 300 150 481 192 388 150 b 97 194 218 150 136 175 l 58 36 b 310 -15 108 10 200 -15 b 697 301 553 -15 697 133 b 588 528 697 407 656 482 b 350 593 525 574 436 593 b 292 590 328 593 311 592 l 311 729 l 661 729 z "},"6":{"ha":771,"x_min":0,"x_max":0,"o":"m 635 915 b 550 914 615 917 589 918 b 203 782 410 907 292 864 b 42 379 104 690 42 549 b 401 -15 42 164 160 -15 b 733 311 596 -15 733 132 b 454 606 733 499 606 606 b 263 535 371 606 307 579 l 258 535 b 553 750 282 639 365 736 b 635 753 586 753 611 754 z m 397 140 b 251 322 301 140 256 226 b 261 376 251 347 254 364 b 385 456 281 421 328 456 b 519 300 475 456 519 383 b 399 140 519 208 472 140 z "},"7":{"ha":771,"x_min":0,"x_max":0,"o":"m 68 903 l 68 729 l 482 729 l 482 726 l 110 0 l 333 0 l 706 771 l 706 903 z "},"8":{"ha":771,"x_min":0,"x_max":0,"o":"m 392 918 b 75 664 213 918 75 817 b 206 465 75 585 118 511 l 206 463 b 44 236 107 419 44 344 b 379 -15 44 114 150 -15 b 726 260 589 -15 726 96 b 560 483 726 375 649 450 l 560 488 b 692 686 650 532 692 608 b 393 918 692 796 604 918 z m 386 131 b 260 257 308 131 258 192 b 369 392 260 322 300 372 b 511 243 451 369 511 322 b 388 131 511 179 461 131 z m 385 775 b 493 663 461 775 493 719 b 401 549 493 607 450 563 b 275 671 329 571 275 610 b 383 775 275 726 311 775 z "},"9":{"ha":771,"x_min":0,"x_max":0,"o":"m 124 -12 b 219 -12 147 -14 185 -15 b 567 114 361 -7 481 35 b 724 529 664 204 724 340 b 382 918 724 740 614 918 b 42 593 183 918 42 769 b 322 311 42 417 169 311 b 506 376 406 311 464 335 l 508 375 b 394 208 493 307 454 247 b 215 153 346 175 281 156 b 124 153 174 150 151 149 z m 376 764 b 508 574 472 764 510 669 b 499 519 508 547 506 533 b 379 461 478 488 439 461 b 251 606 294 461 251 528 b 375 764 251 700 304 764 z "}," ":{"ha":281,"x_min":0,"x_max":0,"o":""},"!":{"ha":372,"x_min":0,"x_max":0,"o":"m 265 307 l 296 936 l 76 936 l 107 307 z m 186 -15 b 310 111 261 -15 310 39 b 186 238 308 186 260 238 b 61 111 113 238 61 186 b 185 -15 61 39 111 -15 z "},"\"":{"ha":551,"x_min":0,"x_max":0,"o":"m 50 961 l 81 585 l 206 585 l 236 961 z m 317 961 l 347 585 l 472 585 l 503 961 z "},"#":{"ha":764,"x_min":0,"x_max":0,"o":"m 310 376 l 332 533 l 458 533 l 438 376 z m 254 0 l 289 249 l 415 249 l 379 0 l 504 0 l 539 249 l 675 249 l 675 376 l 561 376 l 582 533 l 714 533 l 714 661 l 603 661 l 638 903 l 514 903 l 479 661 l 351 661 l 386 903 l 264 903 l 228 661 l 92 661 l 92 533 l 208 533 l 186 376 l 51 376 l 51 249 l 165 249 l 129 0 z "},"$":{"ha":771,"x_min":0,"x_max":0,"o":"m 449 -121 l 449 22 b 696 278 610 50 696 154 b 464 539 696 404 631 481 b 297 657 346 582 297 613 b 417 736 297 696 326 736 b 617 688 517 736 582 704 l 658 844 b 456 890 611 867 549 888 l 456 1013 l 319 1013 l 319 881 b 85 633 171 853 85 757 b 335 379 85 499 186 429 b 483 258 438 344 483 311 b 349 172 483 204 428 172 b 118 233 258 172 176 201 l 76 71 b 313 13 129 42 219 15 l 313 -121 z "},"%":{"ha":1222,"x_min":0,"x_max":0,"o":"m 290 918 b 38 635 136 918 38 796 b 283 361 38 465 146 361 b 533 649 414 361 533 461 b 292 918 533 804 446 918 z m 286 803 b 376 640 351 803 376 732 b 288 476 376 538 347 476 b 194 639 226 476 193 544 b 285 803 194 731 222 803 z m 407 -15 l 925 917 l 813 917 l 293 -15 z m 940 543 b 689 260 788 543 689 421 b 933 -12 689 90 797 -12 b 1183 275 1064 -12 1183 88 b 942 543 1183 429 1096 543 z m 938 428 b 1026 265 1001 428 1026 357 b 938 103 1026 164 997 103 b 846 265 878 103 844 171 b 936 428 846 356 874 428 z "},"&":{"ha":942,"x_min":0,"x_max":0,"o":"m 933 0 b 768 183 875 63 821 124 b 924 539 851 276 899 397 l 735 539 b 656 311 722 456 693 369 b 500 486 610 358 553 426 l 500 492 b 685 732 629 557 685 638 b 432 951 685 867 576 951 b 150 704 243 951 150 824 b 221 524 150 638 181 568 l 221 519 b 43 250 114 463 43 374 b 369 -15 43 118 143 -15 b 626 67 481 -15 565 19 b 688 0 649 42 668 21 z m 399 138 b 242 285 301 138 242 204 b 317 414 242 346 278 386 b 528 185 393 328 469 242 b 400 138 500 158 454 138 z m 424 819 b 506 726 479 819 506 771 b 403 589 506 672 471 636 b 339 724 360 635 339 676 b 422 819 339 774 368 819 z "},"’":{"ha":361,"x_min":0,"x_max":0,"o":"m 133 949 b 36 574 114 826 78 693 l 164 586 b 331 961 228 690 288 826 z "},"(":{"ha":436,"x_min":0,"x_max":0,"o":"m 242 960 b 83 397 168 851 85 668 b 242 -162 83 129 168 -54 l 389 -162 b 249 397 311 -32 249 153 b 389 960 249 646 311 832 z "},")":{"ha":436,"x_min":0,"x_max":0,"o":"m 196 -162 b 354 399 269 -53 353 129 b 196 960 354 669 269 853 l 49 960 b 189 400 126 831 189 646 b 49 -162 189 154 126 -33 z "},"*":{"ha":631,"x_min":0,"x_max":0,"o":"m 396 951 l 315 739 l 313 739 l 236 951 l 113 881 l 258 706 l 258 703 l 42 747 l 42 607 l 260 646 l 261 643 l 113 469 l 232 397 l 311 611 l 314 613 l 394 397 l 517 469 l 367 640 l 367 644 l 590 607 l 590 747 l 368 703 l 368 706 l 517 882 z "},"+":{"ha":828,"x_min":0,"x_max":0,"o":"m 346 739 l 346 436 l 56 436 l 56 307 l 346 307 l 346 0 l 482 0 l 482 307 l 772 307 l 772 436 l 482 436 l 482 739 z "},",":{"ha":361,"x_min":0,"x_max":0,"o":"m 143 -154 b 318 242 210 -46 272 100 l 103 228 b 1 -167 83 101 46 -43 z "},"-":{"ha":447,"x_min":0,"x_max":0,"o":"m 42 435 l 42 294 l 406 294 l 406 435 z "},".":{"ha":361,"x_min":0,"x_max":0,"o":"m 193 -15 b 318 113 268 -15 318 39 b 194 242 317 190 267 242 b 69 113 121 242 69 189 b 192 -15 69 39 121 -15 z "},"/":{"ha":460,"x_min":0,"x_max":0,"o":"m 163 -56 l 460 951 l 319 951 l 22 -56 z "},":":{"ha":361,"x_min":0,"x_max":0,"o":"m 194 433 b 318 560 269 433 318 488 b 194 688 317 636 268 688 b 71 560 122 688 71 635 b 193 433 71 488 121 433 z m 194 -15 b 318 111 269 -15 318 39 b 194 239 317 188 268 239 b 71 111 122 239 71 186 b 193 -15 71 39 121 -15 z "},";":{"ha":361,"x_min":0,"x_max":0,"o":"m 143 -153 b 317 243 208 -44 272 101 l 104 229 b 3 -165 85 103 47 -43 z m 201 433 b 325 560 276 433 325 488 b 201 688 324 636 275 688 b 78 560 129 688 78 635 b 200 433 78 488 128 433 z "},"<":{"ha":828,"x_min":0,"x_max":0,"o":"m 81 308 l 749 0 l 749 147 l 243 367 l 243 369 l 749 590 l 749 738 l 81 428 z "},"=":{"ha":828,"x_min":0,"x_max":0,"o":"m 772 451 l 772 581 l 56 581 l 56 451 z m 772 164 l 772 293 l 56 293 l 56 164 z "},">":{"ha":828,"x_min":0,"x_max":0,"o":"m 747 432 l 79 738 l 79 590 l 596 369 l 596 367 l 79 146 l 79 0 l 747 304 z "},"?":{"ha":618,"x_min":0,"x_max":0,"o":"m 376 304 l 376 329 b 447 503 375 392 397 446 b 567 738 500 561 567 631 b 300 953 567 851 482 953 b 68 896 200 953 118 925 l 114 744 b 253 786 151 771 206 786 b 353 703 321 785 353 751 b 272 558 353 657 317 611 b 190 340 210 483 188 411 l 193 304 z m 281 -15 b 404 111 356 -15 404 39 b 279 238 403 186 354 238 b 156 111 207 238 156 186 b 279 -15 156 39 206 -15 z "},"@":{"ha":1069,"x_min":0,"x_max":0,"o":"m 614 347 b 496 203 603 267 549 203 b 428 288 451 203 428 235 b 592 485 428 394 500 485 b 635 479 608 485 624 482 z m 733 -15 b 531 -58 678 -43 601 -58 b 176 306 324 -58 176 72 b 575 738 176 572 361 738 b 907 417 790 738 907 599 b 772 182 907 257 832 179 b 736 303 733 183 724 222 l 778 561 b 614 594 744 579 675 594 b 288 272 414 594 288 442 b 443 89 288 157 354 89 b 624 197 518 89 579 126 l 626 197 b 746 89 633 124 681 89 b 1010 421 896 89 1010 218 b 589 822 1010 654 835 822 b 69 293 276 822 69 576 b 503 -144 69 21 272 -144 b 757 -94 601 -144 674 -132 z "},"A":{"ha":911,"x_min":0,"x_max":0,"o":"m 578 240 l 650 0 l 878 0 l 586 936 l 310 936 l 24 0 l 243 0 l 308 240 z m 339 399 l 396 597 b 438 778 410 651 425 722 l 442 778 b 488 597 456 724 472 653 l 546 399 z "},"B":{"ha":839,"x_min":0,"x_max":0,"o":"m 92 4 b 321 -10 139 -3 217 -10 b 689 75 507 -10 621 21 b 786 274 747 121 786 188 b 600 504 786 394 707 476 l 600 507 b 753 706 704 547 753 624 b 642 890 753 792 707 856 b 365 943 574 931 494 943 b 92 922 258 943 147 933 z m 301 782 b 392 789 318 786 344 789 b 542 681 488 789 542 751 b 371 565 542 611 483 565 l 301 565 z m 301 414 l 374 414 b 564 282 479 414 564 376 b 383 146 564 183 479 146 b 301 150 347 146 322 146 z "},"C":{"ha":826,"x_min":0,"x_max":0,"o":"m 747 193 b 569 163 704 175 635 163 b 271 467 382 163 271 281 b 568 776 271 675 401 776 b 746 742 644 776 704 760 l 790 910 b 560 950 753 928 669 950 b 49 456 276 950 49 774 b 539 -14 49 189 215 -14 b 778 26 651 -14 740 8 z "},"D":{"ha":967,"x_min":0,"x_max":0,"o":"m 92 4 b 332 -10 143 -3 222 -10 b 765 111 515 -10 667 29 b 919 490 854 188 919 311 b 761 843 919 657 858 771 b 376 943 672 910 556 943 b 92 922 271 943 169 936 z m 303 772 b 399 781 321 776 353 781 b 696 483 582 781 696 678 b 376 156 696 260 569 154 b 303 160 351 156 321 156 z "},"E":{"ha":742,"x_min":0,"x_max":0,"o":"m 649 568 l 304 568 l 304 763 l 669 763 l 669 936 l 93 936 l 93 0 l 689 0 l 689 174 l 304 174 l 304 396 l 649 396 z "},"F":{"ha":732,"x_min":0,"x_max":0,"o":"m 93 0 l 304 0 l 304 376 l 640 376 l 640 549 l 304 549 l 304 763 l 664 763 l 664 936 l 93 936 z "},"G":{"ha":947,"x_min":0,"x_max":0,"o":"m 874 536 l 525 536 l 525 371 l 669 371 l 669 174 b 567 161 653 167 614 161 b 271 468 393 161 271 274 b 582 771 271 671 406 771 b 799 731 685 771 747 754 l 843 901 b 583 946 797 922 704 946 b 49 457 276 946 50 768 b 181 115 49 319 96 197 b 561 -10 267 33 390 -10 b 874 43 685 -10 808 21 z "},"H":{"ha":957,"x_min":0,"x_max":0,"o":"m 93 936 l 93 0 l 304 0 l 304 390 l 653 390 l 653 0 l 864 0 l 864 936 l 653 936 l 653 575 l 304 575 l 304 936 z "},"I":{"ha":396,"x_min":0,"x_max":0,"o":"m 93 936 l 93 0 l 304 0 l 304 936 z "},"J":{"ha":571,"x_min":0,"x_max":0,"o":"m 275 346 b 131 161 275 201 219 161 b 22 178 89 161 51 168 l -1 7 b 154 -15 40 -7 104 -15 b 486 344 358 -15 486 78 l 486 936 l 275 936 z "},"K":{"ha":853,"x_min":0,"x_max":0,"o":"m 92 0 l 301 0 l 301 306 l 381 404 l 611 0 l 857 0 l 532 538 l 842 936 l 581 936 l 369 625 b 304 522 347 592 325 558 l 301 522 l 301 936 l 92 936 z "},"L":{"ha":710,"x_min":0,"x_max":0,"o":"m 93 0 l 676 0 l 676 178 l 304 178 l 304 936 l 93 936 z "},"M":{"ha":1175,"x_min":0,"x_max":0,"o":"m 899 0 l 1104 0 l 1054 936 l 776 936 l 678 625 b 589 289 646 521 614 397 l 583 289 b 504 624 563 399 535 515 l 413 936 l 131 936 l 71 0 l 267 0 l 285 356 b 300 743 290 472 296 617 l 303 743 b 388 378 326 619 357 488 l 488 15 l 653 15 l 767 381 b 872 743 803 490 842 624 l 875 743 b 883 358 875 606 879 471 z "},"N":{"ha":958,"x_min":0,"x_max":0,"o":"m 286 0 l 286 282 b 276 692 286 435 283 567 l 282 692 b 444 361 326 582 389 463 l 644 0 l 867 0 l 867 936 l 672 936 l 672 664 b 689 272 672 522 676 396 l 686 272 b 533 593 643 378 589 494 l 339 936 l 92 936 l 92 0 z "},"O":{"ha":996,"x_min":0,"x_max":0,"o":"m 490 -15 b 949 478 764 -15 949 169 b 504 951 949 736 792 951 b 49 461 229 951 49 742 b 489 -15 49 194 213 -15 z m 499 153 b 272 467 357 153 272 290 b 500 783 272 642 354 783 b 725 471 646 783 725 639 b 500 153 725 288 643 153 z "},"P":{"ha":807,"x_min":0,"x_max":0,"o":"m 92 0 l 301 0 l 301 336 b 374 331 321 332 346 331 b 678 429 499 331 606 363 b 764 651 735 481 764 558 b 664 867 764 743 725 821 b 378 943 601 918 508 943 b 92 924 249 943 157 935 z m 301 775 b 388 782 317 779 346 782 b 554 644 494 782 554 731 b 372 493 554 550 485 493 b 301 499 340 493 319 494 z "},"Q":{"ha":996,"x_min":0,"x_max":0,"o":"m 953 3 b 728 56 879 17 799 35 l 728 61 b 949 479 850 117 949 267 b 507 951 949 735 792 951 b 49 460 226 951 49 742 b 458 -15 49 154 246 -1 b 522 -29 479 -17 501 -21 b 893 -161 649 -82 760 -122 z m 499 153 b 272 467 357 153 272 288 b 500 783 272 643 356 783 b 725 471 644 783 725 642 b 500 153 725 288 643 153 z "},"R":{"ha":824,"x_min":0,"x_max":0,"o":"m 92 0 l 301 0 l 301 368 l 364 368 b 518 218 451 367 492 336 b 582 0 544 103 568 28 l 799 0 b 724 265 781 36 753 158 b 599 439 700 351 664 413 l 599 443 b 764 672 679 472 764 554 b 676 868 764 758 733 824 b 374 943 610 922 513 943 b 92 922 260 943 160 935 z m 301 778 b 397 785 317 782 346 785 b 553 656 494 785 553 740 b 385 521 553 574 490 521 l 301 521 z "},"S":{"ha":750,"x_min":0,"x_max":0,"o":"m 56 44 b 321 -14 108 15 214 -14 b 697 276 578 -14 697 119 b 456 556 697 408 621 494 b 282 688 333 601 282 628 b 418 778 282 735 326 778 b 613 733 508 778 576 751 l 660 903 b 421 950 604 929 528 950 b 67 669 201 950 67 829 b 325 392 67 533 169 447 b 482 261 438 353 482 319 b 333 160 482 200 431 160 b 99 218 243 160 154 189 z "},"T":{"ha":761,"x_min":0,"x_max":0,"o":"m 274 0 l 485 0 l 485 758 l 740 758 l 740 936 l 21 936 l 21 758 l 274 758 z "},"U":{"ha":947,"x_min":0,"x_max":0,"o":"m 92 936 l 92 414 b 465 -15 92 117 229 -15 b 856 411 710 -15 856 122 l 856 936 l 644 936 l 644 399 b 472 154 644 232 583 154 b 303 399 365 154 303 236 l 303 936 z "},"V":{"ha":883,"x_min":0,"x_max":0,"o":"m 560 0 l 875 936 l 650 936 l 531 536 b 446 206 499 429 469 318 l 442 206 b 358 540 419 322 390 428 l 244 936 l 13 936 l 313 0 z "},"W":{"ha":1233,"x_min":0,"x_max":0,"o":"m 475 0 l 564 401 b 618 692 586 497 601 586 l 621 692 b 665 403 632 585 647 497 l 744 0 l 974 0 l 1215 936 l 1000 936 l 924 554 b 869 228 904 442 883 332 l 867 228 b 817 542 853 332 838 432 l 742 936 l 517 936 l 438 554 b 376 222 414 438 392 325 l 374 222 b 318 551 358 318 339 439 l 247 936 l 21 936 l 243 0 z "},"X":{"ha":851,"x_min":0,"x_max":0,"o":"m 829 0 l 551 479 l 815 936 l 574 936 l 494 765 b 431 610 471 711 453 669 l 428 610 b 357 765 406 663 385 708 l 275 936 l 32 936 l 293 474 l 22 0 l 264 0 l 340 169 b 414 338 371 235 394 283 l 417 338 b 500 169 443 283 465 235 l 585 0 z "},"Y":{"ha":838,"x_min":0,"x_max":0,"o":"m 519 0 l 519 390 l 828 936 l 590 936 l 496 711 b 425 532 468 644 446 590 l 422 532 b 350 711 400 593 379 643 l 256 936 l 13 936 l 308 383 l 308 0 z "},"Z":{"ha":801,"x_min":0,"x_max":0,"o":"m 33 0 l 760 0 l 760 175 l 317 175 l 317 181 l 753 814 l 753 936 l 74 936 l 74 761 l 479 761 l 479 757 l 33 114 z "},"[":{"ha":436,"x_min":0,"x_max":0,"o":"m 378 -156 l 378 -39 l 246 -39 l 246 836 l 378 836 l 378 953 l 94 953 l 94 -156 z "},"\\":{"ha":458,"x_min":0,"x_max":0,"o":"m 436 -56 l 157 951 l 17 951 l 296 -56 z "},"]":{"ha":436,"x_min":0,"x_max":0,"o":"m 58 953 l 58 836 l 190 836 l 190 -39 l 58 -39 l 58 -156 l 342 -156 l 342 953 z "},"^":{"ha":828,"x_min":0,"x_max":0,"o":"m 769 246 l 479 903 l 350 903 l 60 246 l 208 246 l 411 740 l 415 740 l 618 246 z "},"_":{"ha":694,"x_min":0,"x_max":0,"o":"m 0 -104 l 0 -174 l 694 -174 l 694 -104 z "},"‘":{"ha":361,"x_min":0,"x_max":0,"o":"m 235 586 b 332 961 254 708 290 843 l 204 950 b 38 574 140 844 81 710 z "},"a":{"ha":733,"x_min":0,"x_max":0,"o":"m 650 401 b 353 694 650 561 579 694 b 89 633 229 694 136 660 l 128 499 b 315 549 172 525 246 549 b 439 461 419 549 439 497 l 439 453 b 40 193 199 453 40 369 b 260 -15 40 85 122 -15 b 454 68 340 -15 410 14 l 458 68 l 471 0 l 661 0 b 650 164 653 38 650 100 z m 446 247 b 442 211 446 235 444 222 b 332 133 428 168 383 133 b 249 214 285 133 249 160 b 446 321 249 294 335 321 z "},"b":{"ha":831,"x_min":0,"x_max":0,"o":"m 85 203 b 79 0 85 126 82 44 l 258 0 l 267 94 l 269 94 b 474 -15 317 14 394 -15 b 783 351 629 -15 783 107 b 504 694 785 560 667 694 b 299 599 410 694 339 657 l 296 599 l 296 988 l 85 988 z m 296 389 b 300 428 296 403 297 415 b 424 532 314 489 367 532 b 569 343 522 532 569 449 b 424 151 569 221 514 151 b 300 251 363 151 314 196 b 296 289 297 263 296 275 z "},"c":{"ha":626,"x_min":0,"x_max":0,"o":"m 569 174 b 449 151 538 160 499 151 b 263 342 346 151 263 217 b 444 531 261 451 333 531 b 563 510 500 531 538 521 l 596 667 b 435 693 551 683 490 693 b 46 333 182 693 46 531 b 406 -14 46 121 186 -14 b 594 18 486 -14 557 0 z "},"d":{"ha":828,"x_min":0,"x_max":0,"o":"m 532 988 l 532 618 l 529 618 b 350 694 499 664 435 694 b 46 333 188 694 44 561 b 336 -15 46 122 175 -15 b 549 99 424 -15 507 24 l 553 99 l 561 0 l 749 0 b 743 203 746 46 743 126 l 743 988 z m 532 301 b 528 254 532 285 531 268 b 404 153 515 194 465 153 b 260 339 317 153 260 225 b 406 532 260 446 308 532 b 529 429 471 532 517 486 b 532 390 532 417 532 403 z "},"e":{"ha":733,"x_min":0,"x_max":0,"o":"m 685 272 b 692 356 688 288 692 319 b 389 694 692 524 608 694 b 46 332 154 694 46 504 b 408 -14 46 119 178 -14 b 654 29 500 -14 585 0 l 626 172 b 439 143 569 153 511 143 b 247 272 340 143 254 185 z m 246 417 b 378 554 251 472 288 554 b 496 417 474 554 496 468 z "},"f":{"ha":474,"x_min":0,"x_max":0,"o":"m 321 0 l 321 524 l 456 524 l 456 679 l 319 679 l 319 714 b 418 835 319 781 349 835 b 486 825 446 835 468 831 l 494 988 b 383 1001 465 994 429 1001 b 194 933 321 1001 249 983 b 110 706 135 878 110 788 l 110 679 l 19 679 l 19 524 l 110 524 l 110 0 z "},"g":{"ha":813,"x_min":0,"x_max":0,"o":"m 728 476 b 733 679 728 578 731 635 l 550 679 l 543 597 l 540 597 b 354 694 506 654 447 694 b 46 336 186 694 46 556 b 333 6 46 142 165 6 b 517 93 411 6 476 38 l 519 93 l 519 50 b 343 -129 519 -76 443 -129 b 146 -78 263 -129 189 -103 l 104 -239 b 349 -290 165 -272 258 -290 b 624 -207 449 -290 550 -271 b 728 99 701 -139 728 -32 z m 517 303 b 510 246 517 285 515 263 b 397 161 496 197 453 161 b 260 342 310 161 260 240 b 399 535 260 465 321 535 b 513 442 457 535 497 497 b 517 403 515 429 517 415 z "},"h":{"ha":814,"x_min":0,"x_max":0,"o":"m 85 0 l 296 0 l 296 403 b 303 449 296 418 297 436 b 408 524 318 488 353 524 b 518 374 488 524 518 463 l 518 0 l 729 0 l 729 396 b 492 694 729 601 626 694 b 382 668 453 694 414 685 b 299 597 349 651 321 628 l 296 597 l 296 988 l 85 988 z "},"i":{"ha":381,"x_min":0,"x_max":0,"o":"m 296 0 l 296 679 l 85 679 l 85 0 z m 190 763 b 303 868 260 763 303 810 b 192 974 301 928 260 974 b 79 868 124 974 79 928 b 189 763 79 810 122 763 z "},"j":{"ha":404,"x_min":0,"x_max":0,"o":"m -33 -299 b 228 -215 67 -299 165 -272 b 324 82 292 -157 324 -67 l 324 679 l 113 679 l 113 132 b 71 -89 113 -3 101 -57 b -54 -133 44 -117 0 -129 z m 217 763 b 329 868 286 763 329 810 b 218 974 328 928 286 974 b 106 868 150 974 106 928 b 215 763 106 810 149 763 z "},"k":{"ha":753,"x_min":0,"x_max":0,"o":"m 296 988 l 85 988 l 85 0 l 296 0 l 296 213 l 349 279 l 514 0 l 774 0 l 496 404 l 739 679 l 485 679 l 347 475 b 299 393 331 450 314 422 l 296 393 z "},"l":{"ha":382,"x_min":0,"x_max":0,"o":"m 85 0 l 296 0 l 296 988 l 85 988 z "},"m":{"ha":1194,"x_min":0,"x_max":0,"o":"m 85 0 l 290 0 l 290 394 b 299 449 290 413 292 432 b 397 524 311 482 343 524 b 496 381 465 524 496 465 l 496 0 l 701 0 l 701 397 b 708 450 701 414 704 435 b 807 524 724 490 757 524 b 907 368 875 524 907 467 l 907 0 l 1113 0 l 1113 400 b 883 694 1113 603 1014 694 b 754 661 833 694 792 682 b 665 578 721 642 692 614 l 663 578 b 476 694 633 649 565 694 b 271 586 361 694 300 631 l 267 586 l 258 679 l 79 679 b 85 463 82 618 85 547 z "},"n":{"ha":814,"x_min":0,"x_max":0,"o":"m 85 0 l 296 0 l 296 392 b 303 444 296 411 297 431 b 411 524 318 483 353 524 b 518 376 488 524 518 464 l 518 0 l 729 0 l 729 401 b 486 694 729 601 625 694 b 276 585 372 694 304 629 l 272 585 l 263 679 l 79 679 b 85 463 82 618 85 547 z "},"o":{"ha":801,"x_min":0,"x_max":0,"o":"m 399 -15 b 756 346 579 -15 756 99 b 410 694 756 551 617 694 b 46 335 190 694 46 554 b 397 -15 46 115 199 -15 z m 401 136 b 264 339 313 136 264 224 b 403 543 264 440 303 543 b 538 340 499 543 538 440 b 403 136 538 218 486 136 z "},"p":{"ha":831,"x_min":0,"x_max":0,"o":"m 85 -275 l 296 -275 l 296 63 l 299 63 b 475 -15 329 18 393 -15 b 783 349 626 -15 783 101 b 501 694 783 565 650 694 b 275 585 403 694 325 656 l 272 585 l 263 679 l 79 679 b 85 451 82 615 85 540 z m 296 385 b 300 422 296 397 297 411 b 426 529 314 485 367 529 b 569 339 521 529 569 447 b 424 147 569 224 515 147 b 300 247 363 147 314 190 b 296 292 297 261 296 275 z "},"q":{"ha":826,"x_min":0,"x_max":0,"o":"m 532 -275 l 743 -275 l 743 475 b 747 679 743 546 746 613 l 544 679 l 539 599 l 536 600 b 346 694 497 663 433 694 b 46 331 200 694 46 574 b 326 -15 46 115 179 -15 b 529 86 418 -15 486 21 l 532 86 z m 532 293 b 526 247 532 279 531 261 b 404 151 513 192 464 151 b 260 339 315 151 260 225 b 406 529 260 449 310 529 b 528 428 471 529 517 483 b 532 394 531 418 532 406 z "},"r":{"ha":528,"x_min":0,"x_max":0,"o":"m 85 0 l 296 0 l 296 343 b 300 390 296 361 297 376 b 444 497 314 457 367 497 b 501 492 468 497 485 494 l 501 690 b 457 694 486 693 476 694 b 274 553 390 694 308 653 l 268 553 l 260 679 l 79 679 b 85 456 83 621 85 556 z "},"s":{"ha":603,"x_min":0,"x_max":0,"o":"m 46 35 b 265 -14 97 7 176 -14 b 558 207 460 -14 558 79 b 375 415 557 306 504 371 b 265 493 292 443 265 461 b 346 547 265 526 294 547 b 493 510 403 547 463 525 l 529 654 b 339 694 488 675 418 694 b 63 471 171 694 63 599 b 257 268 61 392 115 315 b 356 190 335 243 356 225 b 265 135 356 156 329 135 b 83 185 203 135 122 161 z "},"t":{"ha":510,"x_min":0,"x_max":0,"o":"m 114 807 l 114 679 l 24 679 l 24 524 l 114 524 l 114 246 b 172 44 114 150 133 85 b 332 -14 207 10 264 -14 b 468 4 390 -14 442 -6 l 467 164 b 404 158 447 160 433 158 b 321 278 342 158 321 196 l 321 524 l 472 524 l 472 679 l 321 679 l 321 864 z "},"u":{"ha":810,"x_min":0,"x_max":0,"o":"m 725 679 l 514 679 l 514 275 b 506 229 514 257 511 242 b 400 156 493 196 458 156 b 293 314 325 156 293 215 l 293 679 l 82 679 l 82 281 b 321 -15 82 71 182 -15 b 533 96 443 -15 507 54 l 538 96 l 547 0 l 731 0 b 725 218 728 57 725 129 z "},"v":{"ha":736,"x_min":0,"x_max":0,"o":"m 13 679 l 260 0 l 471 0 l 724 679 l 501 679 l 414 364 b 376 199 399 306 388 254 l 372 199 b 333 364 361 253 350 307 l 242 679 z "},"w":{"ha":1054,"x_min":0,"x_max":0,"o":"m 15 679 l 214 0 l 413 0 l 481 239 b 524 450 497 301 511 365 l 526 450 b 571 238 540 365 553 304 l 635 0 l 832 0 l 1040 679 l 833 679 l 776 410 b 736 178 760 332 746 254 l 733 178 b 683 408 721 256 703 331 l 615 679 l 449 679 l 376 399 b 328 178 361 332 340 254 l 324 178 b 286 400 313 256 299 331 l 231 679 z "},"x":{"ha":721,"x_min":0,"x_max":0,"o":"m 10 679 l 235 347 l 4 0 l 236 0 l 300 122 b 351 226 317 156 335 189 l 356 226 b 408 122 371 190 389 156 l 476 0 l 715 0 l 489 356 l 713 679 l 483 679 l 424 569 b 371 464 406 535 389 501 l 368 464 b 313 565 350 497 332 531 l 246 679 z "},"y":{"ha":726,"x_min":0,"x_max":0,"o":"m 8 679 l 258 57 b 267 22 265 40 267 31 b 256 -8 267 14 263 3 b 168 -93 236 -42 200 -76 b 76 -129 136 -111 103 -124 l 121 -307 b 325 -214 175 -301 253 -278 b 564 232 401 -146 467 -39 l 722 679 l 496 679 l 413 346 b 382 218 403 306 392 256 l 378 218 b 344 344 369 254 356 306 l 243 679 z "},"z":{"ha":651,"x_min":0,"x_max":0,"o":"m 31 0 l 621 0 l 621 168 l 294 168 l 294 171 b 406 294 333 208 368 251 l 610 551 l 610 679 l 54 679 l 54 511 l 353 511 l 353 508 b 244 389 314 468 283 433 l 31 122 z "},"{":{"ha":436,"x_min":0,"x_max":0,"o":"m 42 346 b 147 251 138 342 147 289 b 140 143 147 217 143 181 b 132 33 136 106 132 68 b 342 -156 132 -106 218 -156 l 392 -156 l 392 -39 l 367 -39 b 282 61 303 -37 282 0 b 289 139 282 85 285 111 b 296 236 292 168 296 200 b 178 397 297 342 254 382 l 178 400 b 296 561 254 417 297 457 b 289 657 296 597 292 629 b 282 736 285 686 282 711 b 367 835 282 797 304 833 l 392 835 l 392 953 l 343 953 b 132 765 214 953 132 896 b 140 656 132 731 136 693 b 147 547 143 618 147 581 b 42 451 147 506 138 456 z "},"|":{"ha":393,"x_min":0,"x_max":0,"o":"m 122 1042 l 122 -347 l 269 -347 l 269 1042 z "},"}":{"ha":436,"x_min":0,"x_max":0,"o":"m 394 451 b 289 547 299 456 289 506 b 297 656 289 581 293 618 b 304 765 300 693 304 731 b 93 953 304 896 222 953 l 44 953 l 44 835 l 69 835 b 154 736 132 833 154 797 b 147 657 154 711 151 686 b 140 561 144 629 140 597 b 258 400 139 457 182 417 l 258 397 b 140 236 182 382 139 342 b 147 139 140 200 144 168 b 154 61 151 111 154 85 b 69 -39 154 0 133 -37 l 44 -39 l 44 -156 l 94 -156 b 304 33 218 -156 304 -106 b 297 143 304 68 300 106 b 289 251 293 181 289 217 b 394 346 289 289 299 342 z "},"~":{"ha":828,"x_min":0,"x_max":0,"o":"m 192 268 b 257 381 197 357 222 381 b 389 324 290 381 328 358 b 583 257 464 281 517 257 b 768 518 689 257 776 321 l 636 518 b 581 406 633 435 613 406 b 447 460 546 406 508 426 b 253 526 368 504 321 526 b 60 268 140 526 58 453 z "},"¡":{"ha":372,"x_min":0,"x_max":0,"o":"m 296 -265 l 265 361 l 107 361 l 76 -265 z m 188 685 b 63 558 114 685 63 632 b 188 432 63 485 113 432 b 311 558 263 432 310 485 b 189 685 311 632 261 685 z "},"¢":{"ha":771,"x_min":0,"x_max":0,"o":"m 524 -15 l 524 117 b 663 149 579 121 629 133 l 638 301 b 500 276 601 288 558 276 b 319 463 403 276 319 339 b 499 650 319 575 389 650 b 622 625 553 650 593 640 l 656 781 b 524 808 618 796 568 807 l 524 935 l 388 935 l 388 801 b 104 456 204 767 104 622 b 181 226 104 364 132 283 b 388 121 231 171 299 133 l 388 -15 z "},"£":{"ha":771,"x_min":0,"x_max":0,"o":"m 704 0 l 704 172 l 333 172 l 333 175 b 401 274 367 204 389 239 b 414 372 411 306 414 339 l 586 372 l 586 517 l 394 517 b 382 619 388 551 382 583 b 511 750 382 688 413 750 b 629 725 563 750 601 740 l 663 885 b 500 918 632 901 575 918 b 186 629 313 918 186 803 b 197 517 186 590 190 551 l 86 517 l 86 372 l 222 372 b 226 317 226 354 226 336 b 71 113 226 222 146 143 l 71 0 z "},"⁄":{"ha":589,"x_min":0,"x_max":0,"o":"m 96 -15 l 608 918 l 493 918 l -19 -15 z "},"¥":{"ha":771,"x_min":0,"x_max":0,"o":"m 478 0 l 478 222 l 696 222 l 696 321 l 478 321 l 478 410 l 696 410 l 696 508 l 531 508 l 768 903 l 546 903 l 447 682 b 388 529 424 628 406 575 l 385 529 b 326 681 367 578 351 625 l 229 903 l 3 903 l 229 508 l 63 508 l 63 410 l 279 410 l 279 321 l 63 321 l 63 222 l 279 222 l 279 0 z "},"ƒ":{"ha":771,"x_min":0,"x_max":0,"o":"m 158 425 l 268 425 l 246 231 b 133 32 225 72 201 33 b 68 44 110 33 88 36 l 38 -103 b 164 -126 60 -114 107 -125 b 439 176 361 -126 418 7 l 471 425 l 629 425 l 629 571 l 488 571 l 496 632 b 607 758 504 708 538 758 b 672 746 633 758 656 753 l 706 896 b 590 918 682 908 638 918 b 290 617 351 918 301 710 l 285 571 l 158 571 z "},"§":{"ha":779,"x_min":0,"x_max":0,"o":"m 226 476 b 276 549 226 508 247 533 b 456 481 318 529 397 503 b 551 381 524 454 551 421 b 510 308 551 351 535 324 b 347 368 479 325 411 344 b 226 475 264 397 226 431 z m 644 908 b 425 950 579 938 506 950 b 122 735 256 950 122 875 b 178 608 122 683 149 632 b 63 439 100 571 63 500 b 339 200 63 301 192 244 b 486 96 444 167 486 142 b 361 25 486 49 435 25 b 150 82 276 25 192 58 l 110 -46 b 369 -107 185 -93 286 -107 b 678 115 499 -107 678 -54 b 617 244 678 178 643 224 b 717 413 675 282 717 339 b 453 656 717 556 603 610 b 304 753 353 686 304 711 b 428 819 304 793 347 819 b 611 781 511 819 569 800 z "},"¤":{"ha":771,"x_min":0,"x_max":0,"o":"m 385 764 b 225 713 322 764 267 746 l 118 831 l 25 735 l 146 628 b 97 463 122 592 97 540 b 147 297 97 386 122 332 l 32 188 l 122 94 l 222 214 b 383 161 263 179 326 161 b 546 217 439 161 503 181 l 647 94 l 739 188 l 621 300 b 669 467 646 335 669 389 b 625 628 669 542 646 592 l 746 736 l 653 831 l 547 714 b 386 764 506 746 450 764 z m 383 622 b 511 465 458 622 511 556 b 383 303 511 353 446 303 b 256 464 325 303 256 354 b 382 622 256 560 311 622 z "},"'":{"ha":285,"x_min":0,"x_max":0,"o":"m 50 961 l 81 585 l 206 585 l 236 961 z "},"“":{"ha":631,"x_min":0,"x_max":0,"o":"m 232 586 b 329 961 251 708 288 843 l 201 950 b 35 574 139 844 78 710 z m 504 586 b 601 961 524 708 558 843 l 474 950 b 307 574 410 844 350 710 z "},"«":{"ha":646,"x_min":0,"x_max":0,"o":"m 344 615 l 197 615 l 36 350 l 197 86 l 344 86 l 178 350 z m 614 615 l 467 615 l 306 350 l 467 86 l 614 86 l 447 350 z "},"‹":{"ha":375,"x_min":0,"x_max":0,"o":"m 344 615 l 197 615 l 36 350 l 197 86 l 344 86 l 178 350 z "},"›":{"ha":375,"x_min":0,"x_max":0,"o":"m 197 350 l 31 86 l 176 86 l 339 350 l 176 615 l 31 615 z "},"ﬁ":{"ha":817,"x_min":0,"x_max":0,"o":"m 321 0 l 321 524 l 521 524 l 521 0 l 732 0 l 732 679 l 319 679 l 319 703 b 469 835 319 778 358 835 b 624 800 536 835 590 818 l 664 960 b 464 1001 622 985 536 1001 b 110 708 254 1001 110 896 l 110 679 l 19 679 l 19 524 l 110 524 l 110 0 z "},"ﬂ":{"ha":817,"x_min":0,"x_max":0,"o":"m 321 0 l 321 524 l 443 524 l 443 679 l 319 679 l 319 706 b 440 844 319 783 356 844 b 521 831 479 844 506 839 l 521 0 l 732 0 l 732 944 b 471 1001 664 981 572 1001 b 213 925 363 1001 279 978 b 110 708 147 872 110 786 l 110 679 l 19 679 l 19 524 l 110 524 l 110 0 z "},"–":{"ha":694,"x_min":0,"x_max":0,"o":"m 42 418 l 42 288 l 653 288 l 653 418 z "},"†":{"ha":728,"x_min":0,"x_max":0,"o":"m 267 936 l 286 657 l 47 674 l 47 510 l 286 526 l 267 -69 l 460 -69 l 440 526 l 679 510 l 679 674 l 440 657 l 460 936 z "},"‡":{"ha":728,"x_min":0,"x_max":0,"o":"m 269 936 l 283 678 l 47 694 l 47 531 l 283 547 l 283 328 l 47 344 l 47 181 l 283 197 l 269 -71 l 458 -71 l 443 197 l 679 181 l 679 344 l 443 328 l 443 547 l 679 531 l 679 694 l 443 678 l 457 936 z "},"·":{"ha":361,"x_min":0,"x_max":0,"o":"m 181 232 b 306 360 256 232 306 286 b 182 489 304 436 254 489 b 57 360 108 489 57 436 b 179 232 57 286 108 232 z "},"¶":{"ha":753,"x_min":0,"x_max":0,"o":"m 419 -65 l 419 811 l 519 811 l 519 -65 l 653 -65 l 653 926 b 454 942 610 936 538 942 b 44 626 119 942 42 774 b 278 367 47 449 197 367 l 286 367 l 286 -65 z "},"•":{"ha":469,"x_min":0,"x_max":0,"o":"m 235 181 b 415 361 336 181 415 260 b 235 543 415 464 335 543 b 54 361 135 543 53 464 b 233 181 54 258 135 181 z "},"‚":{"ha":361,"x_min":0,"x_max":0,"o":"m 150 -133 b 317 243 214 -28 274 107 l 119 231 b 22 -144 100 108 64 -26 z "},"„":{"ha":638,"x_min":0,"x_max":0,"o":"m 149 -133 b 315 243 213 -28 272 107 l 118 231 b 21 -144 99 108 64 -26 z m 421 -133 b 588 243 483 -28 544 107 l 390 231 b 293 -144 371 108 335 -26 z "},"”":{"ha":631,"x_min":0,"x_max":0,"o":"m 131 949 b 33 574 111 826 76 693 l 161 586 b 328 961 225 690 285 826 z m 403 949 b 306 574 383 826 347 693 l 433 586 b 600 961 496 690 557 826 z "},"»":{"ha":646,"x_min":0,"x_max":0,"o":"m 197 350 l 32 86 l 178 86 l 339 350 l 176 615 l 32 615 z m 464 350 l 299 86 l 443 86 l 606 350 l 443 615 l 299 615 z "},"…":{"ha":1389,"x_min":0,"x_max":0,"o":"m 231 -15 b 356 113 306 -15 356 39 b 232 242 354 190 304 242 b 107 113 158 242 107 189 b 229 -15 107 39 158 -15 z m 694 -15 b 819 113 769 -15 819 39 b 696 242 818 190 768 242 b 571 113 622 242 571 189 b 693 -15 571 39 622 -15 z m 1158 -15 b 1283 113 1233 -15 1283 39 b 1160 242 1282 190 1232 242 b 1035 113 1086 242 1035 189 b 1157 -15 1035 39 1086 -15 z "},"‰":{"ha":1785,"x_min":0,"x_max":0,"o":"m 290 918 b 38 635 136 918 38 796 b 283 361 38 464 146 361 b 533 650 414 361 533 461 b 292 918 533 804 446 918 z m 286 803 b 376 640 351 803 376 732 b 288 476 376 538 347 476 b 194 639 226 476 193 544 b 285 803 194 731 222 803 z m 407 -15 l 925 917 l 813 917 l 293 -15 z m 940 543 b 689 260 788 543 689 421 b 933 -12 689 90 797 -12 b 1183 275 1064 -12 1183 88 b 942 543 1183 429 1096 543 z m 938 428 b 1026 265 1001 428 1026 357 b 938 103 1026 164 997 103 b 846 265 876 103 844 171 b 936 428 846 356 874 428 z m 1501 543 b 1249 260 1347 543 1249 421 b 1494 -12 1249 90 1357 -12 b 1744 275 1625 -12 1744 88 b 1503 543 1744 429 1657 543 z m 1497 428 b 1588 265 1563 428 1588 357 b 1499 103 1588 164 1558 103 b 1406 265 1438 103 1404 171 b 1496 428 1406 356 1433 428 z "},"¿":{"ha":618,"x_min":0,"x_max":0,"o":"m 344 685 b 221 558 271 685 221 632 b 344 432 221 485 269 432 b 468 558 419 432 468 485 b 346 685 468 632 418 685 z m 249 367 l 249 342 b 178 169 250 279 228 225 b 58 -65 125 110 58 42 b 325 -281 58 -179 143 -281 b 557 -224 425 -281 507 -253 l 511 -72 b 372 -114 474 -99 419 -114 b 272 -32 304 -112 272 -79 b 353 114 272 15 308 61 b 435 331 415 188 438 260 l 432 367 z "},"`":{"ha":417,"x_min":0,"x_max":0,"o":"m 6 975 l 175 764 l 319 764 l 200 975 z "},"´":{"ha":417,"x_min":0,"x_max":0,"o":"m 225 975 l 106 764 l 250 764 l 419 975 z "},"ˆ":{"ha":417,"x_min":0,"x_max":0,"o":"m 139 975 l 0 764 l 138 764 l 208 885 l 211 885 l 281 764 l 418 764 l 281 975 z "},"˜":{"ha":417,"x_min":0,"x_max":0,"o":"m 111 775 b 144 838 114 817 125 838 b 197 815 163 838 172 829 b 293 786 226 801 254 786 b 407 964 367 786 411 838 l 310 964 b 274 903 306 915 296 903 b 215 929 257 903 238 917 b 125 957 188 943 160 957 b 11 775 54 957 7 892 z "},"¯":{"ha":417,"x_min":0,"x_max":0,"o":"m 36 925 l 36 808 l 383 808 l 383 925 z "},"˘":{"ha":417,"x_min":0,"x_max":0,"o":"m 15 961 b 208 764 17 850 79 764 b 401 961 333 764 400 844 l 292 961 b 207 876 289 917 264 876 b 125 961 158 876 133 911 z "},"˙":{"ha":417,"x_min":0,"x_max":0,"o":"m 169 774 b 264 871 224 774 264 818 b 169 969 264 928 224 969 b 71 871 114 969 71 928 b 168 774 71 818 113 774 z "},"¨":{"ha":417,"x_min":0,"x_max":0,"o":"m 64 774 b 158 872 118 774 158 818 b 64 969 158 928 117 969 b -36 872 8 969 -36 928 b 63 774 -36 818 7 774 z m 356 774 b 451 872 411 774 451 818 b 356 969 451 928 410 969 b 257 872 299 969 257 928 b 353 774 257 818 299 774 z "},"˚":{"ha":556,"x_min":0,"x_max":0,"o":"m 279 1022 b 118 883 175 1022 118 961 b 279 749 118 807 179 749 b 436 885 375 749 436 807 b 281 1022 436 963 381 1022 z m 278 953 b 342 885 319 953 342 919 b 278 818 342 849 318 818 b 215 883 239 818 215 851 b 276 953 215 919 236 953 z "},"¸":{"ha":417,"x_min":0,"x_max":0,"o":"m 168 6 l 108 -114 b 217 -164 185 -119 217 -137 b 168 -200 217 -190 192 -200 b 92 -178 146 -200 115 -192 l 64 -256 b 175 -283 92 -272 131 -283 b 344 -162 264 -283 344 -253 b 244 -61 344 -106 296 -68 l 282 6 z "},"˝":{"ha":417,"x_min":0,"x_max":0,"o":"m 85 974 l -3 767 l 117 767 l 251 974 z m 326 974 l 239 767 l 357 767 l 493 974 z "},"˛":{"ha":417,"x_min":0,"x_max":0,"o":"m 114 1 b 60 -157 96 -24 60 -92 b 215 -304 60 -256 119 -304 b 357 -261 261 -304 319 -290 l 328 -162 b 265 -174 314 -167 292 -174 b 192 -100 219 -174 192 -142 b 226 1 192 -61 214 -22 z "},"ˇ":{"ha":417,"x_min":0,"x_max":0,"o":"m 279 764 l 418 975 l 279 975 l 210 854 l 207 854 l 136 975 l -1 975 l 136 764 z "},"—":{"ha":1389,"x_min":0,"x_max":0,"o":"m 42 418 l 42 288 l 1347 288 l 1347 418 z "},"Æ":{"ha":1206,"x_min":0,"x_max":0,"o":"m 222 0 l 324 256 l 597 256 l 631 0 l 1167 0 l 1167 174 l 813 174 l 783 392 l 1110 392 l 1110 564 l 756 564 l 732 763 l 1115 763 l 1115 936 l 403 936 l 4 0 z m 388 425 l 476 650 b 525 788 492 690 510 742 l 529 788 b 546 651 533 743 540 694 l 574 425 z "},"ª":{"ha":525,"x_min":0,"x_max":0,"o":"m 474 369 b 467 478 469 396 467 436 l 467 626 b 263 821 467 729 414 821 b 78 776 179 821 114 797 l 106 686 b 235 722 138 707 183 722 b 321 669 310 722 321 682 l 321 660 b 44 499 153 660 44 606 b 193 363 44 422 101 363 b 332 415 253 361 299 383 l 335 415 l 344 369 z m 325 529 b 318 499 325 521 324 510 b 249 457 308 475 278 457 b 188 511 214 457 188 479 b 325 578 188 560 250 579 z "},"Ł":{"ha":718,"x_min":0,"x_max":0,"o":"m 685 0 l 685 178 l 313 178 l 313 467 l 488 585 l 488 732 l 313 614 l 313 936 l 101 936 l 101 474 l -3 401 l -3 256 l 101 326 l 101 0 z "},"Ø":{"ha":996,"x_min":0,"x_max":0,"o":"m 214 -92 l 297 32 b 499 -15 357 1 425 -15 b 947 474 758 -15 947 168 b 825 818 947 606 907 731 l 903 935 l 783 1015 l 707 903 b 500 951 647 935 576 951 b 49 467 228 951 49 740 b 178 115 49 328 94 203 l 100 -3 z m 297 297 l 296 296 b 260 468 271 353 260 404 b 499 786 260 653 349 786 b 608 751 540 786 578 774 z m 703 629 l 706 629 b 736 469 728 575 736 522 b 499 150 736 281 646 150 b 396 183 457 150 422 161 z "},"Œ":{"ha":1300,"x_min":0,"x_max":0,"o":"m 1246 174 l 861 174 l 861 396 l 1206 396 l 1206 568 l 861 568 l 861 763 l 1226 763 l 1226 936 l 735 936 b 647 943 711 936 682 940 b 522 951 614 947 572 951 b 49 460 239 951 49 760 b 518 -15 49 207 199 -15 b 633 -8 564 -15 601 -11 b 718 0 665 -4 693 0 l 1246 0 z m 650 169 b 556 153 626 158 589 153 b 272 468 374 153 272 283 b 540 783 272 674 394 783 b 650 764 586 783 624 776 z "},"º":{"ha":536,"x_min":0,"x_max":0,"o":"m 269 821 b 33 588 131 821 33 728 b 265 363 33 450 136 363 b 503 596 388 363 503 438 b 271 821 503 725 413 821 z m 267 718 b 353 593 324 718 353 651 b 268 465 353 518 322 465 b 182 589 214 465 182 522 b 265 718 182 646 204 718 z "},"æ":{"ha":1115,"x_min":0,"x_max":0,"o":"m 1068 282 b 1074 358 1069 299 1074 331 b 789 694 1074 521 990 694 b 557 585 689 694 610 654 l 553 585 b 329 694 513 654 439 694 b 89 631 228 694 139 658 l 131 497 b 311 549 172 522 242 549 b 442 467 419 549 442 486 l 442 447 b 40 197 201 449 40 364 b 275 -15 40 82 126 -15 b 528 106 393 -15 475 33 l 532 106 b 792 -15 579 28 679 -15 b 1042 36 876 -15 967 -3 l 1013 176 b 822 140 960 156 907 140 b 639 282 715 140 642 194 z m 447 246 b 442 204 447 231 446 215 b 333 132 425 165 388 132 b 247 213 286 132 247 160 b 447 318 247 290 333 319 z m 638 425 b 764 556 639 474 675 556 b 879 425 861 556 881 468 z "},"ı":{"ha":381,"x_min":0,"x_max":0,"o":"m 296 0 l 296 679 l 85 679 l 85 0 z "},"ł":{"ha":399,"x_min":0,"x_max":0,"o":"m 304 0 l 304 476 l 403 554 l 403 706 l 304 628 l 304 988 l 93 988 l 93 471 l 3 399 l 3 247 l 93 319 l 93 0 z "},"ø":{"ha":801,"x_min":0,"x_max":0,"o":"m 400 694 b 46 338 190 694 46 551 b 164 68 46 219 90 128 l 103 -22 l 172 -78 l 240 21 b 401 -15 288 -4 343 -15 b 754 342 578 -15 754 100 b 640 610 754 456 713 547 l 704 703 l 631 753 l 565 658 b 401 694 517 682 461 694 z m 276 231 l 272 231 b 249 339 256 263 249 301 b 399 543 249 435 289 543 b 475 518 429 543 454 535 z m 526 443 l 529 442 b 551 336 546 408 551 368 b 400 136 551 217 494 136 b 329 161 374 136 349 143 z "},"œ":{"ha":1206,"x_min":0,"x_max":0,"o":"m 1160 276 b 1165 357 1161 290 1165 325 b 869 694 1165 522 1085 694 b 633 574 774 694 688 653 l 631 574 b 392 694 585 654 490 694 b 46 339 190 694 46 551 b 378 -15 46 117 194 -15 b 632 106 479 -15 575 22 l 636 106 b 886 -15 697 17 788 -15 b 1133 36 951 -15 1058 -6 l 1104 178 b 915 142 1049 157 996 142 b 731 276 817 142 736 193 z m 403 543 b 535 342 494 543 535 447 b 400 136 535 218 486 136 b 264 340 313 136 264 225 b 401 543 264 435 296 543 z m 728 419 b 851 553 729 472 765 553 b 969 419 954 553 969 467 z "},"ß":{"ha":833,"x_min":0,"x_max":0,"o":"m 296 0 l 296 617 b 429 840 296 785 351 840 b 538 729 496 840 538 792 b 528 679 538 710 533 694 b 415 507 454 640 415 576 b 522 310 415 417 476 357 b 572 214 556 274 572 249 b 479 143 572 174 539 143 b 383 163 443 143 408 150 l 357 7 b 506 -15 396 -8 454 -15 b 785 224 683 -15 785 82 b 676 442 785 329 722 392 b 628 533 643 476 628 501 b 708 631 628 568 653 604 b 740 744 728 657 740 703 b 442 1001 740 901 610 1001 b 192 914 335 1001 251 971 b 85 599 124 851 85 757 l 85 0 z "},"¹":{"ha":417,"x_min":0,"x_max":0,"o":"m 326 615 l 326 1157 l 185 1157 l 31 1090 l 51 976 l 163 1025 l 164 1025 l 164 615 z "},"¬":{"ha":828,"x_min":0,"x_max":0,"o":"m 56 586 l 56 457 l 638 457 l 638 147 l 772 147 l 772 586 z "},"µ":{"ha":813,"x_min":0,"x_max":0,"o":"m 543 93 b 696 -15 564 24 617 -15 b 772 -3 729 -15 756 -11 l 783 143 b 726 221 744 144 726 163 l 726 679 l 515 679 l 515 275 b 508 229 515 258 514 242 b 399 154 494 194 453 154 b 296 300 329 154 296 208 l 296 679 l 85 679 l 85 -29 b 104 -275 85 -129 90 -242 l 290 -275 b 275 -28 279 -222 275 -101 l 275 31 b 371 -10 299 4 335 -10 b 539 93 458 -10 517 44 z "},"™":{"ha":903,"x_min":0,"x_max":0,"o":"m 38 936 l 38 843 l 144 843 l 144 557 l 260 557 l 260 843 l 368 843 l 368 936 z m 888 557 l 867 936 l 701 936 l 674 843 b 646 721 664 804 656 767 l 644 721 b 622 843 635 783 629 814 l 597 936 l 419 936 l 396 557 l 504 557 l 513 722 b 515 871 514 767 515 819 l 522 871 b 546 724 531 821 540 761 l 581 564 l 690 564 l 729 722 b 761 871 739 765 750 819 l 768 871 b 769 722 769 813 768 765 l 776 557 z "},"Ð":{"ha":978,"x_min":0,"x_max":0,"o":"m 4 394 l 103 394 l 103 0 b 343 -12 154 -6 233 -12 b 775 110 525 -12 676 26 b 929 492 864 186 929 311 b 771 850 929 657 868 778 b 388 947 682 918 565 947 b 103 926 282 947 181 940 l 103 560 l 4 560 z m 500 560 l 314 560 l 314 776 b 410 785 332 781 363 785 b 706 485 593 785 706 689 b 388 153 706 256 582 153 b 314 157 363 153 332 153 l 314 394 l 500 394 z "},"½":{"ha":1154,"x_min":0,"x_max":0,"o":"m 329 369 l 329 911 l 188 911 l 33 844 l 54 731 l 165 779 l 167 779 l 167 369 z m 324 -15 l 835 918 l 719 918 l 208 -15 z m 674 0 l 1101 0 l 1101 121 l 899 121 l 899 124 l 932 151 b 1092 381 1015 218 1092 282 b 881 549 1092 475 1018 549 b 678 489 796 549 724 522 l 719 383 b 839 422 750 404 793 422 b 921 356 892 422 921 394 b 760 156 921 296 864 249 l 674 79 z "},"±":{"ha":828,"x_min":0,"x_max":0,"o":"m 346 804 l 346 564 l 56 564 l 56 435 l 346 435 l 346 189 l 482 189 l 482 435 l 772 435 l 772 564 l 482 564 l 482 804 z m 56 129 l 56 0 l 772 0 l 772 129 z "},"Þ":{"ha":806,"x_min":0,"x_max":0,"o":"m 92 0 l 300 0 l 300 183 b 396 176 319 181 351 176 b 763 496 596 176 763 265 b 672 699 763 578 729 650 b 415 774 610 751 526 774 b 300 768 357 774 326 771 l 300 936 l 92 936 z m 300 606 b 392 613 317 610 347 613 b 554 479 494 613 554 565 b 388 340 554 399 501 340 b 300 349 353 340 321 343 z "},"¼":{"ha":1154,"x_min":0,"x_max":0,"o":"m 346 369 l 346 911 l 204 911 l 50 844 l 71 731 l 182 779 l 183 779 l 183 369 z m 356 -15 l 868 918 l 753 918 l 240 -15 z m 1032 0 l 1032 125 l 1106 125 l 1106 228 l 1032 228 l 1032 547 l 847 547 l 610 213 l 610 125 l 882 125 l 882 0 z m 882 228 l 760 228 l 757 229 l 835 343 b 885 433 851 369 867 400 l 888 433 b 882 331 886 400 882 367 z "},"÷":{"ha":828,"x_min":0,"x_max":0,"o":"m 414 511 b 515 614 475 511 515 553 b 414 717 514 676 475 717 b 313 614 354 717 313 676 b 413 511 313 553 353 511 z m 772 306 l 772 435 l 56 435 l 56 306 z m 414 24 b 515 126 475 24 515 65 b 414 229 514 189 475 229 b 313 126 354 229 313 189 b 413 24 313 65 353 24 z "},"¦":{"ha":393,"x_min":0,"x_max":0,"o":"m 122 242 l 122 -244 l 269 -244 l 269 242 z m 122 936 l 122 450 l 269 450 l 269 936 z "},"°":{"ha":494,"x_min":0,"x_max":0,"o":"m 249 951 b 38 744 131 951 36 860 b 247 543 38 633 125 543 b 460 749 361 543 460 629 b 250 951 460 857 375 951 z m 249 854 b 349 747 314 854 349 801 b 249 640 349 686 307 640 b 149 746 192 640 149 686 b 247 854 149 803 188 854 z "},"þ":{"ha":831,"x_min":0,"x_max":0,"o":"m 85 939 l 85 -275 l 296 -275 l 296 64 l 299 64 b 478 -15 333 18 394 -15 b 783 346 618 -15 783 94 b 501 694 783 571 646 697 b 299 596 407 694 339 656 l 296 596 l 296 939 z m 296 394 b 310 451 296 413 303 436 b 431 529 332 500 378 529 b 569 343 518 529 569 447 b 425 147 569 222 513 147 b 315 213 378 147 336 174 b 296 278 303 229 296 258 z "},"¾":{"ha":1154,"x_min":0,"x_max":0,"o":"m 89 772 b 215 807 117 788 167 807 b 289 757 267 807 289 786 b 182 700 289 714 228 700 l 143 700 l 143 606 l 185 606 b 304 536 246 606 304 583 b 206 474 304 500 263 474 b 69 510 156 474 97 493 l 38 401 b 225 363 78 379 150 363 b 475 528 378 363 475 431 b 340 654 475 599 417 647 l 340 657 b 454 781 407 678 454 721 b 254 918 454 857 388 918 b 60 874 174 918 100 897 z m 400 -15 l 911 918 l 796 918 l 286 -15 z m 1044 0 l 1044 125 l 1118 125 l 1118 228 l 1044 228 l 1044 547 l 860 547 l 622 213 l 622 125 l 894 125 l 894 0 z m 894 228 l 772 228 l 769 229 l 847 343 b 897 433 864 369 879 400 l 900 433 b 894 331 899 400 894 367 z "},"²":{"ha":489,"x_min":0,"x_max":0,"o":"m 21 615 l 449 615 l 449 736 l 246 736 l 246 739 l 279 767 b 439 996 363 833 439 897 b 228 1164 439 1090 365 1164 b 25 1104 143 1164 71 1138 l 67 999 b 186 1038 97 1019 140 1038 b 268 971 239 1038 268 1010 b 107 771 268 911 211 864 l 21 694 z "},"®":{"ha":638,"x_min":0,"x_max":0,"o":"m 289 679 l 311 679 b 349 647 333 679 344 669 b 365 600 354 626 358 608 l 440 600 b 425 653 436 607 432 621 b 381 708 418 683 404 701 l 381 711 b 431 761 410 719 431 739 b 407 808 431 783 421 800 b 318 826 390 819 369 826 b 219 818 272 826 235 821 l 219 600 l 289 600 z m 290 778 b 314 779 297 778 306 779 b 353 751 338 779 353 769 b 311 725 353 735 338 725 l 290 725 z m 319 951 b 72 713 182 951 72 844 b 319 472 72 579 182 472 b 565 713 458 472 565 579 b 321 951 565 844 458 951 z m 318 892 b 493 713 419 892 493 811 b 319 532 493 613 419 531 b 146 711 219 532 146 613 b 317 892 146 811 219 892 z "},"−":{"ha":828,"x_min":0,"x_max":0,"o":"m 56 436 l 56 307 l 772 307 l 772 436 z "},"ð":{"ha":797,"x_min":0,"x_max":0,"o":"m 399 136 b 264 331 311 136 264 225 b 401 528 264 415 297 528 b 500 482 446 528 478 510 b 533 336 524 453 533 408 b 400 136 533 218 488 136 z m 149 664 l 349 750 b 469 633 396 718 436 678 l 467 629 b 368 657 433 653 403 658 b 46 329 193 653 46 528 b 397 -15 46 118 199 -15 b 751 357 576 -15 751 100 b 694 615 751 453 733 540 b 525 825 654 696 596 768 l 671 889 l 629 969 l 438 888 b 218 997 369 932 292 971 l 128 879 b 257 813 172 860 217 839 l 111 747 z "},"×":{"ha":828,"x_min":0,"x_max":0,"o":"m 56 639 l 322 365 l 56 93 l 147 0 l 414 272 l 681 0 l 772 93 l 506 365 l 772 639 l 682 731 l 414 457 l 146 731 z "},"³":{"ha":482,"x_min":0,"x_max":0,"o":"m 64 1018 b 190 1053 92 1033 142 1053 b 264 1003 242 1053 264 1032 b 157 946 264 960 203 946 l 118 946 l 118 851 l 160 851 b 279 782 221 851 279 829 b 181 719 279 746 238 719 b 44 756 131 719 72 740 l 13 647 b 200 608 53 625 125 608 b 450 774 353 608 450 676 b 315 900 450 844 392 893 l 315 903 b 429 1026 382 924 429 967 b 229 1164 429 1103 363 1164 b 35 1119 149 1164 75 1143 z "},"©":{"ha":940,"x_min":0,"x_max":0,"o":"m 472 900 b 44 472 235 900 44 708 b 472 42 44 233 235 42 b 896 472 708 42 896 233 b 474 900 896 708 708 900 z m 471 821 b 804 471 656 821 804 665 b 471 121 804 275 656 119 b 136 471 285 121 136 275 b 469 821 136 665 285 821 z m 658 683 b 506 722 640 703 572 722 b 236 464 364 722 236 624 b 492 213 236 322 329 213 b 664 257 553 213 615 225 l 643 328 b 504 294 613 308 561 294 b 333 468 401 294 333 367 b 506 640 333 576 399 640 b 638 610 567 640 621 619 z "},"Á":{"ha":911,"x_min":0,"x_max":0,"o":"m 578 240 l 650 0 l 878 0 l 586 936 l 310 936 l 24 0 l 243 0 l 308 240 z m 339 399 l 396 597 b 438 778 410 651 425 722 l 442 778 b 488 597 456 724 472 653 l 546 399 z m 468 1157 l 351 986 l 521 986 l 690 1157 z "},"Â":{"ha":911,"x_min":0,"x_max":0,"o":"m 578 240 l 650 0 l 878 0 l 586 936 l 310 936 l 24 0 l 243 0 l 308 240 z m 339 399 l 396 597 b 438 778 410 651 425 722 l 442 778 b 488 597 456 724 472 653 l 546 399 z m 376 1157 l 238 986 l 385 986 l 454 1072 l 457 1072 l 526 986 l 675 986 l 535 1157 z "},"Ä":{"ha":911,"x_min":0,"x_max":0,"o":"m 578 240 l 650 0 l 878 0 l 586 936 l 310 936 l 24 0 l 243 0 l 308 240 z m 339 399 l 396 597 b 438 778 410 651 425 722 l 442 778 b 488 597 456 724 472 653 l 546 399 z m 317 989 b 408 1083 369 989 408 1032 b 317 1179 408 1139 368 1179 b 221 1083 263 1179 221 1138 b 315 989 221 1032 263 989 z m 604 989 b 697 1083 658 989 697 1032 b 604 1179 697 1139 657 1179 b 510 1083 550 1179 510 1138 b 603 989 510 1032 549 989 z "},"À":{"ha":911,"x_min":0,"x_max":0,"o":"m 578 240 l 650 0 l 878 0 l 586 936 l 310 936 l 24 0 l 243 0 l 308 240 z m 339 399 l 396 597 b 438 778 410 651 425 722 l 442 778 b 488 597 456 724 472 653 l 546 399 z m 211 1158 l 381 989 l 550 989 l 433 1158 z "},"Å":{"ha":911,"x_min":0,"x_max":0,"o":"m 578 240 l 650 0 l 878 0 l 586 936 l 310 936 l 24 0 l 243 0 l 308 240 z m 339 399 l 396 597 b 438 778 410 651 425 722 l 442 778 b 488 597 456 724 472 653 l 546 399 z m 451 1246 b 292 1108 349 1246 292 1183 b 451 975 292 1035 351 975 b 610 1110 550 975 610 1035 b 453 1246 610 1185 557 1246 z m 450 1175 b 511 1110 489 1175 511 1143 b 450 1046 511 1074 489 1046 b 389 1108 411 1046 389 1076 b 449 1175 389 1143 410 1175 z "},"Ã":{"ha":911,"x_min":0,"x_max":0,"o":"m 578 240 l 650 0 l 878 0 l 586 936 l 310 936 l 24 0 l 243 0 l 308 240 z m 339 399 l 396 597 b 438 778 410 651 425 722 l 442 778 b 488 597 456 724 472 653 l 546 399 z m 363 993 b 396 1053 365 1033 378 1053 b 456 1028 415 1053 431 1042 b 546 1001 481 1014 508 1001 b 654 1175 618 1001 657 1050 l 560 1175 b 522 1115 554 1128 546 1115 b 461 1142 504 1115 485 1128 b 372 1169 436 1157 410 1169 b 265 993 306 1169 263 1110 z "},"Ç":{"ha":829,"x_min":0,"x_max":0,"o":"m 747 192 b 569 161 704 174 635 161 b 271 467 382 161 271 279 b 569 776 271 675 401 776 b 746 742 644 776 704 760 l 789 910 b 560 950 753 928 669 950 b 49 454 276 950 49 774 b 449 -8 49 211 185 26 l 394 -124 b 504 -175 472 -132 504 -147 b 454 -210 504 -200 482 -210 b 376 -190 429 -210 397 -201 l 349 -276 b 468 -303 381 -294 425 -303 b 633 -175 547 -303 633 -271 b 532 -61 633 -110 585 -74 l 558 -14 b 778 25 663 -12 742 8 z "},"É":{"ha":742,"x_min":0,"x_max":0,"o":"m 649 568 l 304 568 l 304 763 l 669 763 l 669 936 l 93 936 l 93 0 l 689 0 l 689 174 l 304 174 l 304 396 l 649 396 z m 401 1157 l 285 986 l 454 986 l 624 1157 z "},"Ê":{"ha":742,"x_min":0,"x_max":0,"o":"m 649 568 l 304 568 l 304 763 l 669 763 l 669 936 l 93 936 l 93 0 l 689 0 l 689 174 l 304 174 l 304 396 l 649 396 z m 308 1157 l 169 986 l 317 986 l 386 1072 l 389 1072 l 458 986 l 607 986 l 467 1157 z "},"Ë":{"ha":742,"x_min":0,"x_max":0,"o":"m 649 568 l 304 568 l 304 763 l 669 763 l 669 936 l 93 936 l 93 0 l 689 0 l 689 174 l 304 174 l 304 396 l 649 396 z m 235 990 b 326 1085 288 990 326 1033 b 235 1181 326 1140 286 1181 b 139 1085 181 1181 139 1139 b 233 990 139 1033 181 990 z m 522 990 b 615 1085 576 990 615 1033 b 522 1181 615 1140 575 1181 b 428 1085 468 1181 428 1139 b 521 990 428 1033 467 990 z "},"È":{"ha":742,"x_min":0,"x_max":0,"o":"m 649 568 l 304 568 l 304 763 l 669 763 l 669 936 l 93 936 l 93 0 l 689 0 l 689 174 l 304 174 l 304 396 l 649 396 z m 154 1158 l 324 989 l 493 989 l 376 1158 z "},"Í":{"ha":396,"x_min":0,"x_max":0,"o":"m 93 936 l 93 0 l 304 0 l 304 936 z m 211 1157 l 94 986 l 264 986 l 433 1157 z "},"Î":{"ha":396,"x_min":0,"x_max":0,"o":"m 93 936 l 93 0 l 304 0 l 304 936 z m 119 1157 l -19 986 l 128 986 l 197 1072 l 200 1072 l 269 986 l 418 986 l 278 1157 z "},"Ï":{"ha":396,"x_min":0,"x_max":0,"o":"m 93 936 l 93 0 l 304 0 l 304 936 z m 56 990 b 147 1085 108 990 147 1033 b 56 1181 147 1140 107 1181 b -40 1085 1 1181 -40 1139 b 54 990 -40 1033 1 990 z m 343 990 b 436 1085 397 990 436 1033 b 343 1181 436 1140 396 1181 b 249 1085 289 1181 249 1139 b 342 990 249 1033 288 990 z "},"Ì":{"ha":396,"x_min":0,"x_max":0,"o":"m 93 936 l 93 0 l 304 0 l 304 936 z m -40 1158 l 129 989 l 299 989 l 182 1158 z "},"Ñ":{"ha":958,"x_min":0,"x_max":0,"o":"m 286 0 l 286 282 b 276 692 286 435 283 567 l 282 692 b 444 361 326 582 389 463 l 644 0 l 867 0 l 867 936 l 672 936 l 672 664 b 689 272 672 522 676 396 l 686 272 b 533 593 643 378 589 494 l 339 936 l 92 936 l 92 0 z m 385 993 b 418 1053 388 1033 400 1053 b 478 1028 438 1053 453 1042 b 568 1001 503 1014 531 1001 b 676 1175 640 1001 679 1050 l 582 1175 b 544 1115 576 1128 568 1115 b 483 1142 526 1115 507 1128 b 394 1169 458 1157 432 1169 b 288 993 328 1169 285 1110 z "},"Ó":{"ha":996,"x_min":0,"x_max":0,"o":"m 490 -15 b 949 478 764 -15 949 169 b 504 951 949 736 792 951 b 49 461 229 951 49 742 b 489 -15 49 194 213 -15 z m 499 153 b 272 467 357 153 272 290 b 500 783 272 642 354 783 b 725 471 646 783 725 639 b 500 153 725 288 643 153 z m 518 1158 l 401 988 l 571 988 l 740 1158 z "},"Ô":{"ha":996,"x_min":0,"x_max":0,"o":"m 490 -15 b 949 478 764 -15 949 169 b 504 951 949 736 792 951 b 49 461 229 951 49 742 b 489 -15 49 194 213 -15 z m 499 153 b 272 467 357 153 272 290 b 500 783 272 642 354 783 b 725 471 646 783 725 639 b 500 153 725 288 643 153 z m 419 1158 l 281 988 l 428 988 l 497 1074 l 500 1074 l 569 988 l 718 988 l 578 1158 z "},"Ö":{"ha":996,"x_min":0,"x_max":0,"o":"m 490 -15 b 949 478 764 -15 949 169 b 504 951 949 736 792 951 b 49 461 229 951 49 742 b 489 -15 49 194 213 -15 z m 499 153 b 272 467 357 153 272 290 b 500 783 272 642 354 783 b 725 471 646 783 725 639 b 500 153 725 288 643 153 z m 356 990 b 447 1085 408 990 447 1033 b 356 1181 447 1140 407 1181 b 260 1085 301 1181 260 1139 b 354 990 260 1033 301 990 z m 643 990 b 736 1085 697 990 736 1033 b 643 1181 736 1140 696 1181 b 549 1085 589 1181 549 1139 b 642 990 549 1033 588 990 z "},"Ò":{"ha":996,"x_min":0,"x_max":0,"o":"m 490 -15 b 949 478 764 -15 949 169 b 504 951 949 736 792 951 b 49 461 229 951 49 742 b 489 -15 49 194 213 -15 z m 499 153 b 272 467 357 153 272 290 b 500 783 272 642 354 783 b 725 471 646 783 725 639 b 500 153 725 288 643 153 z m 261 1160 l 431 990 l 600 990 l 483 1160 z "},"Õ":{"ha":996,"x_min":0,"x_max":0,"o":"m 490 -15 b 949 478 764 -15 949 169 b 504 951 949 736 792 951 b 49 461 229 951 49 742 b 489 -15 49 194 213 -15 z m 499 153 b 272 467 357 153 272 290 b 500 783 272 642 354 783 b 725 471 646 783 725 639 b 500 153 725 288 643 153 z m 401 993 b 435 1053 404 1033 417 1053 b 494 1028 454 1053 469 1042 b 585 1001 519 1014 547 1001 b 693 1175 657 1001 696 1050 l 599 1175 b 561 1115 593 1128 585 1115 b 500 1142 543 1115 524 1128 b 411 1169 475 1157 449 1169 b 304 993 344 1169 301 1110 z "},"Š":{"ha":750,"x_min":0,"x_max":0,"o":"m 56 44 b 321 -14 108 15 214 -14 b 697 276 578 -14 697 119 b 456 556 697 408 621 494 b 282 688 333 601 282 628 b 418 778 282 735 326 778 b 613 733 508 778 576 751 l 660 903 b 421 950 604 929 528 950 b 67 669 201 950 67 829 b 325 392 67 533 169 447 b 482 261 438 353 482 319 b 333 160 482 200 431 160 b 99 218 243 160 154 189 z m 468 988 l 607 1158 l 460 1158 l 390 1072 l 388 1072 l 318 1158 l 169 1158 l 310 988 z "},"Ú":{"ha":947,"x_min":0,"x_max":0,"o":"m 92 936 l 92 414 b 465 -15 92 117 229 -15 b 856 411 710 -15 856 122 l 856 936 l 644 936 l 644 399 b 472 154 644 232 583 154 b 303 399 365 154 303 236 l 303 936 z m 483 1157 l 367 986 l 536 986 l 706 1157 z "},"Û":{"ha":947,"x_min":0,"x_max":0,"o":"m 92 936 l 92 414 b 465 -15 92 117 229 -15 b 856 411 710 -15 856 122 l 856 936 l 644 936 l 644 399 b 472 154 644 232 583 154 b 303 399 365 154 303 236 l 303 936 z m 410 1157 l 271 986 l 418 986 l 488 1072 l 490 1072 l 560 986 l 708 986 l 568 1157 z "},"Ü":{"ha":947,"x_min":0,"x_max":0,"o":"m 92 936 l 92 414 b 465 -15 92 117 229 -15 b 856 411 710 -15 856 122 l 856 936 l 644 936 l 644 399 b 472 154 644 232 583 154 b 303 399 365 154 303 236 l 303 936 z m 339 990 b 431 1085 392 990 431 1033 b 339 1181 431 1140 390 1181 b 243 1085 285 1181 243 1139 b 338 990 243 1033 285 990 z m 626 990 b 719 1085 681 990 719 1033 b 626 1181 719 1140 679 1181 b 532 1085 572 1181 532 1139 b 625 990 532 1033 571 990 z "},"Ù":{"ha":947,"x_min":0,"x_max":0,"o":"m 92 936 l 92 414 b 465 -15 92 117 229 -15 b 856 411 710 -15 856 122 l 856 936 l 644 936 l 644 399 b 472 154 644 232 583 154 b 303 399 365 154 303 236 l 303 936 z m 242 1158 l 411 989 l 581 989 l 464 1158 z "},"Ý":{"ha":838,"x_min":0,"x_max":0,"o":"m 519 0 l 519 390 l 828 936 l 590 936 l 496 711 b 425 532 468 644 446 590 l 422 532 b 350 711 400 593 379 643 l 256 936 l 13 936 l 308 383 l 308 0 z m 444 1154 l 328 983 l 497 983 l 667 1154 z "},"Ÿ":{"ha":838,"x_min":0,"x_max":0,"o":"m 519 0 l 519 390 l 828 936 l 590 936 l 496 711 b 425 532 468 644 446 590 l 422 532 b 350 711 400 593 379 643 l 256 936 l 13 936 l 308 383 l 308 0 z m 289 988 b 381 1082 342 988 381 1031 b 289 1178 381 1138 340 1178 b 193 1082 235 1178 193 1136 b 288 988 193 1031 235 988 z m 576 988 b 669 1082 631 988 669 1031 b 576 1178 669 1138 629 1178 b 482 1082 522 1178 482 1136 b 575 988 482 1031 521 988 z "},"Ž":{"ha":801,"x_min":0,"x_max":0,"o":"m 33 0 l 760 0 l 760 175 l 317 175 l 317 181 l 753 814 l 753 936 l 74 936 l 74 761 l 479 761 l 479 757 l 33 114 z m 489 986 l 628 1157 l 481 1157 l 411 1071 l 408 1071 l 339 1157 l 190 1157 l 331 986 z "},"á":{"ha":733,"x_min":0,"x_max":0,"o":"m 650 401 b 353 694 650 561 579 694 b 89 633 229 694 136 660 l 128 499 b 315 549 172 525 246 549 b 439 461 419 549 439 497 l 439 453 b 40 193 199 453 40 369 b 260 -15 40 85 122 -15 b 454 68 340 -15 410 14 l 458 68 l 471 0 l 661 0 b 650 164 653 38 650 100 z m 446 247 b 442 211 446 235 444 222 b 332 133 428 168 383 133 b 249 214 285 133 249 160 b 446 321 249 294 335 321 z m 392 975 l 272 764 l 417 764 l 586 975 z "},"â":{"ha":733,"x_min":0,"x_max":0,"o":"m 650 401 b 353 694 650 561 579 694 b 89 633 229 694 136 660 l 128 499 b 315 549 172 525 246 549 b 439 461 419 549 439 497 l 439 453 b 40 193 199 453 40 369 b 260 -15 40 85 122 -15 b 454 68 340 -15 410 14 l 458 68 l 471 0 l 661 0 b 650 164 653 38 650 100 z m 446 247 b 442 211 446 235 444 222 b 332 133 428 168 383 133 b 249 214 285 133 249 160 b 446 321 249 294 335 321 z m 292 975 l 153 764 l 290 764 l 361 885 l 364 885 l 433 764 l 571 764 l 433 975 z "},"ä":{"ha":733,"x_min":0,"x_max":0,"o":"m 650 401 b 353 694 650 561 579 694 b 89 633 229 694 136 660 l 128 499 b 315 549 172 525 246 549 b 439 461 419 549 439 497 l 439 453 b 40 193 199 453 40 369 b 260 -15 40 85 122 -15 b 454 68 340 -15 410 14 l 458 68 l 471 0 l 661 0 b 650 164 653 38 650 100 z m 446 247 b 442 211 446 235 444 222 b 332 133 428 168 383 133 b 249 214 285 133 249 160 b 446 321 249 294 335 321 z m 222 774 b 317 872 276 774 317 818 b 222 969 317 928 275 969 b 122 872 167 969 122 928 b 221 774 122 818 165 774 z m 514 774 b 610 872 569 774 610 818 b 514 969 610 928 568 969 b 415 872 457 969 415 928 b 511 774 415 818 457 774 z "},"à":{"ha":733,"x_min":0,"x_max":0,"o":"m 650 401 b 353 694 650 561 579 694 b 89 633 229 694 136 660 l 128 499 b 315 549 172 525 246 549 b 439 461 419 549 439 497 l 439 453 b 40 193 199 453 40 369 b 260 -15 40 85 122 -15 b 454 68 340 -15 410 14 l 458 68 l 471 0 l 661 0 b 650 164 653 38 650 100 z m 446 247 b 442 211 446 235 444 222 b 332 133 428 168 383 133 b 249 214 285 133 249 160 b 446 321 249 294 335 321 z m 139 975 l 308 764 l 453 764 l 333 975 z "},"å":{"ha":733,"x_min":0,"x_max":0,"o":"m 650 401 b 353 694 650 561 579 694 b 89 633 229 694 136 660 l 128 499 b 315 549 172 525 246 549 b 439 461 419 549 439 497 l 439 453 b 40 193 199 453 40 369 b 260 -15 40 85 122 -15 b 454 68 340 -15 410 14 l 458 68 l 471 0 l 661 0 b 650 164 653 38 650 100 z m 446 247 b 442 211 446 235 444 222 b 332 133 428 168 383 133 b 249 214 285 133 249 160 b 446 321 249 294 335 321 z m 369 1022 b 208 883 265 1022 208 961 b 369 749 208 807 269 749 b 526 885 465 749 526 807 b 371 1022 526 963 471 1022 z m 368 953 b 432 885 410 953 432 919 b 368 818 432 849 408 818 b 306 883 329 818 306 851 b 367 953 306 919 326 953 z "},"ã":{"ha":733,"x_min":0,"x_max":0,"o":"m 650 401 b 353 694 650 561 579 694 b 89 633 229 694 136 660 l 128 499 b 315 549 172 525 246 549 b 439 461 419 549 439 497 l 439 453 b 40 193 199 453 40 369 b 260 -15 40 85 122 -15 b 454 68 340 -15 410 14 l 458 68 l 471 0 l 661 0 b 650 164 653 38 650 100 z m 446 247 b 442 211 446 235 444 222 b 332 133 428 168 383 133 b 249 214 285 133 249 160 b 446 321 249 294 335 321 z m 257 775 b 290 838 260 817 271 838 b 343 815 308 838 318 829 b 439 786 372 801 400 786 b 553 964 513 786 557 838 l 456 964 b 419 903 451 915 442 903 b 361 929 403 903 383 917 b 271 957 333 943 306 957 b 157 775 200 957 153 892 z "},"ç":{"ha":626,"x_min":0,"x_max":0,"o":"m 569 174 b 447 151 538 160 499 151 b 263 342 346 151 263 217 b 444 531 261 451 333 531 b 563 510 500 531 538 521 l 596 667 b 435 693 551 683 490 693 b 46 333 182 693 46 531 b 331 -7 46 147 154 19 l 275 -122 b 385 -174 353 -131 385 -147 b 335 -210 385 -200 363 -210 b 257 -190 310 -210 278 -201 l 231 -276 b 347 -303 263 -294 307 -303 b 514 -174 428 -303 514 -271 b 413 -61 514 -108 465 -74 l 439 -14 b 594 18 507 -11 564 3 z "},"é":{"ha":733,"x_min":0,"x_max":0,"o":"m 685 272 b 692 356 688 288 692 319 b 389 694 692 524 608 694 b 46 332 154 694 46 504 b 408 -14 46 119 178 -14 b 654 29 500 -14 585 0 l 626 172 b 439 143 569 153 511 143 b 247 272 340 143 254 185 z m 246 417 b 378 554 251 472 288 554 b 496 417 474 554 496 468 z m 418 975 l 299 764 l 443 764 l 613 975 z "},"ê":{"ha":733,"x_min":0,"x_max":0,"o":"m 685 272 b 692 356 688 288 692 319 b 389 694 692 524 608 694 b 46 332 154 694 46 504 b 408 -14 46 119 178 -14 b 654 29 500 -14 585 0 l 626 172 b 439 143 569 153 511 143 b 247 272 340 143 254 185 z m 246 417 b 378 554 251 472 288 554 b 496 417 474 554 496 468 z m 313 975 l 174 764 l 311 764 l 382 885 l 385 885 l 454 764 l 592 764 l 454 975 z "},"ë":{"ha":733,"x_min":0,"x_max":0,"o":"m 685 272 b 692 356 688 288 692 319 b 389 694 692 524 608 694 b 46 332 154 694 46 504 b 408 -14 46 119 178 -14 b 654 29 500 -14 585 0 l 626 172 b 439 143 569 153 511 143 b 247 272 340 143 254 185 z m 246 417 b 378 554 251 472 288 554 b 496 417 474 554 496 468 z m 246 774 b 340 872 300 774 340 818 b 246 969 340 928 299 969 b 146 872 190 969 146 928 b 244 774 146 818 189 774 z m 538 774 b 633 872 593 774 633 818 b 538 969 633 928 592 969 b 439 872 481 969 439 928 b 535 774 439 818 481 774 z "},"è":{"ha":733,"x_min":0,"x_max":0,"o":"m 685 272 b 692 356 688 288 692 319 b 389 694 692 524 608 694 b 46 332 154 694 46 504 b 408 -14 46 119 178 -14 b 654 29 500 -14 585 0 l 626 172 b 439 143 569 153 511 143 b 247 272 340 143 254 185 z m 246 417 b 378 554 251 472 288 554 b 496 417 474 554 496 468 z m 167 975 l 336 764 l 481 764 l 361 975 z "},"í":{"ha":381,"x_min":0,"x_max":0,"o":"m 296 0 l 296 679 l 85 679 l 85 0 z m 221 975 l 101 764 l 246 764 l 415 975 z "},"î":{"ha":381,"x_min":0,"x_max":0,"o":"m 296 0 l 296 679 l 85 679 l 85 0 z m 121 975 l -18 764 l 119 764 l 190 885 l 193 885 l 263 764 l 400 764 l 263 975 z "},"ï":{"ha":381,"x_min":0,"x_max":0,"o":"m 296 0 l 296 679 l 85 679 l 85 0 z m 46 774 b 140 872 100 774 140 818 b 46 969 140 928 99 969 b -54 872 -10 969 -54 928 b 44 774 -54 818 -11 774 z m 338 774 b 433 872 393 774 433 818 b 338 969 433 928 392 969 b 239 872 281 969 239 928 b 335 774 239 818 281 774 z "},"ì":{"ha":381,"x_min":0,"x_max":0,"o":"m 296 0 l 296 679 l 85 679 l 85 0 z m -42 975 l 128 764 l 272 764 l 153 975 z "},"ñ":{"ha":814,"x_min":0,"x_max":0,"o":"m 85 0 l 296 0 l 296 392 b 303 444 296 411 297 431 b 411 524 318 483 353 524 b 518 376 488 524 518 464 l 518 0 l 729 0 l 729 401 b 486 694 729 601 625 694 b 276 585 372 694 304 629 l 272 585 l 263 679 l 79 679 b 85 463 82 618 85 547 z m 311 775 b 344 838 314 817 325 838 b 397 815 363 838 372 829 b 493 786 426 801 454 786 b 607 964 567 786 611 838 l 510 964 b 474 903 506 915 496 903 b 415 929 457 903 438 917 b 325 957 388 943 360 957 b 211 775 254 957 207 892 z "},"ó":{"ha":801,"x_min":0,"x_max":0,"o":"m 399 -15 b 756 346 579 -15 756 99 b 410 694 756 551 617 694 b 46 335 190 694 46 554 b 397 -15 46 115 199 -15 z m 401 136 b 264 339 313 136 264 224 b 403 543 264 440 303 543 b 538 340 499 543 538 440 b 403 136 538 218 486 136 z m 428 975 l 308 764 l 453 764 l 622 975 z "},"ô":{"ha":801,"x_min":0,"x_max":0,"o":"m 399 -15 b 756 346 579 -15 756 99 b 410 694 756 551 617 694 b 46 335 190 694 46 554 b 397 -15 46 115 199 -15 z m 401 136 b 264 339 313 136 264 224 b 403 543 264 440 303 543 b 538 340 499 543 538 440 b 403 136 538 218 486 136 z m 332 975 l 193 764 l 331 764 l 401 885 l 404 885 l 474 764 l 611 764 l 474 975 z "},"ö":{"ha":801,"x_min":0,"x_max":0,"o":"m 399 -15 b 756 346 579 -15 756 99 b 410 694 756 551 617 694 b 46 335 190 694 46 554 b 397 -15 46 115 199 -15 z m 401 136 b 264 339 313 136 264 224 b 403 543 264 440 303 543 b 538 340 499 543 538 440 b 403 136 538 218 486 136 z m 257 774 b 351 872 311 774 351 818 b 257 969 351 928 310 969 b 157 872 201 969 157 928 b 256 774 157 818 200 774 z m 549 774 b 644 872 604 774 644 818 b 549 969 644 928 603 969 b 450 872 492 969 450 928 b 546 774 450 818 492 774 z "},"ò":{"ha":801,"x_min":0,"x_max":0,"o":"m 399 -15 b 756 346 579 -15 756 99 b 410 694 756 551 617 694 b 46 335 190 694 46 554 b 397 -15 46 115 199 -15 z m 401 136 b 264 339 313 136 264 224 b 403 543 264 440 303 543 b 538 340 499 543 538 440 b 403 136 538 218 486 136 z m 186 975 l 356 764 l 500 764 l 381 975 z "},"õ":{"ha":801,"x_min":0,"x_max":0,"o":"m 399 -15 b 756 346 579 -15 756 99 b 410 694 756 551 617 694 b 46 335 190 694 46 554 b 397 -15 46 115 199 -15 z m 401 136 b 264 339 313 136 264 224 b 403 543 264 440 303 543 b 538 340 499 543 538 440 b 403 136 538 218 486 136 z m 304 775 b 338 838 307 817 318 838 b 390 815 356 838 365 829 b 486 786 419 801 447 786 b 600 964 560 786 604 838 l 503 964 b 467 903 499 915 489 903 b 408 929 450 903 431 917 b 318 957 381 943 353 957 b 204 775 247 957 200 892 z "},"š":{"ha":603,"x_min":0,"x_max":0,"o":"m 46 35 b 265 -14 97 7 176 -14 b 558 207 460 -14 558 79 b 375 415 557 306 504 371 b 265 493 292 443 265 461 b 346 547 265 526 294 547 b 493 510 403 547 463 525 l 529 654 b 339 694 488 675 418 694 b 63 471 171 694 63 599 b 257 268 61 392 115 315 b 356 190 335 243 356 225 b 265 135 356 156 329 135 b 83 185 203 135 122 161 z m 376 764 l 515 975 l 376 975 l 307 854 l 304 854 l 233 975 l 96 975 l 233 764 z "},"ú":{"ha":810,"x_min":0,"x_max":0,"o":"m 725 679 l 514 679 l 514 275 b 506 229 514 257 511 242 b 400 156 493 196 458 156 b 293 314 325 156 293 215 l 293 679 l 82 679 l 82 281 b 321 -15 82 71 182 -15 b 533 96 443 -15 507 54 l 538 96 l 547 0 l 731 0 b 725 218 728 57 725 129 z m 439 975 l 319 764 l 464 764 l 633 975 z "},"û":{"ha":810,"x_min":0,"x_max":0,"o":"m 725 679 l 514 679 l 514 275 b 506 229 514 257 511 242 b 400 156 493 196 458 156 b 293 314 325 156 293 215 l 293 679 l 82 679 l 82 281 b 321 -15 82 71 182 -15 b 533 96 443 -15 507 54 l 538 96 l 547 0 l 731 0 b 725 218 728 57 725 129 z m 336 975 l 197 764 l 335 764 l 406 885 l 408 885 l 478 764 l 615 764 l 478 975 z "},"ü":{"ha":810,"x_min":0,"x_max":0,"o":"m 725 679 l 514 679 l 514 275 b 506 229 514 257 511 242 b 400 156 493 196 458 156 b 293 314 325 156 293 215 l 293 679 l 82 679 l 82 281 b 321 -15 82 71 182 -15 b 533 96 443 -15 507 54 l 538 96 l 547 0 l 731 0 b 725 218 728 57 725 129 z m 265 774 b 360 872 319 774 360 818 b 265 969 360 928 318 969 b 165 872 210 969 165 928 b 264 774 165 818 208 774 z m 557 774 b 653 872 613 774 653 818 b 557 969 653 928 611 969 b 458 872 500 969 458 928 b 554 774 458 818 500 774 z "},"ù":{"ha":810,"x_min":0,"x_max":0,"o":"m 725 679 l 514 679 l 514 275 b 506 229 514 257 511 242 b 400 156 493 196 458 156 b 293 314 325 156 293 215 l 293 679 l 82 679 l 82 281 b 321 -15 82 71 182 -15 b 533 96 443 -15 507 54 l 538 96 l 547 0 l 731 0 b 725 218 728 57 725 129 z m 183 975 l 353 764 l 497 764 l 378 975 z "},"ý":{"ha":726,"x_min":0,"x_max":0,"o":"m 8 679 l 258 57 b 267 22 265 40 267 31 b 256 -8 267 14 263 3 b 168 -93 236 -42 200 -76 b 76 -129 136 -111 103 -124 l 121 -307 b 325 -214 175 -301 253 -278 b 564 232 401 -146 467 -39 l 722 679 l 496 679 l 413 346 b 382 218 403 306 392 256 l 378 218 b 344 344 369 254 356 306 l 243 679 z m 414 975 l 294 764 l 439 764 l 608 975 z "},"ÿ":{"ha":726,"x_min":0,"x_max":0,"o":"m 8 679 l 258 57 b 267 22 265 40 267 31 b 256 -8 267 14 263 3 b 168 -93 236 -42 200 -76 b 76 -129 136 -111 103 -124 l 121 -307 b 325 -214 175 -301 253 -278 b 564 232 401 -146 467 -39 l 722 679 l 496 679 l 413 346 b 382 218 403 306 392 256 l 378 218 b 344 344 369 254 356 306 l 243 679 z m 236 774 b 331 872 290 774 331 818 b 236 969 331 928 289 969 b 136 872 181 969 136 928 b 235 774 136 818 179 774 z m 528 774 b 624 872 583 774 624 818 b 528 969 624 928 582 969 b 429 872 471 969 429 928 b 525 774 429 818 471 774 z "},"ž":{"ha":651,"x_min":0,"x_max":0,"o":"m 31 0 l 621 0 l 621 168 l 294 168 l 294 171 b 406 294 333 208 368 251 l 610 551 l 610 679 l 54 679 l 54 511 l 353 511 l 353 508 b 244 389 314 468 283 433 l 31 122 z m 406 764 l 544 975 l 406 975 l 336 854 l 333 854 l 263 975 l 125 975 l 263 764 z "},"":{"ha":490,"x_min":0,"x_max":0,"o":"m 288 544 l 288 628 b 447 785 390 646 447 710 b 299 942 447 863 406 908 b 193 1006 213 968 193 981 b 261 1046 193 1025 207 1046 b 393 1015 326 1046 372 1025 l 421 1121 b 290 1149 393 1133 343 1147 l 290 1218 l 200 1218 l 200 1143 b 49 989 103 1125 49 1065 b 210 836 49 904 111 868 b 301 774 282 813 301 800 b 224 729 301 744 275 729 b 71 768 164 729 113 746 l 43 658 b 197 621 78 640 136 624 l 197 544 z "},"⁽":{"ha":283,"x_min":0,"x_max":0,"o":"m 153 1206 b 57 874 113 1146 57 1033 b 153 543 57 715 111 604 l 258 543 b 176 874 218 618 176 726 b 258 1206 176 1018 219 1135 z "},"⁾":{"ha":283,"x_min":0,"x_max":0,"o":"m 131 543 b 226 874 172 607 226 717 b 131 1206 226 1033 172 1144 l 25 1206 b 107 875 65 1133 107 1018 b 25 543 107 731 65 619 z "},"":{"ha":779,"x_min":0,"x_max":0,"o":"m 390 -15 b 736 339 614 -15 736 147 b 390 694 736 532 613 694 b 44 339 167 694 44 532 b 389 -15 44 146 167 -15 z m 390 139 b 246 339 300 139 246 215 b 390 540 246 464 300 540 b 535 339 481 540 535 464 b 392 139 535 215 481 139 z "},"":{"ha":572,"x_min":0,"x_max":0,"o":"m 453 0 l 453 679 l 283 679 l 35 571 l 69 414 l 246 494 l 249 494 l 249 0 z "},"":{"ha":661,"x_min":0,"x_max":0,"o":"m 626 0 l 626 163 l 474 163 b 328 150 440 163 376 158 l 328 154 l 386 192 b 581 469 486 258 581 349 b 307 697 581 608 476 697 b 35 617 182 697 82 650 l 82 483 b 246 532 126 508 188 532 b 368 429 322 532 368 497 b 115 168 368 349 290 278 l 32 114 l 32 0 z "},"":{"ha":654,"x_min":0,"x_max":0,"o":"m 28 -143 b 235 -175 67 -160 143 -175 b 611 99 432 -175 611 -72 b 413 297 611 214 521 281 l 413 300 b 579 490 506 322 579 399 b 300 694 579 617 464 694 b 39 625 200 694 97 665 l 75 486 b 250 532 117 507 186 532 b 368 453 325 532 368 504 b 182 354 368 392 285 361 l 143 351 l 144 204 b 219 207 165 206 193 207 b 393 103 326 207 393 167 b 213 -14 393 26 318 -14 b 50 10 147 -14 88 -4 z "},"":{"ha":758,"x_min":0,"x_max":0,"o":"m 731 43 l 731 197 l 622 197 l 622 682 l 364 682 l 32 179 l 32 43 l 426 43 l 426 -174 l 622 -174 l 622 43 z m 426 197 l 226 197 l 224 203 l 339 372 b 425 532 369 421 400 481 l 431 532 b 426 376 426 482 426 428 z "},"":{"ha":647,"x_min":0,"x_max":0,"o":"m 33 -147 b 224 -175 72 -161 147 -175 b 603 122 469 -175 603 -44 b 538 288 603 192 579 246 b 247 376 472 350 367 375 l 272 508 l 565 508 l 589 679 l 136 679 l 61 232 b 357 181 240 236 318 218 b 386 108 376 161 386 136 b 204 -18 386 26 303 -18 b 57 0 147 -18 88 -10 z "},"":{"ha":764,"x_min":0,"x_max":0,"o":"m 643 856 b 47 344 267 851 47 638 b 386 -15 47 131 175 -15 b 718 297 565 -15 718 115 b 449 567 718 468 599 567 b 279 501 369 567 310 533 l 276 501 b 656 706 303 600 411 697 z m 389 140 b 256 307 304 140 256 208 b 278 379 256 335 261 361 b 386 429 301 407 338 429 b 508 286 458 429 508 371 b 390 140 508 188 447 140 z "},"":{"ha":661,"x_min":0,"x_max":0,"o":"m 625 679 l 24 679 l 24 507 l 408 507 l 408 504 b 46 -147 332 315 165 28 l 249 -172 b 625 551 389 43 544 344 z "},"":{"ha":767,"x_min":0,"x_max":0,"o":"m 560 457 b 688 639 631 492 688 550 b 390 857 688 750 589 857 b 75 615 199 857 75 757 b 200 440 75 536 124 478 l 200 435 b 44 226 107 393 44 321 b 375 -15 44 85 176 -15 b 721 247 576 -15 721 90 b 560 450 721 350 644 415 z m 390 726 b 497 622 447 726 497 690 b 408 510 497 568 457 526 b 281 628 329 532 281 576 b 389 726 281 683 322 726 z m 381 126 b 256 244 306 126 256 178 b 360 372 256 303 294 351 b 503 233 444 350 503 300 b 382 126 503 171 451 126 z "},"":{"ha":764,"x_min":0,"x_max":0,"o":"m 114 -167 b 715 346 436 -168 715 -12 b 385 703 715 553 588 703 b 46 390 194 703 46 571 b 311 122 46 233 158 122 b 485 188 390 122 456 154 l 488 186 b 101 -18 449 68 333 -10 z m 379 261 b 256 401 310 261 256 311 b 379 544 256 494 314 544 b 506 390 453 544 506 479 b 490 322 506 361 500 336 b 381 261 469 288 424 261 z "},"":{"ha":239,"x_min":0,"x_max":0,"o":"m 93 531 b 211 786 142 608 181 693 l 57 779 b -10 522 43 693 21 608 z "},"":{"ha":239,"x_min":0,"x_max":0,"o":"m 119 608 b 208 697 172 608 208 646 b 119 786 208 750 172 786 b 31 697 67 786 31 750 b 118 608 31 646 67 608 z "},"":{"ha":458,"x_min":0,"x_max":0,"o":"m 318 608 l 318 685 b 403 704 350 688 381 693 l 385 807 b 304 793 364 799 336 793 b 199 896 249 793 199 825 b 303 997 199 958 238 997 b 375 983 333 997 357 992 l 397 1089 b 318 1104 371 1099 342 1104 l 318 1176 l 226 1176 l 226 1100 b 50 889 108 1078 50 988 b 97 753 50 836 67 788 b 226 688 128 719 171 696 l 226 608 z "},"ﬀ":{"ha":903,"x_min":0,"x_max":0,"o":"m 749 0 l 749 524 l 883 524 l 883 679 l 747 679 l 747 714 b 846 835 747 781 776 835 b 914 825 874 835 896 831 l 922 988 b 811 1001 893 994 857 1001 b 622 933 749 1001 676 983 b 538 706 563 878 538 788 l 538 679 l 319 679 l 319 700 b 401 822 319 769 339 822 b 456 813 421 822 439 818 l 485 968 b 394 985 464 976 429 985 b 188 910 299 985 232 956 b 110 689 131 853 110 771 l 110 679 l 19 679 l 19 524 l 110 524 l 110 0 l 321 0 l 321 524 l 538 524 l 538 0 z "},"ﬃ":{"ha":1249,"x_min":0,"x_max":0,"o":"m 1085 965 b 896 1001 1040 988 963 1001 b 542 708 686 1001 542 896 l 542 679 l 319 679 l 319 699 b 349 799 319 736 326 776 b 411 824 364 814 383 824 b 471 810 433 824 456 818 l 518 963 b 400 985 492 972 447 985 b 197 913 308 985 242 956 b 110 690 135 856 110 772 l 110 679 l 19 679 l 19 524 l 110 524 l 110 0 l 321 0 l 321 524 l 542 524 l 542 0 l 753 0 l 753 524 l 953 524 l 953 0 l 1164 0 l 1164 679 l 751 679 l 751 703 b 901 835 751 778 790 835 b 1040 807 958 835 1007 822 z "},"ﬄ":{"ha":1249,"x_min":0,"x_max":0,"o":"m 521 965 b 415 985 499 974 456 985 b 194 908 326 985 249 958 b 110 689 139 857 110 779 l 110 679 l 19 679 l 19 524 l 110 524 l 110 0 l 321 0 l 321 524 l 542 524 l 542 0 l 753 0 l 753 524 l 875 524 l 875 679 l 751 679 l 751 706 b 872 844 751 783 788 844 b 953 831 911 844 938 839 l 953 0 l 1164 0 l 1164 944 b 903 1001 1096 981 1004 1001 b 644 925 794 1001 711 978 b 542 708 579 872 542 786 l 542 679 l 319 679 l 319 699 b 350 797 319 738 326 775 b 414 822 364 813 385 822 b 476 811 438 822 458 818 z "},"₍":{"ha":283,"x_min":0,"x_max":0,"o":"m 153 386 b 57 54 113 326 57 214 b 153 -276 57 -104 111 -215 l 258 -276 b 176 54 218 -201 176 -93 b 258 386 176 199 219 315 z "},"₎":{"ha":283,"x_min":0,"x_max":0,"o":"m 131 -276 b 226 54 172 -212 226 -103 b 131 386 226 214 172 325 l 25 386 b 107 56 65 314 107 199 b 25 -276 107 -89 65 -200 z "},"":{"ha":286,"x_min":0,"x_max":0,"o":"m 25 922 l 25 824 l 261 824 l 261 922 z "},"":{"ha":286,"x_min":0,"x_max":0,"o":"m 25 103 l 25 4 l 261 4 l 261 103 z "},"⁰":{"ha":525,"x_min":0,"x_max":0,"o":"m 261 608 b 494 886 428 608 494 742 b 261 1164 494 1040 421 1164 b 29 886 100 1164 29 1038 b 260 608 29 732 101 608 z m 261 717 b 183 886 214 717 183 771 b 261 1056 183 1000 214 1056 b 340 886 308 1056 340 1003 b 263 717 340 771 310 717 z "},"⁴":{"ha":546,"x_min":0,"x_max":0,"o":"m 444 615 l 444 740 l 515 740 l 515 843 l 444 843 l 444 1161 l 258 1161 l 28 828 l 28 740 l 294 740 l 294 615 z m 294 843 l 176 843 l 174 844 l 247 956 b 297 1049 264 982 279 1014 l 300 1049 b 294 944 299 1014 294 981 z "},"⁵":{"ha":483,"x_min":0,"x_max":0,"o":"m 415 1156 l 93 1156 l 57 865 b 135 871 78 868 107 871 b 292 792 251 871 292 840 b 186 719 292 739 232 719 b 56 747 135 719 81 735 l 31 639 b 194 608 64 624 132 608 b 442 799 349 608 442 692 b 375 932 442 860 414 906 b 219 971 333 961 274 971 b 182 969 207 971 192 971 l 192 1038 l 415 1038 z "},"⁶":{"ha":504,"x_min":0,"x_max":0,"o":"m 408 1161 b 354 1161 397 1163 375 1163 b 126 1082 254 1158 183 1132 b 31 847 65 1026 31 943 b 261 608 31 726 100 608 b 474 807 371 608 474 683 b 299 981 474 915 401 981 b 181 943 251 981 208 964 l 179 943 b 357 1053 199 1006 256 1047 b 410 1051 375 1054 396 1053 z m 258 717 b 174 808 203 717 174 764 b 178 836 174 821 175 829 b 249 883 189 861 215 883 b 326 799 304 883 326 843 b 260 717 326 753 299 717 z "},"⁷":{"ha":463,"x_min":0,"x_max":0,"o":"m 32 1156 l 32 1038 l 286 1038 l 286 1036 l 56 615 l 213 615 l 442 1067 l 442 1156 z "},"⁸":{"ha":501,"x_min":0,"x_max":0,"o":"m 253 1164 b 50 1010 139 1164 50 1103 b 133 892 50 961 81 917 l 133 889 b 32 758 74 864 32 824 b 244 608 32 693 90 608 b 468 775 385 608 468 679 b 364 906 468 847 413 888 l 364 908 b 446 1024 415 931 446 974 b 254 1164 446 1092 386 1164 z m 250 708 b 178 774 207 708 178 740 b 240 844 178 808 200 831 b 319 768 279 835 319 813 b 251 708 319 732 290 708 z m 249 1067 b 311 1007 290 1067 311 1039 b 260 946 311 978 288 954 b 186 1013 215 960 186 982 b 247 1067 186 1043 208 1067 z "},"⁹":{"ha":497,"x_min":0,"x_max":0,"o":"m 79 611 b 133 610 92 610 115 608 b 374 688 233 613 315 636 b 468 929 433 740 468 824 b 244 1164 468 1047 401 1164 b 29 969 122 1164 29 1079 b 207 800 29 860 114 800 b 317 836 257 800 296 817 l 319 835 b 247 747 310 800 286 768 b 133 719 217 731 174 721 b 79 721 117 718 94 719 z m 246 1057 b 322 961 301 1057 322 1010 b 317 929 322 947 321 936 b 249 897 306 913 283 897 b 175 976 199 897 175 936 b 244 1057 175 1025 207 1057 z "},"₀":{"ha":525,"x_min":0,"x_max":0,"o":"m 261 -211 b 494 67 428 -211 494 -78 b 261 344 494 221 421 344 b 29 67 100 344 29 218 b 260 -211 29 -87 101 -211 z m 261 -103 b 183 67 214 -103 183 -49 b 261 236 183 181 214 236 b 340 67 308 236 340 183 b 263 -103 340 -49 310 -103 z "},"₁":{"ha":417,"x_min":0,"x_max":0,"o":"m 326 -204 l 326 338 l 185 338 l 31 271 l 51 157 l 163 206 l 164 206 l 164 -204 z "},"₂":{"ha":489,"x_min":0,"x_max":0,"o":"m 21 -204 l 449 -204 l 449 -83 l 246 -83 l 246 -81 l 279 -53 b 439 176 363 14 439 78 b 228 344 439 271 365 344 b 25 285 143 344 71 318 l 67 179 b 186 218 97 200 140 218 b 268 151 239 218 268 190 b 107 -49 268 92 211 44 l 21 -125 z "},"₃":{"ha":482,"x_min":0,"x_max":0,"o":"m 64 199 b 190 233 92 214 142 233 b 264 183 242 233 264 213 b 157 126 264 140 203 126 l 118 126 l 118 32 l 160 32 b 279 -37 221 32 279 10 b 181 -100 279 -74 238 -100 b 44 -64 131 -100 72 -79 l 13 -172 b 200 -211 53 -194 125 -211 b 450 -46 353 -211 450 -143 b 315 81 450 25 392 74 l 315 83 b 429 207 382 104 429 147 b 229 344 429 283 363 344 b 35 300 149 344 75 324 z "},"₄":{"ha":546,"x_min":0,"x_max":0,"o":"m 444 -204 l 444 -79 l 515 -79 l 515 24 l 444 24 l 444 342 l 258 342 l 28 8 l 28 -79 l 294 -79 l 294 -204 z m 294 24 l 176 24 l 174 25 l 247 136 b 297 229 264 163 279 194 l 300 229 b 294 125 299 194 294 161 z "},"₅":{"ha":483,"x_min":0,"x_max":0,"o":"m 415 336 l 93 336 l 57 46 b 135 51 78 49 107 51 b 292 -28 251 51 292 21 b 186 -100 292 -81 232 -100 b 56 -72 135 -100 81 -85 l 31 -181 b 194 -211 64 -196 132 -211 b 442 -21 349 -211 442 -128 b 375 113 442 40 414 86 b 219 151 333 142 274 151 b 182 150 207 151 192 151 l 192 218 l 415 218 z "},"₆":{"ha":504,"x_min":0,"x_max":0,"o":"m 408 342 b 354 342 397 343 375 343 b 126 263 254 339 183 313 b 31 28 65 207 31 124 b 261 -211 31 -93 100 -211 b 474 -12 371 -211 474 -136 b 299 161 474 96 401 161 b 181 124 251 161 208 144 l 179 124 b 357 233 199 186 256 228 b 410 232 375 235 396 233 z m 258 -103 b 174 -11 203 -103 174 -56 b 178 17 174 1 175 10 b 249 64 189 42 215 64 b 326 -21 304 64 326 24 b 260 -103 326 -67 299 -103 z "},"₇":{"ha":463,"x_min":0,"x_max":0,"o":"m 32 336 l 32 218 l 286 218 l 286 217 l 56 -204 l 213 -204 l 442 247 l 442 336 z "},"₈":{"ha":501,"x_min":0,"x_max":0,"o":"m 253 344 b 50 190 139 344 50 283 b 133 72 50 142 81 97 l 133 69 b 32 -61 74 44 32 4 b 244 -211 32 -126 90 -211 b 468 -44 385 -211 468 -140 b 364 86 468 28 413 68 l 364 89 b 446 204 415 111 446 154 b 254 344 446 272 386 344 z m 250 -111 b 178 -46 207 -111 178 -79 b 240 25 178 -11 200 11 b 319 -51 279 15 319 -7 b 251 -111 319 -87 290 -111 z m 249 247 b 311 188 290 247 311 219 b 260 126 311 158 288 135 b 186 193 215 140 186 163 b 247 247 186 224 208 247 z "},"₉":{"ha":497,"x_min":0,"x_max":0,"o":"m 79 -208 b 133 -210 92 -210 115 -211 b 374 -132 233 -207 315 -183 b 468 110 433 -79 468 4 b 244 344 468 228 401 344 b 29 150 122 344 29 260 b 207 -19 29 40 114 -19 b 317 17 257 -19 296 -3 l 319 15 b 247 -72 310 -19 286 -51 b 133 -100 217 -89 174 -99 b 79 -99 117 -101 94 -100 z m 246 238 b 322 142 301 238 322 190 b 317 110 322 128 321 117 b 249 78 306 93 283 78 b 175 157 199 78 175 117 b 244 238 175 206 207 238 z "},"":{"ha":458,"x_min":0,"x_max":0,"o":"m 318 -211 l 318 -135 b 403 -115 350 -132 381 -126 l 385 -12 b 304 -26 364 -21 336 -26 b 199 76 249 -26 199 6 b 303 178 199 139 238 178 b 375 164 333 178 357 172 l 397 269 b 318 285 371 279 342 285 l 318 357 l 226 357 l 226 281 b 50 69 108 258 50 168 b 97 -67 50 17 67 -32 b 226 -132 128 -100 171 -124 l 226 -211 z "},"":{"ha":490,"x_min":0,"x_max":0,"o":"m 288 -275 l 288 -192 b 447 -35 390 -174 447 -110 b 299 122 447 43 406 89 b 193 186 213 149 193 161 b 261 226 193 206 207 226 b 393 196 326 226 372 206 l 421 301 b 290 329 393 314 343 328 l 290 399 l 200 399 l 200 324 b 49 169 103 306 49 246 b 210 17 49 85 111 49 b 301 -46 282 -7 301 -19 b 224 -90 301 -75 275 -90 b 71 -51 164 -90 113 -74 l 43 -161 b 197 -199 78 -179 136 -196 l 197 -275 z "},"":{"ha":239,"x_min":0,"x_max":0,"o":"m 119 -211 b 208 -122 172 -211 208 -174 b 119 -33 208 -69 172 -33 b 31 -122 67 -33 31 -69 b 118 -211 31 -174 67 -211 z "},"":{"ha":239,"x_min":0,"x_max":0,"o":"m 93 -289 b 211 -33 142 -211 181 -126 l 57 -40 b -10 -297 43 -126 21 -211 z "},"":{"ha":417,"x_min":0,"x_max":0,"o":"m 114 -336 b 333 -164 235 -332 333 -279 b 279 -54 333 -115 307 -75 l 133 -78 b 174 -161 151 -99 174 -129 b 82 -246 174 -208 128 -237 z "},"Ă":{"ha":911,"x_min":0,"x_max":0,"o":"m 578 240 l 650 0 l 878 0 l 586 936 l 310 936 l 24 0 l 243 0 l 308 240 z m 339 399 l 396 597 b 438 778 410 651 425 722 l 442 778 b 488 597 456 724 472 653 l 546 399 z m 257 1158 b 451 983 260 1057 315 983 b 647 1158 585 983 644 1057 l 539 1158 b 451 1094 532 1125 510 1094 b 369 1158 393 1094 374 1128 z "},"Ā":{"ha":911,"x_min":0,"x_max":0,"o":"m 578 240 l 650 0 l 878 0 l 586 936 l 310 936 l 24 0 l 243 0 l 308 240 z m 339 399 l 396 597 b 438 778 410 651 425 722 l 442 778 b 488 597 456 724 472 653 l 546 399 z m 269 1132 l 269 1019 l 629 1019 l 629 1132 z "},"Ą":{"ha":911,"x_min":0,"x_max":0,"o":"m 588 936 l 310 936 l 24 0 l 243 0 l 310 240 l 578 240 l 650 1 b 599 -157 635 -25 599 -92 b 754 -304 599 -256 658 -304 b 896 -261 800 -304 858 -290 l 867 -164 b 806 -174 853 -168 832 -174 b 731 -96 763 -174 731 -142 b 765 -1 731 -60 751 -24 l 878 0 z m 340 399 l 396 597 b 439 778 411 651 425 722 l 442 778 b 489 597 456 724 472 653 l 547 399 z "},"Ǽ":{"ha":1206,"x_min":0,"x_max":0,"o":"m 222 0 l 324 256 l 597 256 l 631 0 l 1167 0 l 1167 174 l 813 174 l 783 392 l 1110 392 l 1110 564 l 756 564 l 732 763 l 1115 763 l 1115 936 l 403 936 l 4 0 z m 388 425 l 476 650 b 525 788 492 690 510 742 l 529 788 b 546 651 533 743 540 694 l 574 425 z m 668 1157 l 551 986 l 721 986 l 890 1157 z "},"Ć":{"ha":826,"x_min":0,"x_max":0,"o":"m 747 193 b 569 163 704 175 635 163 b 271 467 382 163 271 281 b 568 776 271 675 401 776 b 746 742 644 776 704 760 l 790 910 b 560 950 753 928 669 950 b 49 456 276 950 49 774 b 539 -14 49 189 215 -14 b 778 26 651 -14 740 8 z m 525 1158 l 408 988 l 578 988 l 747 1158 z "},"Č":{"ha":826,"x_min":0,"x_max":0,"o":"m 747 193 b 569 163 704 175 635 163 b 271 467 382 163 271 281 b 568 776 271 675 401 776 b 746 742 644 776 704 760 l 790 910 b 560 950 753 928 669 950 b 49 456 276 950 49 774 b 539 -14 49 189 215 -14 b 778 26 651 -14 740 8 z m 582 988 l 721 1158 l 574 1158 l 504 1072 l 501 1072 l 432 1158 l 283 1158 l 424 988 z "},"Ĉ":{"ha":826,"x_min":0,"x_max":0,"o":"m 747 193 b 569 163 704 175 635 163 b 271 467 382 163 271 281 b 568 776 271 675 401 776 b 746 742 644 776 704 760 l 790 910 b 560 950 753 928 669 950 b 49 456 276 950 49 774 b 539 -14 49 189 215 -14 b 778 26 651 -14 740 8 z m 419 1163 l 281 992 l 428 992 l 497 1078 l 500 1078 l 569 992 l 718 992 l 578 1163 z "},"Ċ":{"ha":826,"x_min":0,"x_max":0,"o":"m 747 193 b 569 163 704 175 635 163 b 271 467 382 163 271 281 b 568 776 271 675 401 776 b 746 742 644 776 704 760 l 790 910 b 560 950 753 928 669 950 b 49 456 276 950 49 774 b 539 -14 49 189 215 -14 b 778 26 651 -14 740 8 z m 501 989 b 594 1083 554 989 594 1033 b 501 1179 594 1138 554 1179 b 404 1083 447 1179 404 1138 b 500 989 404 1033 446 989 z "},"Ď":{"ha":967,"x_min":0,"x_max":0,"o":"m 92 4 b 332 -10 143 -3 222 -10 b 765 111 515 -10 667 29 b 919 490 854 188 919 311 b 761 843 919 657 858 771 b 376 943 672 910 556 943 b 92 922 271 943 169 936 z m 303 772 b 399 781 321 776 353 781 b 696 483 582 781 696 678 b 376 156 696 260 569 154 b 303 160 351 156 321 156 z m 526 988 l 665 1158 l 518 1158 l 449 1072 l 446 1072 l 376 1158 l 228 1158 l 368 988 z "},"Đ":{"ha":978,"x_min":0,"x_max":0,"o":"m 4 394 l 103 394 l 103 0 b 343 -12 154 -6 233 -12 b 775 110 525 -12 676 26 b 929 492 864 186 929 311 b 771 850 929 657 868 778 b 388 947 682 918 565 947 b 103 926 282 947 181 940 l 103 560 l 4 560 z m 500 560 l 314 560 l 314 776 b 410 785 332 781 363 785 b 706 485 593 785 706 689 b 388 153 706 256 582 153 b 314 157 363 153 332 153 l 314 394 l 500 394 z "},"Ĕ":{"ha":742,"x_min":0,"x_max":0,"o":"m 649 568 l 304 568 l 304 763 l 669 763 l 669 936 l 93 936 l 93 0 l 689 0 l 689 174 l 304 174 l 304 396 l 649 396 z m 189 1163 b 383 988 192 1061 247 988 b 579 1163 517 988 576 1061 l 471 1163 b 383 1099 464 1129 442 1099 b 301 1163 325 1099 306 1132 z "},"Ě":{"ha":742,"x_min":0,"x_max":0,"o":"m 649 568 l 304 568 l 304 763 l 669 763 l 669 936 l 93 936 l 93 0 l 689 0 l 689 174 l 304 174 l 304 396 l 649 396 z m 456 986 l 594 1157 l 447 1157 l 378 1071 l 375 1071 l 306 1157 l 157 1157 l 297 986 z "},"Ė":{"ha":742,"x_min":0,"x_max":0,"o":"m 649 568 l 304 568 l 304 763 l 669 763 l 669 936 l 93 936 l 93 0 l 689 0 l 689 174 l 304 174 l 304 396 l 649 396 z m 375 990 b 468 1085 428 990 468 1035 b 375 1181 468 1139 428 1181 b 278 1085 321 1181 278 1139 b 374 990 278 1035 319 990 z "},"Ē":{"ha":742,"x_min":0,"x_max":0,"o":"m 649 568 l 304 568 l 304 763 l 669 763 l 669 936 l 93 936 l 93 0 l 689 0 l 689 174 l 304 174 l 304 396 l 649 396 z m 197 1132 l 197 1019 l 557 1019 l 557 1132 z "},"Ŋ":{"ha":958,"x_min":0,"x_max":0,"o":"m 286 0 l 286 282 b 276 692 286 435 283 567 l 282 692 b 444 361 326 582 389 463 l 658 -21 b 504 -139 646 -82 596 -117 l 550 -300 b 867 67 739 -278 867 -172 l 867 936 l 672 936 l 672 664 b 689 272 672 522 676 396 l 686 272 b 533 593 643 378 589 494 l 339 936 l 92 936 l 92 0 z "},"Ę":{"ha":742,"x_min":0,"x_max":0,"o":"m 671 -161 b 613 -172 651 -169 631 -172 b 560 -128 581 -172 560 -156 b 654 0 560 -82 608 -31 b 689 0 667 0 678 0 l 689 174 l 304 174 l 304 396 l 649 396 l 649 568 l 304 568 l 304 763 l 669 763 l 669 936 l 93 936 l 93 0 l 504 0 b 406 -175 458 -33 406 -96 b 550 -304 406 -257 460 -304 b 700 -261 608 -304 660 -289 z "},"Ğ":{"ha":947,"x_min":0,"x_max":0,"o":"m 874 536 l 525 536 l 525 371 l 669 371 l 669 174 b 567 161 653 167 614 161 b 271 468 393 161 271 274 b 582 771 271 671 406 771 b 799 731 685 771 747 754 l 843 901 b 583 946 797 922 704 946 b 49 457 276 946 50 768 b 181 115 49 319 96 197 b 561 -10 267 33 390 -10 b 874 43 685 -10 808 21 z m 329 1168 b 524 993 332 1067 388 993 b 719 1168 657 993 717 1067 l 611 1168 b 524 1104 604 1135 582 1104 b 442 1168 465 1104 446 1138 z "},"Ĝ":{"ha":947,"x_min":0,"x_max":0,"o":"m 874 536 l 525 536 l 525 371 l 669 371 l 669 174 b 567 161 653 167 614 161 b 271 468 393 161 271 274 b 582 771 271 671 406 771 b 799 731 685 771 747 754 l 843 901 b 583 946 797 922 704 946 b 49 457 276 946 50 768 b 181 115 49 319 96 197 b 561 -10 267 33 390 -10 b 874 43 685 -10 808 21 z m 440 1163 l 301 992 l 449 992 l 518 1078 l 521 1078 l 590 992 l 739 992 l 599 1163 z "},"Ģ":{"ha":947,"x_min":0,"x_max":0,"o":"m 874 536 l 525 536 l 525 371 l 669 371 l 669 174 b 567 161 653 167 614 161 b 271 468 393 161 271 274 b 582 771 271 671 406 771 b 799 731 685 771 747 754 l 843 901 b 583 946 797 922 704 946 b 49 457 276 946 50 768 b 181 115 49 319 96 197 b 561 -10 267 33 390 -10 b 874 43 685 -10 808 21 z m 401 -335 b 621 -164 522 -331 621 -279 b 567 -54 621 -114 594 -75 l 421 -78 b 461 -161 439 -99 461 -129 b 369 -246 461 -208 415 -236 z "},"Ġ":{"ha":947,"x_min":0,"x_max":0,"o":"m 874 536 l 525 536 l 525 371 l 669 371 l 669 174 b 567 161 653 167 614 161 b 271 468 393 161 271 274 b 582 771 271 671 406 771 b 799 731 685 771 747 754 l 843 901 b 583 946 797 922 704 946 b 49 457 276 946 50 768 b 181 115 49 319 96 197 b 561 -10 267 33 390 -10 b 874 43 685 -10 808 21 z m 524 989 b 617 1083 576 989 617 1033 b 524 1179 617 1138 576 1179 b 426 1083 469 1179 426 1138 b 522 989 426 1033 468 989 z "},"Ħ":{"ha":974,"x_min":0,"x_max":0,"o":"m 961 654 l 961 779 l 872 779 l 872 936 l 661 936 l 661 779 l 311 779 l 311 936 l 100 936 l 100 779 l 11 779 l 11 654 l 100 654 l 100 0 l 311 0 l 311 356 l 661 356 l 661 0 l 872 0 l 872 654 z m 661 540 l 311 540 l 311 654 l 661 654 z "},"Ĥ":{"ha":957,"x_min":0,"x_max":0,"o":"m 93 936 l 93 0 l 304 0 l 304 390 l 653 390 l 653 0 l 864 0 l 864 936 l 653 936 l 653 575 l 304 575 l 304 936 z m 400 1157 l 261 986 l 408 986 l 478 1072 l 481 1072 l 550 986 l 699 986 l 558 1157 z "},"Ĭ":{"ha":396,"x_min":0,"x_max":0,"o":"m 93 936 l 93 0 l 304 0 l 304 936 z m 3 1165 b 197 990 6 1064 61 990 b 393 1165 331 990 390 1064 l 285 1165 b 197 1101 278 1132 256 1101 b 115 1165 139 1101 119 1135 z "},"Ĳ":{"ha":967,"x_min":0,"x_max":0,"o":"m 93 936 l 93 0 l 304 0 l 304 936 z m 671 346 b 526 161 671 201 615 161 b 418 178 485 161 447 168 l 394 7 b 550 -15 436 -7 500 -15 b 882 344 754 -15 882 78 l 882 936 l 671 936 z "},"Ī":{"ha":396,"x_min":0,"x_max":0,"o":"m 93 936 l 93 0 l 304 0 l 304 936 z m 19 1132 l 19 1019 l 379 1019 l 379 1132 z "},"Į":{"ha":396,"x_min":0,"x_max":0,"o":"m 304 936 l 93 936 l 93 0 b 46 -158 79 -26 46 -93 b 203 -306 46 -257 106 -306 b 344 -261 247 -306 306 -292 l 315 -164 b 254 -174 301 -169 281 -174 b 179 -96 211 -174 179 -143 b 210 0 179 -61 196 -24 l 304 0 z "},"Ĩ":{"ha":396,"x_min":0,"x_max":0,"o":"m 93 936 l 93 0 l 304 0 l 304 936 z m 101 993 b 135 1053 104 1033 117 1053 b 194 1028 154 1053 169 1042 b 285 1001 219 1014 247 1001 b 393 1175 357 1001 396 1050 l 299 1175 b 261 1115 293 1128 285 1115 b 200 1142 243 1115 224 1128 b 111 1169 175 1157 149 1169 b 4 993 44 1169 1 1110 z "},"Ĵ":{"ha":571,"x_min":0,"x_max":0,"o":"m 275 346 b 131 161 275 201 219 161 b 22 178 89 161 51 168 l -1 7 b 154 -15 40 -7 104 -15 b 486 344 358 -15 486 78 l 486 936 l 275 936 z m 300 1157 l 161 986 l 308 986 l 378 1072 l 381 1072 l 450 986 l 599 986 l 458 1157 z "},"Ķ":{"ha":853,"x_min":0,"x_max":0,"o":"m 92 0 l 301 0 l 301 306 l 381 404 l 611 0 l 857 0 l 532 538 l 842 936 l 581 936 l 369 625 b 304 522 347 592 325 558 l 301 522 l 301 936 l 92 936 z m 335 -333 b 554 -162 456 -329 554 -278 b 500 -53 554 -112 528 -74 l 354 -76 b 394 -160 372 -97 394 -128 b 303 -244 394 -207 349 -235 z "},"Ĺ":{"ha":710,"x_min":0,"x_max":0,"o":"m 93 0 l 676 0 l 676 178 l 304 178 l 304 936 l 93 936 z m 229 1157 l 113 986 l 282 986 l 451 1157 z "},"Ľ":{"ha":710,"x_min":0,"x_max":0,"o":"m 93 0 l 676 0 l 676 178 l 304 178 l 304 936 l 93 936 z m 410 674 b 629 844 531 678 629 729 b 575 954 629 894 603 933 l 429 931 b 469 847 447 910 469 879 b 378 763 469 800 424 772 z "},"Ļ":{"ha":710,"x_min":0,"x_max":0,"o":"m 93 0 l 676 0 l 676 178 l 304 178 l 304 936 l 93 936 z m 265 -335 b 485 -164 386 -331 485 -279 b 431 -54 485 -114 458 -75 l 285 -78 b 325 -161 303 -99 325 -129 b 233 -246 325 -208 279 -236 z "},"Ŀ":{"ha":710,"x_min":0,"x_max":0,"o":"m 93 0 l 676 0 l 676 178 l 304 178 l 304 936 l 93 936 z m 535 431 b 628 525 588 431 628 475 b 535 621 628 579 588 621 b 438 525 481 621 438 579 b 533 431 438 475 479 431 z "},"Ń":{"ha":958,"x_min":0,"x_max":0,"o":"m 286 0 l 286 282 b 276 692 286 435 283 567 l 282 692 b 444 361 326 582 389 463 l 644 0 l 867 0 l 867 936 l 672 936 l 672 664 b 689 272 672 522 676 396 l 686 272 b 533 593 643 378 589 494 l 339 936 l 92 936 l 92 0 z m 489 1157 l 372 986 l 542 986 l 711 1157 z "},"Ň":{"ha":958,"x_min":0,"x_max":0,"o":"m 286 0 l 286 282 b 276 692 286 435 283 567 l 282 692 b 444 361 326 582 389 463 l 644 0 l 867 0 l 867 936 l 672 936 l 672 664 b 689 272 672 522 676 396 l 686 272 b 533 593 643 378 589 494 l 339 936 l 92 936 l 92 0 z m 564 983 l 703 1154 l 556 1154 l 486 1068 l 483 1068 l 414 1154 l 265 1154 l 406 983 z "},"Ņ":{"ha":958,"x_min":0,"x_max":0,"o":"m 286 0 l 286 282 b 276 692 286 435 283 567 l 282 692 b 444 361 326 582 389 463 l 644 0 l 867 0 l 867 936 l 672 936 l 672 664 b 689 272 672 522 676 396 l 686 272 b 533 593 643 378 589 494 l 339 936 l 92 936 l 92 0 z m 385 -332 b 604 -161 506 -328 604 -276 b 550 -51 604 -111 578 -72 l 404 -75 b 444 -158 422 -96 444 -126 b 353 -243 444 -206 399 -233 z "},"Ŏ":{"ha":996,"x_min":0,"x_max":0,"o":"m 490 -15 b 949 478 764 -15 949 169 b 504 951 949 736 792 951 b 49 461 229 951 49 742 b 489 -15 49 194 213 -15 z m 499 153 b 272 467 357 153 272 290 b 500 783 272 642 354 783 b 725 471 646 783 725 639 b 500 153 725 288 643 153 z m 303 1171 b 497 996 306 1069 361 996 b 693 1171 631 996 690 1069 l 585 1171 b 497 1107 578 1138 556 1107 b 415 1171 439 1107 419 1140 z "},"Ő":{"ha":996,"x_min":0,"x_max":0,"o":"m 490 -15 b 949 478 764 -15 949 169 b 504 951 949 736 792 951 b 49 461 229 951 49 742 b 489 -15 49 194 213 -15 z m 499 153 b 272 467 357 153 272 290 b 500 783 272 642 354 783 b 725 471 646 783 725 639 b 500 153 725 288 643 153 z m 392 1160 l 301 999 l 447 999 l 588 1160 z m 644 1160 l 554 999 l 699 999 l 840 1160 z "},"Ō":{"ha":996,"x_min":0,"x_max":0,"o":"m 490 -15 b 949 478 764 -15 949 169 b 504 951 949 736 792 951 b 49 461 229 951 49 742 b 489 -15 49 194 213 -15 z m 499 153 b 272 467 357 153 272 290 b 500 783 272 642 354 783 b 725 471 646 783 725 639 b 500 153 725 288 643 153 z m 319 1135 l 319 1022 l 679 1022 l 679 1135 z "},"Ǿ":{"ha":996,"x_min":0,"x_max":0,"o":"m 214 -92 l 297 32 b 499 -15 357 1 425 -15 b 947 474 758 -15 947 168 b 825 818 947 606 907 731 l 903 935 l 783 1015 l 707 903 b 500 951 647 935 576 951 b 49 467 228 951 49 740 b 178 115 49 328 94 203 l 100 -3 z m 297 297 l 296 296 b 260 468 271 353 260 404 b 499 786 260 653 349 786 b 608 751 540 786 578 774 z m 703 629 l 706 629 b 736 469 728 575 736 522 b 499 150 736 281 646 150 b 396 183 457 150 422 161 z m 511 1164 l 394 993 l 564 993 l 733 1164 z "},"Ŕ":{"ha":824,"x_min":0,"x_max":0,"o":"m 92 0 l 301 0 l 301 368 l 364 368 b 518 218 451 367 492 336 b 582 0 544 103 568 28 l 799 0 b 724 265 781 36 753 158 b 599 439 700 351 664 413 l 599 443 b 764 672 679 472 764 554 b 676 868 764 758 733 824 b 374 943 610 922 513 943 b 92 922 260 943 160 935 z m 301 778 b 397 785 317 782 346 785 b 553 656 494 785 553 740 b 385 521 553 574 490 521 l 301 521 z m 411 1158 l 294 988 l 464 988 l 633 1158 z "},"Ř":{"ha":824,"x_min":0,"x_max":0,"o":"m 92 0 l 301 0 l 301 368 l 364 368 b 518 218 451 367 492 336 b 582 0 544 103 568 28 l 799 0 b 724 265 781 36 753 158 b 599 439 700 351 664 413 l 599 443 b 764 672 679 472 764 554 b 676 868 764 758 733 824 b 374 943 610 922 513 943 b 92 922 260 943 160 935 z m 301 778 b 397 785 317 782 346 785 b 553 656 494 785 553 740 b 385 521 553 574 490 521 l 301 521 z m 485 988 l 624 1158 l 476 1158 l 407 1072 l 404 1072 l 335 1158 l 186 1158 l 326 988 z "},"Ŗ":{"ha":824,"x_min":0,"x_max":0,"o":"m 92 0 l 301 0 l 301 368 l 364 368 b 518 218 451 367 492 336 b 582 0 544 103 568 28 l 799 0 b 724 265 781 36 753 158 b 599 439 700 351 664 413 l 599 443 b 764 672 679 472 764 554 b 676 868 764 758 733 824 b 374 943 610 922 513 943 b 92 922 260 943 160 935 z m 301 778 b 397 785 317 782 346 785 b 553 656 494 785 553 740 b 385 521 553 574 490 521 l 301 521 z m 318 -332 b 538 -161 439 -328 538 -276 b 483 -51 538 -111 511 -72 l 338 -75 b 378 -158 356 -96 378 -126 b 286 -243 378 -206 332 -233 z "},"Ś":{"ha":750,"x_min":0,"x_max":0,"o":"m 56 44 b 321 -14 108 15 214 -14 b 697 276 578 -14 697 119 b 456 556 697 408 621 494 b 282 688 333 601 282 628 b 418 778 282 735 326 778 b 613 733 508 778 576 751 l 660 903 b 421 950 604 929 528 950 b 67 669 201 950 67 829 b 325 392 67 533 169 447 b 482 261 438 353 482 319 b 333 160 482 200 431 160 b 99 218 243 160 154 189 z m 407 1158 l 290 988 l 460 988 l 629 1158 z "},"Ş":{"ha":750,"x_min":0,"x_max":0,"o":"m 56 44 b 310 -14 117 11 229 -14 b 314 -14 313 -14 314 -14 l 264 -114 b 372 -164 340 -119 372 -137 b 324 -200 372 -190 349 -200 b 247 -178 300 -200 271 -192 l 219 -256 b 332 -283 246 -272 286 -283 b 500 -160 418 -283 500 -250 b 400 -60 500 -106 453 -67 l 431 -4 b 697 276 613 29 697 144 b 456 556 697 408 621 494 b 282 688 333 601 282 628 b 418 778 282 735 326 778 b 613 733 508 778 576 751 l 660 903 b 421 950 604 929 528 950 b 67 669 201 950 67 829 b 325 392 67 533 169 447 b 482 261 438 353 482 319 b 333 160 482 200 431 160 b 99 218 243 160 154 189 z "},"Ŝ":{"ha":750,"x_min":0,"x_max":0,"o":"m 56 44 b 321 -14 108 15 214 -14 b 697 276 578 -14 697 119 b 456 556 697 408 621 494 b 282 688 333 601 282 628 b 418 778 282 735 326 778 b 613 733 508 778 576 751 l 660 903 b 421 950 604 929 528 950 b 67 669 201 950 67 829 b 325 392 67 533 169 447 b 482 261 438 353 482 319 b 333 160 482 200 431 160 b 99 218 243 160 154 189 z m 299 1158 l 160 988 l 307 988 l 376 1074 l 379 1074 l 449 988 l 597 988 l 457 1158 z "},"Ș":{"ha":750,"x_min":0,"x_max":0,"o":"m 56 44 b 321 -14 108 15 214 -14 b 697 276 578 -14 697 119 b 456 556 697 408 621 494 b 282 688 333 601 282 628 b 418 778 282 735 326 778 b 613 733 508 778 576 751 l 660 903 b 421 950 604 929 528 950 b 67 669 201 950 67 829 b 325 392 67 533 169 447 b 482 261 438 353 482 319 b 333 160 482 200 431 160 b 99 218 243 160 154 189 z m 278 -335 b 497 -164 399 -331 497 -279 b 443 -54 497 -114 471 -75 l 297 -78 b 338 -161 315 -99 338 -129 b 246 -246 338 -208 292 -236 z "},"Ŧ":{"ha":761,"x_min":0,"x_max":0,"o":"m 740 758 l 740 936 l 21 936 l 21 758 l 274 758 l 274 528 l 113 528 l 113 403 l 274 403 l 274 0 l 485 0 l 485 403 l 644 403 l 644 528 l 485 528 l 485 758 z "},"Ť":{"ha":761,"x_min":0,"x_max":0,"o":"m 274 0 l 485 0 l 485 758 l 740 758 l 740 936 l 21 936 l 21 758 l 274 758 z m 460 986 l 599 1157 l 451 1157 l 382 1071 l 379 1071 l 310 1157 l 161 1157 l 301 986 z "},"Ţ":{"ha":761,"x_min":0,"x_max":0,"o":"m 274 0 l 485 0 l 485 758 l 740 758 l 740 936 l 21 936 l 21 758 l 274 758 z m 268 -335 b 488 -164 389 -331 488 -279 b 433 -54 488 -114 461 -75 l 288 -78 b 328 -161 306 -99 328 -129 b 236 -246 328 -208 282 -236 z "},"Ŭ":{"ha":947,"x_min":0,"x_max":0,"o":"m 92 936 l 92 414 b 465 -15 92 117 229 -15 b 856 411 710 -15 856 122 l 856 936 l 644 936 l 644 399 b 472 154 644 232 583 154 b 303 399 365 154 303 236 l 303 936 z m 278 1161 b 472 986 281 1060 336 986 b 668 1161 606 986 665 1060 l 560 1161 b 472 1097 553 1128 531 1097 b 390 1161 414 1097 394 1131 z "},"Ű":{"ha":947,"x_min":0,"x_max":0,"o":"m 92 936 l 92 414 b 465 -15 92 117 229 -15 b 856 411 710 -15 856 122 l 856 936 l 644 936 l 644 399 b 472 154 644 232 583 154 b 303 399 365 154 303 236 l 303 936 z m 358 1158 l 268 997 l 414 997 l 554 1158 z m 611 1158 l 521 997 l 665 997 l 807 1158 z "},"Ū":{"ha":947,"x_min":0,"x_max":0,"o":"m 92 936 l 92 414 b 465 -15 92 117 229 -15 b 856 411 710 -15 856 122 l 856 936 l 644 936 l 644 399 b 472 154 644 232 583 154 b 303 399 365 154 303 236 l 303 936 z m 294 1132 l 294 1019 l 654 1019 l 654 1132 z "},"Ų":{"ha":947,"x_min":0,"x_max":0,"o":"m 629 -160 b 569 -172 610 -168 589 -172 b 513 -121 539 -172 513 -154 b 588 0 513 -79 553 -32 b 856 410 757 39 856 174 l 856 936 l 644 936 l 644 397 b 471 153 644 231 583 153 b 303 397 364 153 303 235 l 303 936 l 92 936 l 92 413 b 436 -14 92 124 222 -6 b 444 -14 439 -14 442 -14 b 364 -181 411 -50 364 -110 b 507 -303 364 -254 414 -303 b 658 -258 563 -303 618 -286 z "},"Ů":{"ha":947,"x_min":0,"x_max":0,"o":"m 92 936 l 92 414 b 465 -15 92 117 229 -15 b 856 411 710 -15 856 122 l 856 936 l 644 936 l 644 399 b 472 154 644 232 583 154 b 303 399 365 154 303 236 l 303 936 z m 475 1229 b 315 1092 372 1229 315 1167 b 475 958 315 1018 375 958 b 633 1093 574 958 633 1018 b 476 1229 633 1168 581 1229 z m 474 1158 b 535 1093 513 1158 535 1126 b 474 1029 535 1057 513 1029 b 413 1092 435 1029 413 1060 b 472 1158 413 1126 433 1158 z "},"Ũ":{"ha":947,"x_min":0,"x_max":0,"o":"m 92 936 l 92 414 b 465 -15 92 117 229 -15 b 856 411 710 -15 856 122 l 856 936 l 644 936 l 644 399 b 472 154 644 232 583 154 b 303 399 365 154 303 236 l 303 936 z m 376 993 b 410 1053 379 1033 392 1053 b 469 1028 429 1053 444 1042 b 560 1001 494 1014 522 1001 b 668 1175 632 1001 671 1050 l 574 1175 b 536 1115 568 1128 560 1115 b 475 1142 518 1115 499 1128 b 386 1169 450 1157 424 1169 b 279 993 319 1169 276 1110 z "},"Ẃ":{"ha":1233,"x_min":0,"x_max":0,"o":"m 475 0 l 564 401 b 618 692 586 497 601 586 l 621 692 b 665 403 632 585 647 497 l 744 0 l 974 0 l 1215 936 l 1000 936 l 924 554 b 869 228 904 442 883 332 l 867 228 b 817 542 853 332 838 432 l 742 936 l 517 936 l 438 554 b 376 222 414 438 392 325 l 374 222 b 318 551 358 318 339 439 l 247 936 l 21 936 l 243 0 z m 650 1157 l 533 986 l 703 986 l 872 1157 z "},"Ŵ":{"ha":1233,"x_min":0,"x_max":0,"o":"m 475 0 l 564 401 b 618 692 586 497 601 586 l 621 692 b 665 403 632 585 647 497 l 744 0 l 974 0 l 1215 936 l 1000 936 l 924 554 b 869 228 904 442 883 332 l 867 228 b 817 542 853 332 838 432 l 742 936 l 517 936 l 438 554 b 376 222 414 438 392 325 l 374 222 b 318 551 358 318 339 439 l 247 936 l 21 936 l 243 0 z m 546 1157 l 407 986 l 554 986 l 624 1072 l 626 1072 l 696 986 l 844 986 l 704 1157 z "},"Ẅ":{"ha":1233,"x_min":0,"x_max":0,"o":"m 475 0 l 564 401 b 618 692 586 497 601 586 l 621 692 b 665 403 632 585 647 497 l 744 0 l 974 0 l 1215 936 l 1000 936 l 924 554 b 869 228 904 442 883 332 l 867 228 b 817 542 853 332 838 432 l 742 936 l 517 936 l 438 554 b 376 222 414 438 392 325 l 374 222 b 318 551 358 318 339 439 l 247 936 l 21 936 l 243 0 z m 486 990 b 578 1085 539 990 578 1033 b 486 1181 578 1140 538 1181 b 390 1085 432 1181 390 1139 b 485 990 390 1033 432 990 z m 774 990 b 867 1085 828 990 867 1033 b 774 1181 867 1140 826 1181 b 679 1085 719 1181 679 1139 b 772 990 679 1033 718 990 z "},"Ẁ":{"ha":1233,"x_min":0,"x_max":0,"o":"m 475 0 l 564 401 b 618 692 586 497 601 586 l 621 692 b 665 403 632 585 647 497 l 744 0 l 974 0 l 1215 936 l 1000 936 l 924 554 b 869 228 904 442 883 332 l 867 228 b 817 542 853 332 838 432 l 742 936 l 517 936 l 438 554 b 376 222 414 438 392 325 l 374 222 b 318 551 358 318 339 439 l 247 936 l 21 936 l 243 0 z m 381 1158 l 550 989 l 719 989 l 603 1158 z "},"Ŷ":{"ha":838,"x_min":0,"x_max":0,"o":"m 519 0 l 519 390 l 828 936 l 590 936 l 496 711 b 425 532 468 644 446 590 l 422 532 b 350 711 400 593 379 643 l 256 936 l 13 936 l 308 383 l 308 0 z m 340 1157 l 201 986 l 349 986 l 418 1072 l 421 1072 l 490 986 l 639 986 l 499 1157 z "},"Ỳ":{"ha":838,"x_min":0,"x_max":0,"o":"m 519 0 l 519 390 l 828 936 l 590 936 l 496 711 b 425 532 468 644 446 590 l 422 532 b 350 711 400 593 379 643 l 256 936 l 13 936 l 308 383 l 308 0 z m 194 1156 l 364 986 l 533 986 l 417 1156 z "},"Ź":{"ha":801,"x_min":0,"x_max":0,"o":"m 33 0 l 760 0 l 760 175 l 317 175 l 317 181 l 753 814 l 753 936 l 74 936 l 74 761 l 479 761 l 479 757 l 33 114 z m 414 1157 l 297 986 l 467 986 l 636 1157 z "},"Ż":{"ha":801,"x_min":0,"x_max":0,"o":"m 33 0 l 760 0 l 760 175 l 317 175 l 317 181 l 753 814 l 753 936 l 74 936 l 74 761 l 479 761 l 479 757 l 33 114 z m 408 990 b 501 1085 461 990 501 1035 b 408 1181 501 1139 461 1181 b 311 1085 354 1181 311 1139 b 407 990 311 1035 353 990 z "},"İ":{"ha":396,"x_min":0,"x_max":0,"o":"m 93 936 l 93 0 l 304 0 l 304 936 z m 201 990 b 294 1085 254 990 294 1035 b 201 1181 294 1139 254 1181 b 104 1085 147 1181 104 1139 b 200 990 104 1035 146 990 z "},"ă":{"ha":733,"x_min":0,"x_max":0,"o":"m 650 401 b 353 694 650 561 579 694 b 89 633 229 694 136 660 l 128 499 b 315 549 172 525 246 549 b 439 461 419 549 439 497 l 439 453 b 40 193 199 453 40 369 b 260 -15 40 85 122 -15 b 454 68 340 -15 410 14 l 458 68 l 471 0 l 661 0 b 650 164 653 38 650 100 z m 446 247 b 442 211 446 235 444 222 b 332 133 428 168 383 133 b 249 214 285 133 249 160 b 446 321 249 294 335 321 z m 174 961 b 367 764 175 850 238 764 b 560 961 492 764 558 844 l 450 961 b 365 876 447 917 422 876 b 283 961 317 876 292 911 z "},"ā":{"ha":733,"x_min":0,"x_max":0,"o":"m 650 401 b 353 694 650 561 579 694 b 89 633 229 694 136 660 l 128 499 b 315 549 172 525 246 549 b 439 461 419 549 439 497 l 439 453 b 40 193 199 453 40 369 b 260 -15 40 85 122 -15 b 454 68 340 -15 410 14 l 458 68 l 471 0 l 661 0 b 650 164 653 38 650 100 z m 446 247 b 442 211 446 235 444 222 b 332 133 428 168 383 133 b 249 214 285 133 249 160 b 446 321 249 294 335 321 z m 194 925 l 194 808 l 542 808 l 542 925 z "},"ą":{"ha":733,"x_min":0,"x_max":0,"o":"m 650 401 b 353 694 650 561 579 694 b 89 633 229 694 136 660 l 128 499 b 315 549 172 525 246 549 b 439 461 419 549 439 497 l 439 453 b 40 193 199 453 40 369 b 260 -15 40 85 122 -15 b 454 68 340 -15 410 14 l 458 68 l 471 1 b 425 -162 457 -29 425 -92 b 568 -304 425 -256 485 -304 b 714 -257 617 -304 668 -292 l 685 -157 b 624 -171 667 -165 647 -171 b 557 -99 585 -171 557 -146 b 586 0 557 -64 572 -25 l 661 0 b 650 165 653 38 650 99 z m 446 247 b 442 211 446 235 444 222 b 332 133 428 168 383 133 b 249 214 285 133 249 160 b 446 321 249 294 335 321 z "},"ǽ":{"ha":1115,"x_min":0,"x_max":0,"o":"m 1068 282 b 1074 358 1069 299 1074 331 b 789 694 1074 521 990 694 b 557 585 689 694 610 654 l 553 585 b 329 694 513 654 439 694 b 89 631 228 694 139 658 l 131 497 b 311 549 172 522 242 549 b 442 467 419 549 442 486 l 442 447 b 40 197 201 449 40 364 b 275 -15 40 82 126 -15 b 528 106 393 -15 475 33 l 532 106 b 792 -15 579 28 679 -15 b 1042 36 876 -15 967 -3 l 1013 176 b 822 140 960 156 907 140 b 639 282 715 140 642 194 z m 447 246 b 442 204 447 231 446 215 b 333 132 425 165 388 132 b 247 213 286 132 247 160 b 447 318 247 290 333 319 z m 638 425 b 764 556 639 474 675 556 b 879 425 861 556 881 468 z m 576 975 l 457 764 l 601 764 l 771 975 z "},"ć":{"ha":626,"x_min":0,"x_max":0,"o":"m 569 174 b 449 151 538 160 499 151 b 263 342 346 151 263 217 b 444 531 261 451 333 531 b 563 510 500 531 538 521 l 596 667 b 435 693 551 683 490 693 b 46 333 182 693 46 531 b 406 -14 46 121 186 -14 b 594 18 486 -14 557 0 z m 406 975 l 286 764 l 431 764 l 600 975 z "},"č":{"ha":626,"x_min":0,"x_max":0,"o":"m 569 174 b 449 151 538 160 499 151 b 263 342 346 151 263 217 b 444 531 261 451 333 531 b 563 510 500 531 538 521 l 596 667 b 435 693 551 683 490 693 b 46 333 182 693 46 531 b 406 -14 46 121 186 -14 b 594 18 486 -14 557 0 z m 446 764 l 585 975 l 446 975 l 376 854 l 374 854 l 303 975 l 165 975 l 303 764 z "},"ĉ":{"ha":626,"x_min":0,"x_max":0,"o":"m 569 174 b 449 151 538 160 499 151 b 263 342 346 151 263 217 b 444 531 261 451 333 531 b 563 510 500 531 538 521 l 596 667 b 435 693 551 683 490 693 b 46 333 182 693 46 531 b 406 -14 46 121 186 -14 b 594 18 486 -14 557 0 z m 299 975 l 160 764 l 297 764 l 368 885 l 371 885 l 440 764 l 578 764 l 440 975 z "},"ċ":{"ha":626,"x_min":0,"x_max":0,"o":"m 569 174 b 449 151 538 160 499 151 b 263 342 346 151 263 217 b 444 531 261 451 333 531 b 563 510 500 531 538 521 l 596 667 b 435 693 551 683 490 693 b 46 333 182 693 46 531 b 406 -14 46 121 186 -14 b 594 18 486 -14 557 0 z m 386 774 b 481 871 440 774 481 818 b 386 969 481 928 440 969 b 288 871 331 969 288 928 b 385 774 288 818 329 774 z "},"ď":{"ha":842,"x_min":0,"x_max":0,"o":"m 532 988 l 532 618 l 529 618 b 350 694 499 664 435 694 b 46 333 188 694 44 561 b 336 -15 46 122 175 -15 b 549 99 424 -15 507 24 l 553 99 l 561 0 l 749 0 b 743 203 746 46 743 126 l 743 988 z m 532 301 b 528 254 532 285 531 268 b 404 153 515 194 465 153 b 260 339 317 153 260 225 b 406 532 260 446 308 532 b 529 429 471 532 517 486 b 532 390 532 417 532 403 z m 889 688 b 986 899 911 707 986 775 b 942 1003 986 943 965 986 l 810 981 b 838 885 825 956 838 921 b 799 744 838 832 819 778 z "},"đ":{"ha":828,"x_min":0,"x_max":0,"o":"m 856 750 l 856 865 l 743 865 l 743 988 l 532 988 l 532 865 l 279 865 l 279 750 l 532 750 l 532 618 l 529 618 b 350 694 499 664 435 694 b 46 333 188 694 44 561 b 336 -15 46 122 175 -15 b 549 99 424 -15 507 24 l 553 99 l 561 0 l 749 0 b 743 203 746 46 743 126 l 743 750 z m 532 301 b 528 254 532 285 531 268 b 404 153 515 194 465 153 b 260 339 317 153 260 225 b 406 532 260 446 308 532 b 529 429 471 532 517 486 b 532 390 532 417 532 403 z "},"ĕ":{"ha":733,"x_min":0,"x_max":0,"o":"m 685 272 b 692 356 688 288 692 319 b 389 694 692 524 608 694 b 46 332 154 694 46 504 b 408 -14 46 119 178 -14 b 654 29 500 -14 585 0 l 626 172 b 439 143 569 153 511 143 b 247 272 340 143 254 185 z m 246 417 b 378 554 251 472 288 554 b 496 417 474 554 496 468 z m 181 961 b 374 764 182 850 244 764 b 567 961 499 764 565 844 l 457 961 b 372 876 454 917 429 876 b 290 961 324 876 299 911 z "},"ě":{"ha":733,"x_min":0,"x_max":0,"o":"m 685 272 b 692 356 688 288 692 319 b 389 694 692 524 608 694 b 46 332 154 694 46 504 b 408 -14 46 119 178 -14 b 654 29 500 -14 585 0 l 626 172 b 439 143 569 153 511 143 b 247 272 340 143 254 185 z m 246 417 b 378 554 251 472 288 554 b 496 417 474 554 496 468 z m 443 764 l 582 975 l 443 975 l 374 854 l 371 854 l 300 975 l 163 975 l 300 764 z "},"ė":{"ha":733,"x_min":0,"x_max":0,"o":"m 685 272 b 692 356 688 288 692 319 b 389 694 692 524 608 694 b 46 332 154 694 46 504 b 408 -14 46 119 178 -14 b 654 29 500 -14 585 0 l 626 172 b 439 143 569 153 511 143 b 247 272 340 143 254 185 z m 246 417 b 378 554 251 472 288 554 b 496 417 474 554 496 468 z m 376 774 b 471 871 431 774 471 818 b 376 969 471 928 431 969 b 278 871 321 969 278 928 b 375 774 278 818 319 774 z "},"ē":{"ha":733,"x_min":0,"x_max":0,"o":"m 685 272 b 692 356 688 288 692 319 b 389 694 692 524 608 694 b 46 332 154 694 46 504 b 408 -14 46 119 178 -14 b 654 29 500 -14 585 0 l 626 172 b 439 143 569 153 511 143 b 247 272 340 143 254 185 z m 246 417 b 378 554 251 472 288 554 b 496 417 474 554 496 468 z m 199 925 l 199 808 l 546 808 l 546 925 z "},"ŋ":{"ha":814,"x_min":0,"x_max":0,"o":"m 85 0 l 296 0 l 296 392 b 303 444 296 411 297 431 b 411 524 318 483 353 524 b 518 376 488 524 518 464 l 518 49 b 400 -107 518 -49 482 -92 l 442 -271 b 729 82 601 -253 729 -164 l 729 401 b 486 694 729 601 625 694 b 276 585 372 694 304 629 l 272 585 l 263 679 l 79 679 b 85 463 82 618 85 547 z "},"ę":{"ha":733,"x_min":0,"x_max":0,"o":"m 585 -158 b 524 -172 565 -168 542 -172 b 475 -126 499 -172 475 -158 b 594 7 475 -79 544 -17 b 654 29 611 14 635 21 l 626 172 b 439 143 569 153 511 143 b 247 272 340 143 254 185 l 685 272 b 692 356 688 288 692 319 b 389 694 692 524 608 694 b 46 332 154 694 46 504 b 401 -14 46 121 176 -12 b 419 -14 408 -14 414 -14 l 419 -15 b 326 -185 381 -47 326 -110 b 468 -303 326 -257 381 -303 b 617 -256 524 -303 576 -287 z m 246 417 b 378 554 251 472 288 554 b 496 417 474 554 496 468 z "},"ğ":{"ha":813,"x_min":0,"x_max":0,"o":"m 728 476 b 733 679 728 578 731 635 l 550 679 l 543 597 l 540 597 b 354 694 506 654 447 694 b 46 336 186 694 46 556 b 333 6 46 142 165 6 b 517 93 411 6 476 38 l 519 93 l 519 50 b 343 -129 519 -76 443 -129 b 146 -78 263 -129 189 -103 l 104 -239 b 349 -290 165 -272 258 -290 b 624 -207 449 -290 550 -271 b 728 99 701 -139 728 -32 z m 517 303 b 510 246 517 285 515 263 b 397 161 496 197 453 161 b 260 342 310 161 260 240 b 399 535 260 465 321 535 b 513 442 457 535 497 497 b 517 403 515 429 517 415 z m 214 961 b 407 764 215 850 278 764 b 600 961 532 764 599 844 l 490 961 b 406 876 488 917 463 876 b 324 961 357 876 332 911 z "},"ĝ":{"ha":813,"x_min":0,"x_max":0,"o":"m 728 476 b 733 679 728 578 731 635 l 550 679 l 543 597 l 540 597 b 354 694 506 654 447 694 b 46 336 186 694 46 556 b 333 6 46 142 165 6 b 517 93 411 6 476 38 l 519 93 l 519 50 b 343 -129 519 -76 443 -129 b 146 -78 263 -129 189 -103 l 104 -239 b 349 -290 165 -272 258 -290 b 624 -207 449 -290 550 -271 b 728 99 701 -139 728 -32 z m 517 303 b 510 246 517 285 515 263 b 397 161 496 197 453 161 b 260 342 310 161 260 240 b 399 535 260 465 321 535 b 513 442 457 535 497 497 b 517 403 515 429 517 415 z m 339 976 l 200 765 l 338 765 l 408 886 l 411 886 l 481 765 l 618 765 l 481 976 z "},"ģ":{"ha":813,"x_min":0,"x_max":0,"o":"m 728 476 b 733 679 728 578 731 635 l 550 679 l 543 597 l 540 597 b 354 694 506 654 447 694 b 46 336 186 694 46 556 b 335 6 46 142 165 6 b 517 93 413 6 476 38 l 519 93 l 519 50 b 344 -129 519 -76 443 -129 b 146 -78 264 -129 189 -103 l 104 -239 b 350 -290 165 -272 258 -290 b 624 -207 449 -290 550 -271 b 728 99 701 -139 728 -32 z m 517 303 b 510 246 517 285 515 263 b 399 161 496 197 453 161 b 260 342 311 161 260 240 b 399 535 260 465 322 535 b 513 442 457 535 497 497 b 517 403 515 429 517 415 z m 508 1006 b 289 849 388 1001 289 956 b 343 749 289 806 315 767 l 481 771 b 439 847 461 789 439 817 b 539 931 439 896 483 922 z "},"ġ":{"ha":813,"x_min":0,"x_max":0,"o":"m 728 476 b 733 679 728 578 731 635 l 550 679 l 543 597 l 540 597 b 354 694 506 654 447 694 b 46 336 186 694 46 556 b 333 6 46 142 165 6 b 517 93 411 6 476 38 l 519 93 l 519 50 b 343 -129 519 -76 443 -129 b 146 -78 263 -129 189 -103 l 104 -239 b 349 -290 165 -272 258 -290 b 624 -207 449 -290 550 -271 b 728 99 701 -139 728 -32 z m 517 303 b 510 246 517 285 515 263 b 397 161 496 197 453 161 b 260 342 310 161 260 240 b 399 535 260 465 321 535 b 513 442 457 535 497 497 b 517 403 515 429 517 415 z m 404 775 b 499 872 458 775 499 819 b 404 971 499 929 458 971 b 306 872 349 971 306 929 b 403 775 306 819 347 775 z "},"ħ":{"ha":814,"x_min":0,"x_max":0,"o":"m 729 0 l 729 396 b 492 694 729 601 626 694 b 382 668 453 694 414 683 b 299 597 349 650 321 628 l 296 597 l 296 750 l 550 750 l 550 865 l 296 865 l 296 988 l 85 988 l 85 865 l -24 865 l -24 750 l 85 750 l 85 0 l 296 0 l 296 403 b 303 449 296 418 297 436 b 408 524 318 488 353 524 b 518 374 488 524 518 463 l 518 0 z "},"ĥ":{"ha":814,"x_min":0,"x_max":0,"o":"m 85 0 l 296 0 l 296 403 b 303 449 296 418 297 436 b 408 524 318 488 353 524 b 518 374 488 524 518 463 l 518 0 l 729 0 l 729 396 b 492 694 729 601 626 694 b 382 668 453 694 414 685 b 299 597 349 651 321 628 l 296 597 l 296 988 l 85 988 z m 118 1190 l -21 1019 l 126 1019 l 196 1106 l 199 1106 l 268 1019 l 417 1019 l 276 1190 z "},"ĭ":{"ha":381,"x_min":0,"x_max":0,"o":"m 296 0 l 296 679 l 85 679 l 85 0 z m -1 961 b 192 764 0 850 63 764 b 385 961 317 764 383 844 l 275 961 b 190 876 272 917 247 876 b 108 961 142 876 117 911 z "},"ĳ":{"ha":785,"x_min":0,"x_max":0,"o":"m 296 0 l 296 679 l 85 679 l 85 0 z m 190 763 b 303 868 260 763 303 810 b 192 974 301 928 260 974 b 79 868 124 974 79 928 b 189 763 79 810 122 763 z m 347 -299 b 608 -215 447 -299 546 -272 b 704 82 672 -157 704 -67 l 704 679 l 493 679 l 493 132 b 451 -89 493 -3 482 -57 b 326 -133 425 -117 381 -129 z m 597 763 b 710 868 667 763 710 810 b 599 974 708 928 667 974 b 486 868 531 974 486 928 b 596 763 486 810 529 763 z "},"ī":{"ha":381,"x_min":0,"x_max":0,"o":"m 296 0 l 296 679 l 85 679 l 85 0 z m 18 925 l 18 808 l 365 808 l 365 925 z "},"į":{"ha":381,"x_min":0,"x_max":0,"o":"m 190 765 b 307 875 263 765 307 814 b 192 985 307 938 261 985 b 75 875 121 985 75 938 b 189 765 75 814 119 765 z m 296 679 l 85 679 l 85 0 b 39 -157 72 -26 39 -93 b 194 -306 39 -257 99 -306 b 336 -261 239 -306 297 -292 l 307 -164 b 246 -174 293 -169 272 -174 b 171 -96 203 -174 171 -142 b 201 0 171 -61 188 -24 l 296 0 z "},"ĩ":{"ha":381,"x_min":0,"x_max":0,"o":"m 296 0 l 296 679 l 85 679 l 85 0 z m 93 775 b 126 838 96 817 107 838 b 179 815 144 838 154 829 b 275 786 208 801 236 786 b 389 964 349 786 393 838 l 292 964 b 256 903 288 915 278 903 b 197 929 239 903 219 917 b 107 957 169 943 142 957 b -7 775 36 957 -11 892 z "},"ĵ":{"ha":404,"x_min":0,"x_max":0,"o":"m -33 -299 b 228 -215 67 -299 165 -272 b 324 82 292 -157 324 -67 l 324 679 l 113 679 l 113 132 b 71 -89 113 -3 101 -57 b -54 -133 44 -117 0 -129 z m 140 972 l 4 761 l 136 761 l 206 881 l 208 881 l 278 761 l 411 761 l 274 972 z "},"ķ":{"ha":753,"x_min":0,"x_max":0,"o":"m 296 988 l 85 988 l 85 0 l 296 0 l 296 213 l 349 279 l 514 0 l 774 0 l 496 404 l 739 679 l 485 679 l 347 475 b 299 393 331 450 314 422 l 296 393 z m 282 -336 b 501 -164 403 -332 501 -279 b 447 -54 501 -115 475 -75 l 301 -78 b 342 -161 319 -99 342 -129 b 250 -246 342 -208 296 -237 z "},"ĺ":{"ha":382,"x_min":0,"x_max":0,"o":"m 85 0 l 296 0 l 296 988 l 85 988 z m 200 1199 l 83 1028 l 253 1028 l 422 1199 z "},"ľ":{"ha":396,"x_min":0,"x_max":0,"o":"m 85 0 l 296 0 l 296 988 l 85 988 z m 446 689 b 535 892 468 713 535 775 b 490 1003 535 943 513 986 l 358 981 b 386 885 374 956 386 921 b 347 744 386 832 368 783 z "},"ļ":{"ha":382,"x_min":0,"x_max":0,"o":"m 85 0 l 296 0 l 296 988 l 85 988 z m 81 -336 b 300 -164 201 -332 300 -279 b 246 -54 300 -115 274 -75 l 100 -78 b 140 -161 118 -99 140 -129 b 49 -246 140 -208 94 -237 z "},"ŀ":{"ha":492,"x_min":0,"x_max":0,"o":"m 85 0 l 296 0 l 296 988 l 85 988 z m 439 458 b 525 553 488 458 525 501 b 439 647 525 607 488 647 b 347 553 388 647 347 607 b 438 458 347 501 386 458 z "},"ń":{"ha":814,"x_min":0,"x_max":0,"o":"m 85 0 l 296 0 l 296 392 b 303 444 296 411 297 431 b 411 524 318 483 353 524 b 518 376 488 524 518 464 l 518 0 l 729 0 l 729 401 b 486 694 729 601 625 694 b 276 585 372 694 304 629 l 272 585 l 263 679 l 79 679 b 85 463 82 618 85 547 z m 425 975 l 306 764 l 450 764 l 619 975 z "},"ň":{"ha":814,"x_min":0,"x_max":0,"o":"m 85 0 l 296 0 l 296 392 b 303 444 296 411 297 431 b 411 524 318 483 353 524 b 518 376 488 524 518 464 l 518 0 l 729 0 l 729 401 b 486 694 729 601 625 694 b 276 585 372 694 304 629 l 272 585 l 263 679 l 79 679 b 85 463 82 618 85 547 z m 478 764 l 617 975 l 478 975 l 408 854 l 406 854 l 335 975 l 197 975 l 335 764 z "},"ņ":{"ha":814,"x_min":0,"x_max":0,"o":"m 85 0 l 296 0 l 296 392 b 303 444 296 411 297 431 b 411 524 318 483 353 524 b 518 376 488 524 518 464 l 518 0 l 729 0 l 729 401 b 486 694 729 601 625 694 b 276 585 372 694 304 629 l 272 585 l 263 679 l 79 679 b 85 463 82 618 85 547 z m 313 -336 b 532 -164 433 -332 532 -279 b 478 -54 532 -115 506 -75 l 332 -78 b 372 -161 350 -99 372 -129 b 281 -246 372 -208 326 -237 z "},"ŏ":{"ha":801,"x_min":0,"x_max":0,"o":"m 399 -15 b 756 346 579 -15 756 99 b 410 694 756 551 617 694 b 46 335 190 694 46 554 b 397 -15 46 115 199 -15 z m 401 136 b 264 339 313 136 264 224 b 403 543 264 440 303 543 b 538 340 499 543 538 440 b 403 136 538 218 486 136 z m 208 961 b 401 764 210 850 272 764 b 594 961 526 764 593 844 l 485 961 b 400 876 482 917 457 876 b 318 961 351 876 326 911 z "},"ő":{"ha":801,"x_min":0,"x_max":0,"o":"m 399 -15 b 756 346 579 -15 756 99 b 410 694 756 551 617 694 b 46 335 190 694 46 554 b 397 -15 46 115 199 -15 z m 401 136 b 264 339 313 136 264 224 b 403 543 264 440 303 543 b 538 340 499 543 538 440 b 403 136 538 218 486 136 z m 278 974 l 190 767 l 310 767 l 444 974 z m 519 974 l 432 767 l 550 767 l 686 974 z "},"ō":{"ha":801,"x_min":0,"x_max":0,"o":"m 399 -15 b 756 346 579 -15 756 99 b 410 694 756 551 617 694 b 46 335 190 694 46 554 b 397 -15 46 115 199 -15 z m 401 136 b 264 339 313 136 264 224 b 403 543 264 440 303 543 b 538 340 499 543 538 440 b 403 136 538 218 486 136 z m 229 925 l 229 808 l 576 808 l 576 925 z "},"ǿ":{"ha":801,"x_min":0,"x_max":0,"o":"m 400 694 b 46 338 190 694 46 551 b 164 68 46 219 90 128 l 103 -22 l 172 -78 l 240 21 b 401 -15 288 -4 343 -15 b 754 342 578 -15 754 100 b 640 610 754 456 713 547 l 704 703 l 631 753 l 565 658 b 401 694 517 682 461 694 z m 276 231 l 272 231 b 249 339 256 263 249 301 b 399 543 249 435 289 543 b 475 518 429 543 454 535 z m 526 443 l 529 442 b 551 336 546 408 551 368 b 400 136 551 217 494 136 b 329 161 374 136 349 143 z m 424 975 l 304 764 l 449 764 l 618 975 z "},"ŕ":{"ha":528,"x_min":0,"x_max":0,"o":"m 85 0 l 296 0 l 296 343 b 300 390 296 361 297 376 b 444 497 314 457 367 497 b 501 492 468 497 485 494 l 501 690 b 457 694 486 693 476 694 b 274 553 390 694 308 653 l 268 553 l 260 679 l 79 679 b 85 456 83 621 85 556 z m 294 975 l 175 764 l 319 764 l 489 975 z "},"ř":{"ha":528,"x_min":0,"x_max":0,"o":"m 85 0 l 296 0 l 296 343 b 300 390 296 361 297 376 b 444 497 314 457 367 497 b 501 492 468 497 485 494 l 501 690 b 457 694 486 693 476 694 b 274 553 390 694 308 653 l 268 553 l 260 679 l 79 679 b 85 456 83 621 85 556 z m 350 764 l 489 975 l 350 975 l 281 854 l 278 854 l 207 975 l 69 975 l 207 764 z "},"ŗ":{"ha":528,"x_min":0,"x_max":0,"o":"m 85 0 l 296 0 l 296 343 b 300 390 296 361 297 376 b 444 497 314 457 367 497 b 501 492 468 497 485 494 l 501 690 b 457 694 486 693 476 694 b 274 553 390 694 308 653 l 268 553 l 260 679 l 79 679 b 85 456 83 621 85 556 z m 93 -336 b 313 -164 214 -332 313 -279 b 258 -54 313 -115 286 -75 l 113 -78 b 153 -161 131 -99 153 -129 b 61 -246 153 -208 107 -237 z "},"ś":{"ha":603,"x_min":0,"x_max":0,"o":"m 46 35 b 265 -14 97 7 176 -14 b 558 207 460 -14 558 79 b 375 415 557 306 504 371 b 265 493 292 443 265 461 b 346 547 265 526 294 547 b 493 510 403 547 463 525 l 529 654 b 339 694 488 675 418 694 b 63 471 171 694 63 599 b 257 268 61 392 115 315 b 356 190 335 243 356 225 b 265 135 356 156 329 135 b 83 185 203 135 122 161 z m 339 975 l 219 764 l 364 764 l 533 975 z "},"ş":{"ha":603,"x_min":0,"x_max":0,"o":"m 46 33 b 236 -14 115 -3 197 -14 l 239 -14 l 189 -114 b 296 -164 265 -119 296 -137 b 247 -200 296 -190 272 -200 b 172 -178 226 -200 196 -192 l 144 -256 b 256 -283 171 -272 211 -283 b 424 -162 343 -283 424 -253 b 324 -61 424 -106 375 -68 l 354 -7 b 558 206 490 18 558 100 b 375 414 558 304 504 371 b 265 493 292 443 265 460 b 346 547 265 526 294 547 b 493 510 403 547 463 525 l 529 654 b 339 694 488 675 418 694 b 63 471 171 694 64 599 b 257 268 63 392 115 314 b 356 189 333 242 356 225 b 265 133 356 154 328 133 b 83 183 203 133 122 160 z "},"ŝ":{"ha":603,"x_min":0,"x_max":0,"o":"m 46 35 b 265 -14 97 7 176 -14 b 558 207 460 -14 558 79 b 375 415 557 306 504 371 b 265 493 292 443 265 461 b 346 547 265 526 294 547 b 493 510 403 547 463 525 l 529 654 b 339 694 488 675 418 694 b 63 471 171 694 63 599 b 257 268 61 392 115 315 b 356 190 335 243 356 225 b 265 135 356 156 329 135 b 83 185 203 135 122 161 z m 236 975 l 97 764 l 235 764 l 306 885 l 308 885 l 378 764 l 515 764 l 378 975 z "},"ș":{"ha":603,"x_min":0,"x_max":0,"o":"m 46 35 b 265 -14 97 7 176 -14 b 558 207 460 -14 558 79 b 375 415 557 306 504 371 b 265 493 292 443 265 461 b 346 547 265 526 294 547 b 493 510 403 547 463 525 l 529 654 b 339 694 488 675 418 694 b 63 471 171 694 63 599 b 257 268 61 392 115 315 b 356 190 335 243 356 225 b 265 135 356 156 329 135 b 83 185 203 135 122 161 z m 203 -336 b 422 -164 324 -332 422 -279 b 368 -54 422 -115 396 -75 l 222 -78 b 263 -161 240 -99 263 -129 b 171 -246 263 -208 217 -237 z "},"ŧ":{"ha":510,"x_min":0,"x_max":0,"o":"m 472 524 l 472 679 l 321 679 l 321 864 l 114 807 l 114 679 l 24 679 l 24 524 l 114 524 l 114 426 l 28 426 l 28 315 l 114 315 l 114 246 b 172 44 114 150 133 85 b 332 -14 207 10 264 -14 b 468 4 390 -14 442 -6 l 467 164 b 404 158 447 160 433 158 b 321 263 347 158 321 189 l 321 315 l 436 315 l 436 426 l 321 426 l 321 524 z "},"ť":{"ha":515,"x_min":0,"x_max":0,"o":"m 114 807 l 114 679 l 24 679 l 24 524 l 114 524 l 114 246 b 172 44 114 150 133 85 b 332 -14 207 10 264 -14 b 468 4 390 -14 440 -6 l 465 164 b 403 158 446 160 433 158 b 321 278 340 158 321 196 l 321 524 l 472 524 l 472 679 l 321 679 l 321 864 z m 456 746 b 604 919 511 760 604 815 b 560 1015 604 960 582 999 l 425 993 b 450 918 439 974 450 946 b 404 822 450 879 431 840 z "},"ţ":{"ha":510,"x_min":0,"x_max":0,"o":"m 114 807 l 114 679 l 24 679 l 24 524 l 114 524 l 114 246 b 172 44 114 150 133 85 b 332 -14 207 10 264 -14 b 468 4 390 -14 442 -6 l 467 164 b 404 158 447 160 433 158 b 321 278 342 158 321 196 l 321 524 l 472 524 l 472 679 l 321 679 l 321 864 z m 176 -339 b 396 -167 297 -335 396 -282 b 342 -57 396 -118 369 -78 l 196 -81 b 236 -164 214 -101 236 -132 b 144 -249 236 -211 190 -240 z "},"ŭ":{"ha":810,"x_min":0,"x_max":0,"o":"m 725 679 l 514 679 l 514 275 b 506 229 514 257 511 242 b 400 156 493 196 458 156 b 293 314 325 156 293 215 l 293 679 l 82 679 l 82 281 b 321 -15 82 71 182 -15 b 533 96 443 -15 507 54 l 538 96 l 547 0 l 731 0 b 725 218 728 57 725 129 z m 213 961 b 406 764 214 850 276 764 b 599 961 531 764 597 844 l 489 961 b 404 876 486 917 461 876 b 322 961 356 876 331 911 z "},"ű":{"ha":810,"x_min":0,"x_max":0,"o":"m 725 679 l 514 679 l 514 275 b 506 229 514 257 511 242 b 400 156 493 196 458 156 b 293 314 325 156 293 215 l 293 679 l 82 679 l 82 281 b 321 -15 82 71 182 -15 b 533 96 443 -15 507 54 l 538 96 l 547 0 l 731 0 b 725 218 728 57 725 129 z m 306 974 l 218 767 l 338 767 l 472 974 z m 547 974 l 460 767 l 578 767 l 714 974 z "},"ū":{"ha":810,"x_min":0,"x_max":0,"o":"m 725 679 l 514 679 l 514 275 b 506 229 514 257 511 242 b 400 156 493 196 458 156 b 293 314 325 156 293 215 l 293 679 l 82 679 l 82 281 b 321 -15 82 71 182 -15 b 533 96 443 -15 507 54 l 538 96 l 547 0 l 731 0 b 725 218 728 57 725 129 z m 233 925 l 233 808 l 581 808 l 581 925 z "},"ų":{"ha":810,"x_min":0,"x_max":0,"o":"m 725 679 l 514 679 l 514 275 b 506 229 514 257 511 242 b 400 156 493 196 458 156 b 293 314 325 156 293 215 l 293 679 l 82 679 l 82 281 b 321 -15 82 71 182 -15 b 533 96 443 -15 507 54 l 538 96 l 547 1 b 501 -156 535 -25 501 -92 b 657 -304 501 -256 561 -304 b 799 -260 703 -304 761 -290 l 769 -162 b 708 -172 756 -168 735 -172 b 633 -94 665 -172 633 -140 b 664 1 633 -60 650 -22 l 731 0 b 725 218 728 56 725 129 z "},"ů":{"ha":810,"x_min":0,"x_max":0,"o":"m 725 679 l 514 679 l 514 275 b 506 229 514 257 511 242 b 400 156 493 196 458 156 b 293 314 325 156 293 215 l 293 679 l 82 679 l 82 281 b 321 -15 82 71 182 -15 b 533 96 443 -15 507 54 l 538 96 l 547 0 l 731 0 b 725 218 728 57 725 129 z m 407 1022 b 246 883 303 1022 246 961 b 407 749 246 807 307 749 b 564 885 503 749 564 807 b 408 1022 564 963 508 1022 z m 406 953 b 469 885 447 953 469 919 b 406 818 469 849 446 818 b 343 883 367 818 343 851 b 404 953 343 919 364 953 z "},"ũ":{"ha":810,"x_min":0,"x_max":0,"o":"m 725 679 l 514 679 l 514 275 b 506 229 514 257 511 242 b 400 156 493 196 458 156 b 293 314 325 156 293 215 l 293 679 l 82 679 l 82 281 b 321 -15 82 71 182 -15 b 533 96 443 -15 507 54 l 538 96 l 547 0 l 731 0 b 725 218 728 57 725 129 z m 308 775 b 342 838 311 817 322 838 b 394 815 360 838 369 829 b 490 786 424 801 451 786 b 604 964 564 786 608 838 l 507 964 b 471 903 503 915 493 903 b 413 929 454 903 435 917 b 322 957 385 943 357 957 b 208 775 251 957 204 892 z "},"ẃ":{"ha":1054,"x_min":0,"x_max":0,"o":"m 15 679 l 214 0 l 413 0 l 481 239 b 524 450 497 301 511 365 l 526 450 b 571 238 540 365 553 304 l 635 0 l 832 0 l 1040 679 l 833 679 l 776 410 b 736 178 760 332 746 254 l 733 178 b 683 408 721 256 703 331 l 615 679 l 449 679 l 376 399 b 328 178 361 332 340 254 l 324 178 b 286 400 313 256 299 331 l 231 679 z m 553 975 l 433 764 l 578 764 l 747 975 z "},"ŵ":{"ha":1054,"x_min":0,"x_max":0,"o":"m 15 679 l 214 0 l 413 0 l 481 239 b 524 450 497 301 511 365 l 526 450 b 571 238 540 365 553 304 l 635 0 l 832 0 l 1040 679 l 833 679 l 776 410 b 736 178 760 332 746 254 l 733 178 b 683 408 721 256 703 331 l 615 679 l 449 679 l 376 399 b 328 178 361 332 340 254 l 324 178 b 286 400 313 256 299 331 l 231 679 z m 458 975 l 319 764 l 457 764 l 528 885 l 531 885 l 600 764 l 738 764 l 600 975 z "},"ẅ":{"ha":1054,"x_min":0,"x_max":0,"o":"m 15 679 l 214 0 l 413 0 l 481 239 b 524 450 497 301 511 365 l 526 450 b 571 238 540 365 553 304 l 635 0 l 832 0 l 1040 679 l 833 679 l 776 410 b 736 178 760 332 746 254 l 733 178 b 683 408 721 256 703 331 l 615 679 l 449 679 l 376 399 b 328 178 361 332 340 254 l 324 178 b 286 400 313 256 299 331 l 231 679 z m 383 774 b 478 872 438 774 478 818 b 383 969 478 928 436 969 b 283 872 328 969 283 928 b 382 774 283 818 326 774 z m 675 774 b 771 872 731 774 771 818 b 675 969 771 928 729 969 b 576 872 618 969 576 928 b 672 774 576 818 618 774 z "},"ẁ":{"ha":1054,"x_min":0,"x_max":0,"o":"m 15 679 l 214 0 l 413 0 l 481 239 b 524 450 497 301 511 365 l 526 450 b 571 238 540 365 553 304 l 635 0 l 832 0 l 1040 679 l 833 679 l 776 410 b 736 178 760 332 746 254 l 733 178 b 683 408 721 256 703 331 l 615 679 l 449 679 l 376 399 b 328 178 361 332 340 254 l 324 178 b 286 400 313 256 299 331 l 231 679 z m 318 975 l 488 764 l 632 764 l 513 975 z "},"ŷ":{"ha":726,"x_min":0,"x_max":0,"o":"m 8 679 l 258 57 b 267 22 265 40 267 31 b 256 -8 267 14 263 3 b 168 -93 236 -42 200 -76 b 76 -129 136 -111 103 -124 l 121 -307 b 325 -214 175 -301 253 -278 b 564 232 401 -146 467 -39 l 722 679 l 496 679 l 413 346 b 382 218 403 306 392 256 l 378 218 b 344 344 369 254 356 306 l 243 679 z m 303 975 l 164 764 l 301 764 l 372 885 l 375 885 l 444 764 l 582 764 l 444 975 z "},"ỳ":{"ha":726,"x_min":0,"x_max":0,"o":"m 8 679 l 258 57 b 267 22 265 40 267 31 b 256 -8 267 14 263 3 b 168 -93 236 -42 200 -76 b 76 -129 136 -111 103 -124 l 121 -307 b 325 -214 175 -301 253 -278 b 564 232 401 -146 467 -39 l 722 679 l 496 679 l 413 346 b 382 218 403 306 392 256 l 378 218 b 344 344 369 254 356 306 l 243 679 z m 161 975 l 331 764 l 475 764 l 356 975 z "},"ź":{"ha":651,"x_min":0,"x_max":0,"o":"m 31 0 l 621 0 l 621 168 l 294 168 l 294 171 b 406 294 333 208 368 251 l 610 551 l 610 679 l 54 679 l 54 511 l 353 511 l 353 508 b 244 389 314 468 283 433 l 31 122 z m 361 975 l 242 764 l 386 764 l 556 975 z "},"ż":{"ha":651,"x_min":0,"x_max":0,"o":"m 31 0 l 621 0 l 621 168 l 294 168 l 294 171 b 406 294 333 208 368 251 l 610 551 l 610 679 l 54 679 l 54 511 l 353 511 l 353 508 b 244 389 314 468 283 433 l 31 122 z m 332 774 b 426 871 386 774 426 818 b 332 969 426 928 386 969 b 233 871 276 969 233 928 b 331 774 233 818 275 774 z "},"ĸ":{"ha":753,"x_min":0,"x_max":0,"o":"m 296 679 l 85 679 l 85 0 l 296 0 l 296 213 l 349 279 l 514 0 l 774 0 l 496 404 l 739 679 l 485 679 l 347 475 b 299 393 331 450 314 422 l 296 393 z "},"ŉ":{"ha":814,"x_min":0,"x_max":0,"o":"m 85 0 l 296 0 l 296 392 b 303 444 296 411 297 431 b 411 524 318 483 353 524 b 518 376 488 524 518 464 l 518 0 l 729 0 l 729 401 b 486 694 729 601 625 694 b 276 585 372 694 304 629 l 272 585 l 263 679 l 79 679 b 85 463 82 618 85 547 z m 106 728 b 206 911 132 750 206 814 b 161 1017 206 964 181 1003 l 26 982 b 54 906 42 964 54 935 b 11 785 54 861 36 822 z "},"΄":{"ha":421,"x_min":0,"x_max":0,"o":"m 181 975 l 117 764 l 254 764 l 367 975 z "},"΅":{"ha":604,"x_min":0,"x_max":0,"o":"m 250 1013 l 221 769 l 329 769 l 406 1013 z m 97 783 b 181 869 144 783 181 822 b 97 957 181 921 143 957 b 8 869 47 957 8 919 b 96 783 8 822 47 783 z m 506 783 b 592 869 556 783 592 822 b 506 957 592 921 554 957 b 419 869 457 957 419 919 b 504 783 419 822 456 783 z "},"Α":{"ha":911,"x_min":0,"x_max":0,"o":"m 578 240 l 650 0 l 878 0 l 586 936 l 310 936 l 24 0 l 243 0 l 308 240 z m 339 399 l 396 597 b 438 778 410 651 425 722 l 442 778 b 488 597 456 724 472 653 l 546 399 z "},"Β":{"ha":839,"x_min":0,"x_max":0,"o":"m 92 4 b 321 -10 139 -3 217 -10 b 689 75 507 -10 621 21 b 786 274 747 121 786 188 b 600 504 786 394 707 476 l 600 507 b 753 706 704 547 753 624 b 642 890 753 792 707 856 b 365 943 574 931 494 943 b 92 922 258 943 147 933 z m 301 782 b 392 789 318 786 344 789 b 542 681 488 789 542 751 b 371 565 542 611 483 565 l 301 565 z m 301 414 l 374 414 b 564 282 479 414 564 376 b 383 146 564 183 479 146 b 301 150 347 146 322 146 z "},"Γ":{"ha":669,"x_min":0,"x_max":0,"o":"m 93 936 l 93 0 l 304 0 l 304 758 l 660 758 l 660 936 z "},"Δ":{"ha":900,"x_min":0,"x_max":0,"o":"m 22 0 l 872 0 l 872 107 l 579 936 l 322 936 l 22 106 z m 251 174 l 385 578 b 436 765 404 639 425 719 l 442 765 b 499 565 456 707 479 625 l 631 174 z "},"Ε":{"ha":742,"x_min":0,"x_max":0,"o":"m 649 568 l 304 568 l 304 763 l 669 763 l 669 936 l 93 936 l 93 0 l 689 0 l 689 174 l 304 174 l 304 396 l 649 396 z "},"Ζ":{"ha":801,"x_min":0,"x_max":0,"o":"m 33 0 l 760 0 l 760 175 l 317 175 l 317 181 l 753 814 l 753 936 l 74 936 l 74 761 l 479 761 l 479 757 l 33 114 z "},"Η":{"ha":957,"x_min":0,"x_max":0,"o":"m 93 936 l 93 0 l 304 0 l 304 390 l 653 390 l 653 0 l 864 0 l 864 936 l 653 936 l 653 575 l 304 575 l 304 936 z "},"Θ":{"ha":999,"x_min":0,"x_max":0,"o":"m 492 -15 b 950 478 764 -15 950 171 b 506 951 950 736 793 951 b 49 461 229 951 49 742 b 490 -15 49 194 213 -15 z m 499 153 b 271 467 357 153 271 289 b 500 783 271 642 354 783 b 728 471 647 783 728 640 b 500 153 728 288 644 153 z m 353 563 l 353 392 l 644 392 l 644 563 z "},"Ι":{"ha":396,"x_min":0,"x_max":0,"o":"m 93 936 l 93 0 l 304 0 l 304 936 z "},"Κ":{"ha":853,"x_min":0,"x_max":0,"o":"m 92 0 l 301 0 l 301 306 l 381 404 l 611 0 l 857 0 l 532 538 l 842 936 l 581 936 l 369 625 b 304 522 347 592 325 558 l 301 522 l 301 936 l 92 936 z "},"Λ":{"ha":900,"x_min":0,"x_max":0,"o":"m 879 0 l 583 936 l 310 936 l 24 0 l 246 0 l 394 560 b 436 761 410 625 422 696 l 439 761 b 488 561 454 697 471 626 l 649 0 z "},"Μ":{"ha":1175,"x_min":0,"x_max":0,"o":"m 899 0 l 1104 0 l 1054 936 l 776 936 l 678 625 b 589 289 646 521 614 397 l 583 289 b 504 624 563 399 535 515 l 413 936 l 131 936 l 71 0 l 267 0 l 285 356 b 300 743 290 472 296 617 l 303 743 b 388 378 326 619 357 488 l 488 15 l 653 15 l 767 381 b 872 743 803 490 842 624 l 875 743 b 883 358 875 606 879 471 z "},"Ν":{"ha":958,"x_min":0,"x_max":0,"o":"m 286 0 l 286 282 b 276 692 286 435 283 567 l 282 692 b 444 361 326 582 389 463 l 644 0 l 867 0 l 867 936 l 672 936 l 672 664 b 689 272 672 522 676 396 l 686 272 b 533 593 643 378 589 494 l 339 936 l 92 936 l 92 0 z "},"Ξ":{"ha":797,"x_min":0,"x_max":0,"o":"m 78 936 l 78 764 l 726 764 l 726 936 z m 121 565 l 121 394 l 682 394 l 682 565 z m 58 174 l 58 0 l 746 0 l 746 174 z "},"Ο":{"ha":996,"x_min":0,"x_max":0,"o":"m 490 -15 b 949 478 764 -15 949 169 b 504 951 949 736 792 951 b 49 461 229 951 49 742 b 489 -15 49 194 213 -15 z m 499 153 b 272 467 357 153 272 290 b 500 783 272 642 354 783 b 725 471 646 783 725 639 b 500 153 725 288 643 153 z "},"Π":{"ha":926,"x_min":0,"x_max":0,"o":"m 833 936 l 93 936 l 93 0 l 304 0 l 304 758 l 622 758 l 622 0 l 833 0 z "},"Ρ":{"ha":807,"x_min":0,"x_max":0,"o":"m 92 0 l 301 0 l 301 336 b 374 331 321 332 346 331 b 678 429 499 331 606 363 b 764 651 735 481 764 558 b 664 867 764 743 725 821 b 378 943 601 918 508 943 b 92 924 249 943 157 935 z m 301 775 b 388 782 317 779 346 782 b 554 644 494 782 554 731 b 372 493 554 550 485 493 b 301 499 340 493 319 494 z "},"Σ":{"ha":803,"x_min":0,"x_max":0,"o":"m 311 179 l 546 472 l 326 757 l 326 763 l 722 763 l 722 936 l 57 936 l 57 799 l 319 464 l 42 119 l 42 0 l 757 0 l 757 174 l 311 174 z "},"Τ":{"ha":761,"x_min":0,"x_max":0,"o":"m 274 0 l 485 0 l 485 758 l 740 758 l 740 936 l 21 936 l 21 758 l 274 758 z "},"Υ":{"ha":868,"x_min":0,"x_max":0,"o":"m 13 769 b 308 388 179 739 272 585 b 324 204 319 324 324 274 l 324 0 l 535 0 l 535 203 b 558 394 535 267 543 331 b 860 765 603 576 728 729 l 826 944 b 579 811 756 942 653 892 b 447 519 515 740 464 640 l 438 519 b 317 819 425 643 385 746 b 46 944 238 907 124 943 z "},"Φ":{"ha":1090,"x_min":0,"x_max":0,"o":"m 642 38 b 1043 472 850 65 1043 207 b 644 903 1043 742 844 879 l 644 975 l 447 975 l 447 903 b 47 464 267 879 47 743 b 444 38 47 194 243 63 l 444 -39 l 642 -39 z m 446 186 b 260 464 358 203 260 299 b 446 756 260 649 360 739 z m 643 756 b 831 467 732 740 831 653 b 643 186 831 283 731 201 z "},"Χ":{"ha":851,"x_min":0,"x_max":0,"o":"m 829 0 l 551 479 l 815 936 l 574 936 l 494 765 b 431 610 471 711 453 669 l 428 610 b 357 765 406 663 385 708 l 275 936 l 32 936 l 293 474 l 22 0 l 264 0 l 340 169 b 414 338 372 235 394 283 l 417 338 b 500 169 443 283 465 235 l 585 0 z "},"Ψ":{"ha":1031,"x_min":0,"x_max":0,"o":"m 974 936 l 771 936 l 771 696 b 613 415 771 481 699 422 l 613 936 l 419 936 l 419 417 b 261 651 329 422 261 475 l 261 936 l 58 936 l 58 619 b 419 256 58 368 228 267 l 419 0 l 613 0 l 613 256 b 974 665 811 268 974 385 z "},"Ω":{"ha":1033,"x_min":0,"x_max":0,"o":"m 801 165 b 971 528 875 228 971 347 b 525 951 971 746 811 951 b 61 513 250 951 61 757 b 228 165 61 347 150 228 l 228 160 l 44 160 l 44 0 l 460 0 l 460 122 b 282 485 363 183 282 333 b 521 783 282 650 376 783 b 753 486 667 783 753 644 b 576 122 754 315 672 196 l 576 0 l 988 0 l 988 160 l 801 160 z "},"Ά":{"ha":922,"x_min":0,"x_max":0,"o":"m 589 240 l 661 0 l 889 0 l 597 936 l 321 936 l 35 0 l 254 0 l 319 240 z m 350 399 l 407 597 b 449 778 421 651 436 722 l 453 778 b 499 597 467 724 483 653 l 557 399 z m 29 936 l 26 694 l 147 694 l 199 936 z "},"Έ":{"ha":892,"x_min":0,"x_max":0,"o":"m 799 568 l 454 568 l 454 763 l 819 763 l 819 936 l 243 936 l 243 0 l 839 0 l 839 174 l 454 174 l 454 396 l 799 396 z m 4 936 l 1 694 l 122 694 l 172 936 z "},"Ή":{"ha":1107,"x_min":0,"x_max":0,"o":"m 242 936 l 242 0 l 453 0 l 453 390 l 803 390 l 803 0 l 1014 0 l 1014 936 l 803 936 l 803 575 l 453 575 l 453 936 z m 3 936 l 0 694 l 121 694 l 172 936 z "},"Ί":{"ha":546,"x_min":0,"x_max":0,"o":"m 243 936 l 243 0 l 454 0 l 454 936 z m 4 936 l 1 694 l 122 694 l 172 936 z "},"Ϊ":{"ha":396,"x_min":0,"x_max":0,"o":"m 57 992 b 149 1086 110 992 149 1035 b 57 1181 149 1140 110 1181 b -39 1086 3 1181 -39 1140 b 56 992 -39 1035 3 992 z m 340 992 b 433 1086 394 992 433 1035 b 340 1181 433 1140 394 1181 b 247 1086 286 1181 247 1140 b 339 992 247 1035 285 992 z m 93 936 l 93 0 l 304 0 l 304 936 z "},"Ό":{"ha":1100,"x_min":0,"x_max":0,"o":"m 593 -15 b 1051 478 867 -15 1051 169 b 607 951 1051 736 894 951 b 151 461 332 951 151 742 b 592 -15 151 194 315 -15 z m 601 153 b 375 467 460 153 375 290 b 603 783 375 642 457 783 b 828 471 749 783 828 639 b 603 153 828 288 746 153 z m 3 936 l 0 694 l 121 694 l 172 936 z "},"Ύ":{"ha":1082,"x_min":0,"x_max":0,"o":"m 222 769 b 518 388 389 739 482 585 b 533 204 529 324 533 274 l 533 0 l 744 0 l 744 203 b 768 394 744 267 753 331 b 1069 765 813 576 938 729 l 1036 944 b 789 811 965 942 863 892 b 657 519 725 740 674 640 l 647 519 b 526 819 635 643 594 746 b 256 944 447 907 333 943 z m 4 936 l 1 694 l 122 694 l 174 936 z "},"Ϋ":{"ha":868,"x_min":0,"x_max":0,"o":"m 299 969 b 390 1064 351 969 390 1013 b 299 1158 390 1118 351 1158 b 203 1064 244 1158 203 1118 b 297 969 203 1013 244 969 z m 582 969 b 675 1064 636 969 675 1013 b 582 1158 675 1118 636 1158 b 489 1064 528 1158 489 1118 b 581 969 489 1013 526 969 z m 13 769 b 308 388 179 739 272 585 b 324 204 319 324 324 274 l 324 0 l 535 0 l 535 203 b 558 394 535 267 543 331 b 860 765 603 576 728 729 l 826 944 b 579 811 756 942 653 892 b 447 519 515 740 464 640 l 438 519 b 317 819 425 643 385 746 b 46 944 238 907 124 943 z "},"Ώ":{"ha":1131,"x_min":0,"x_max":0,"o":"m 900 165 b 1069 526 974 228 1069 346 b 622 951 1069 744 910 951 b 160 511 349 951 160 756 b 326 165 160 346 249 228 l 326 160 l 143 160 l 143 0 l 557 0 l 557 122 b 379 485 460 183 379 319 b 618 783 379 649 474 783 b 851 486 764 783 851 644 b 674 122 851 303 769 194 l 674 0 l 1086 0 l 1086 160 l 900 160 z m 4 936 l 1 694 l 121 694 l 172 936 z "},"α":{"ha":810,"x_min":0,"x_max":0,"o":"m 561 679 b 546 590 556 653 550 622 l 540 590 b 354 694 501 661 433 694 b 46 325 201 694 46 554 b 328 -15 46 117 172 -15 b 547 108 419 -15 499 26 l 550 108 b 697 -15 568 26 618 -15 b 771 -4 726 -15 758 -10 l 782 143 b 719 236 746 140 719 160 b 739 679 719 381 729 572 z m 260 336 b 393 533 260 443 311 533 b 513 403 453 533 500 481 b 515 346 515 386 515 368 b 511 278 515 321 514 301 b 388 151 497 211 449 151 b 260 335 313 151 260 231 z "},"β":{"ha":815,"x_min":0,"x_max":0,"o":"m 289 47 b 475 -15 338 3 400 -15 b 768 278 639 -15 768 101 b 582 532 768 413 679 510 l 582 540 b 693 747 654 578 693 669 b 418 1001 693 888 596 1001 b 190 918 314 1001 242 967 b 81 574 131 863 81 775 l 81 -37 b 107 -275 81 -132 88 -235 l 303 -275 b 286 -33 289 -218 286 -117 l 286 47 z m 285 613 b 406 838 285 779 333 838 b 504 714 465 838 504 786 b 399 574 504 644 465 586 b 375 571 390 571 383 571 l 375 440 b 406 440 385 440 396 442 b 556 286 488 433 556 382 b 421 143 556 211 511 143 b 285 214 364 143 317 172 z "},"γ":{"ha":715,"x_min":0,"x_max":0,"o":"m 444 -275 b 440 -7 443 -182 442 -65 b 449 26 440 4 440 14 b 689 626 590 231 689 454 b 686 679 689 643 689 665 l 486 679 b 488 618 486 665 488 650 b 385 215 488 475 432 318 l 379 215 b 217 679 344 404 267 603 l -17 679 b 217 113 58 556 171 339 b 240 -275 244 -18 243 -143 z "},"δ":{"ha":800,"x_min":0,"x_max":0,"o":"m 696 933 b 449 1001 656 964 564 1001 b 172 818 269 1001 172 907 b 247 676 172 750 222 700 l 274 653 l 274 647 b 46 321 164 593 46 492 b 393 -15 46 118 199 -15 b 753 335 594 -15 753 121 b 585 642 753 458 689 558 l 471 732 b 392 815 418 774 392 794 b 468 851 392 836 415 851 b 642 801 540 851 617 819 z m 451 496 b 542 317 510 447 542 382 b 407 136 542 208 483 136 b 263 325 325 136 263 221 b 388 549 263 435 319 507 z "},"ε":{"ha":650,"x_min":0,"x_max":0,"o":"m 194 357 b 46 194 114 340 46 279 b 353 -15 46 39 206 -15 b 621 46 439 -15 547 1 l 592 183 b 408 140 546 160 471 140 b 274 218 339 140 274 164 b 446 286 274 271 349 285 l 513 286 l 513 424 l 446 424 b 290 483 347 425 290 442 b 406 547 290 521 332 547 b 565 510 467 547 528 529 l 601 643 b 374 694 543 678 472 694 b 78 504 171 694 78 599 b 194 364 78 438 121 388 z "},"ζ":{"ha":613,"x_min":0,"x_max":0,"o":"m 501 -212 b 603 83 556 -146 603 -11 b 589 101 603 93 596 100 b 383 154 519 113 443 124 b 265 351 311 188 265 244 b 610 843 265 546 428 761 l 581 981 l 322 981 b 129 985 243 981 172 981 l 108 851 b 264 833 144 839 200 833 l 329 833 l 329 826 b 49 311 154 685 49 492 b 253 7 49 133 147 47 b 407 -33 307 -14 365 -26 b 371 -171 406 -67 386 -140 z "},"η":{"ha":814,"x_min":0,"x_max":0,"o":"m 272 585 b 249 679 271 621 261 656 l 63 679 b 85 463 81 626 85 549 l 85 0 l 296 0 l 296 392 b 303 444 296 411 297 431 b 411 524 318 483 353 524 b 518 376 488 524 518 464 l 518 -35 b 543 -275 518 -126 524 -242 l 743 -275 b 729 -36 729 -222 729 -117 l 729 401 b 486 694 729 601 625 694 b 276 585 372 694 304 629 z "},"θ":{"ha":792,"x_min":0,"x_max":0,"o":"m 396 -15 b 746 500 635 -15 746 192 b 406 1001 746 796 640 1001 b 46 500 167 1001 46 785 b 394 -15 46 163 175 -15 z m 254 578 b 397 854 254 732 304 854 b 536 578 489 854 536 735 z m 539 428 b 400 132 539 253 496 132 b 256 428 306 132 256 247 z "},"ι":{"ha":389,"x_min":0,"x_max":0,"o":"m 296 679 l 85 679 l 85 192 b 260 -15 85 31 150 -15 b 349 -1 292 -15 331 -10 l 358 146 b 296 213 315 143 296 161 z "},"κ":{"ha":761,"x_min":0,"x_max":0,"o":"m 478 371 b 744 672 571 474 660 576 l 744 679 l 504 679 b 300 396 449 599 375 489 l 296 396 l 296 558 b 274 679 296 621 286 665 l 65 679 b 85 506 78 656 85 572 l 85 0 l 296 0 l 296 276 l 306 276 b 435 136 351 274 388 218 l 510 0 l 753 0 l 644 186 b 478 365 592 275 542 349 z "},"λ":{"ha":719,"x_min":0,"x_max":0,"o":"m 488 0 l 713 0 l 457 688 b 158 997 392 863 314 997 b 89 989 133 997 103 994 l 69 829 b 100 829 81 829 92 829 b 243 694 158 829 213 775 b 250 660 247 682 250 669 b 243 625 250 651 250 642 l 6 0 l 225 0 l 315 311 b 349 453 326 356 339 403 l 356 453 b 394 308 369 393 382 349 z "},"μ":{"ha":813,"x_min":0,"x_max":0,"o":"m 543 93 b 696 -15 564 24 617 -15 b 772 -3 729 -15 756 -11 l 783 143 b 726 221 744 144 726 163 l 726 679 l 515 679 l 515 275 b 508 229 515 258 514 242 b 399 154 494 194 453 154 b 296 300 329 154 296 208 l 296 679 l 85 679 l 85 -29 b 104 -275 85 -129 90 -242 l 290 -275 b 275 -28 279 -222 275 -101 l 275 31 b 371 -10 299 4 335 -10 b 539 93 458 -10 517 44 z "},"ν":{"ha":708,"x_min":0,"x_max":0,"o":"m -1 679 l 235 0 l 439 0 b 682 626 565 208 682 433 b 678 679 682 646 681 663 l 479 679 b 481 625 481 660 481 644 b 365 196 481 481 419 313 l 360 196 b 317 364 344 253 333 307 l 226 679 z "},"ξ":{"ha":656,"x_min":0,"x_max":0,"o":"m 549 606 b 503 607 532 606 517 606 b 324 732 397 615 324 651 b 467 853 324 797 371 853 b 592 826 511 853 557 842 l 625 964 b 432 1001 578 986 519 1001 b 113 754 221 1001 113 883 b 257 557 113 667 163 593 l 257 549 b 46 278 135 515 46 411 b 446 -33 46 46 282 -8 b 413 -169 444 -67 428 -139 l 544 -211 b 646 83 597 -144 646 0 b 629 101 646 93 640 100 b 453 136 563 111 510 121 b 269 301 324 169 269 222 b 511 463 269 399 353 463 l 549 463 z "},"ο":{"ha":801,"x_min":0,"x_max":0,"o":"m 399 -15 b 756 346 579 -15 756 99 b 410 694 756 551 617 694 b 46 335 190 694 46 554 b 397 -15 46 115 199 -15 z m 401 136 b 264 339 313 136 264 224 b 403 543 264 440 303 543 b 538 340 499 543 538 440 b 403 136 538 218 486 136 z "},"π":{"ha":833,"x_min":0,"x_max":0,"o":"m 790 519 l 810 679 l 246 679 b 4 632 113 679 35 661 l 26 510 b 147 519 61 518 108 519 b 74 0 149 375 115 136 l 275 0 b 351 519 319 106 349 363 l 499 519 l 499 197 b 522 0 499 111 506 25 l 725 0 b 708 213 715 43 708 119 l 708 519 z "},"ρ":{"ha":821,"x_min":0,"x_max":0,"o":"m 293 51 b 460 -15 325 11 385 -15 b 775 343 614 -15 775 104 b 439 694 775 553 642 694 b 208 614 346 694 272 667 b 79 274 143 558 79 471 l 79 -35 b 96 -275 79 -132 85 -240 l 300 -275 b 290 -36 290 -222 290 -117 l 290 51 z m 290 322 b 428 521 290 451 350 521 b 561 339 511 521 561 446 b 418 147 561 229 510 147 b 294 231 357 147 308 190 b 290 272 292 244 290 257 z "},"σ":{"ha":825,"x_min":0,"x_max":0,"o":"m 656 550 b 804 542 724 544 769 542 l 813 694 b 657 694 783 694 703 694 l 553 694 b 422 694 533 694 463 694 b 46 332 189 694 46 550 b 397 -15 46 113 199 -15 b 743 336 576 -15 743 93 b 654 543 743 404 714 490 z m 401 136 b 264 339 313 136 264 224 b 404 543 264 440 303 543 b 535 342 499 543 535 442 b 403 136 535 219 483 136 z "},"τ":{"ha":628,"x_min":0,"x_max":0,"o":"m 506 147 b 479 147 500 147 490 147 b 410 239 438 147 410 169 l 410 519 l 594 519 l 614 679 l 226 679 b -12 633 71 679 17 656 l 14 510 b 142 519 43 515 78 519 l 199 519 l 199 225 b 400 -15 199 67 249 -15 b 497 0 442 -15 479 -8 z "},"υ":{"ha":775,"x_min":0,"x_max":0,"o":"m 474 679 b 515 407 489 640 515 525 b 392 156 515 271 482 156 b 285 292 333 156 285 201 l 285 547 b 263 679 285 624 279 661 l 57 679 b 74 453 71 633 74 554 l 74 278 b 374 -15 74 79 206 -15 b 722 419 639 -15 722 208 b 671 679 722 536 694 632 z "},"φ":{"ha":988,"x_min":0,"x_max":0,"o":"m 294 696 b 46 344 194 664 46 539 b 406 -14 46 108 225 1 l 406 -275 l 592 -275 l 592 -14 b 940 354 760 3 940 125 b 632 693 940 558 790 689 b 406 451 518 696 406 628 l 406 131 b 256 349 313 151 256 236 b 374 583 256 464 317 543 z m 592 494 b 628 549 592 529 606 549 b 740 350 682 549 740 465 b 592 128 740 222 676 144 z "},"χ":{"ha":700,"x_min":0,"x_max":0,"o":"m 7 679 l 240 217 l 0 -267 l 179 -314 l 279 -89 b 332 40 304 -33 318 8 l 339 40 l 499 -314 l 699 -268 l 463 218 l 697 679 l 496 679 l 418 492 b 371 372 399 446 385 408 l 365 372 l 233 679 z "},"ψ":{"ha":1008,"x_min":0,"x_max":0,"o":"m 419 -275 l 607 -275 l 607 -15 b 956 413 865 1 956 208 b 900 679 956 540 928 626 l 713 679 b 756 400 728 647 756 539 b 607 132 756 261 707 135 l 607 857 l 419 857 l 419 132 b 279 372 343 139 279 193 l 279 547 b 260 679 279 614 274 661 l 68 679 b 78 506 76 635 78 575 l 78 356 b 419 -15 78 78 240 -3 z "},"ω":{"ha":1018,"x_min":0,"x_max":0,"o":"m 606 519 l 408 519 l 411 271 b 346 161 413 208 388 161 b 250 360 299 161 250 222 b 349 678 250 485 290 603 l 349 682 l 158 682 b 46 346 104 619 46 503 b 318 -15 46 104 179 -15 b 501 92 403 -15 465 31 l 507 92 b 689 -15 538 25 610 -15 b 972 363 844 -15 972 119 b 863 682 972 513 914 633 l 671 682 l 671 678 b 767 372 733 607 767 485 b 669 161 767 233 724 161 b 601 271 626 161 601 210 z "},"ά":{"ha":810,"x_min":0,"x_max":0,"o":"m 397 972 l 333 761 l 471 761 l 583 972 z m 561 679 b 546 590 556 653 550 622 l 540 590 b 354 694 501 661 433 694 b 46 325 201 694 46 554 b 328 -15 46 117 172 -15 b 547 108 419 -15 499 26 l 550 108 b 697 -15 568 26 618 -15 b 771 -4 726 -15 758 -10 l 782 143 b 719 236 746 140 719 160 b 739 679 719 381 729 572 z m 260 336 b 393 533 260 443 311 533 b 513 403 453 533 500 481 b 515 346 515 386 515 368 b 511 278 515 321 514 301 b 388 151 497 211 449 151 b 260 335 313 151 260 231 z "},"έ":{"ha":650,"x_min":0,"x_max":0,"o":"m 340 972 l 276 761 l 414 761 l 526 972 z m 194 357 b 46 194 114 340 46 279 b 353 -15 46 39 206 -15 b 621 46 439 -15 547 1 l 592 182 b 408 140 546 160 471 140 b 274 218 339 140 274 164 b 446 286 274 271 349 285 l 513 286 l 513 424 l 446 424 b 290 483 347 425 290 442 b 406 547 290 521 332 547 b 565 510 467 547 528 529 l 601 643 b 374 694 543 676 472 694 b 78 504 171 694 78 599 b 194 364 78 438 121 388 z "},"ή":{"ha":814,"x_min":0,"x_max":0,"o":"m 400 972 l 336 761 l 474 761 l 586 972 z m 272 585 b 249 679 271 621 261 656 l 63 679 b 85 463 81 626 85 549 l 85 0 l 296 0 l 296 392 b 303 444 296 411 297 431 b 411 524 318 483 353 524 b 518 376 488 524 518 464 l 518 -35 b 543 -275 518 -126 524 -242 l 743 -275 b 729 -36 729 -222 729 -117 l 729 401 b 486 694 729 601 625 694 b 276 585 372 694 304 629 z "},"ί":{"ha":389,"x_min":0,"x_max":0,"o":"m 181 974 l 117 763 l 257 763 l 369 974 z m 296 679 l 85 679 l 85 192 b 260 -15 85 31 150 -15 b 349 -1 292 -15 331 -10 l 358 146 b 296 213 315 143 296 161 z "},"ϊ":{"ha":389,"x_min":0,"x_max":0,"o":"m 56 760 b 147 856 108 760 147 803 b 56 951 147 911 107 951 b -42 856 0 951 -42 911 b 54 760 -42 803 0 760 z m 340 760 b 433 856 394 760 433 803 b 340 951 433 911 393 951 b 243 856 285 951 243 911 b 339 760 243 803 283 760 z m 296 679 l 85 679 l 85 192 b 260 -15 85 31 150 -15 b 349 -1 292 -15 331 -10 l 358 146 b 296 213 315 143 296 161 z "},"ό":{"ha":801,"x_min":0,"x_max":0,"o":"m 393 972 l 329 761 l 467 761 l 579 972 z m 399 -15 b 756 346 579 -15 756 99 b 410 694 756 551 617 694 b 46 335 190 694 46 554 b 397 -15 46 115 199 -15 z m 401 136 b 264 339 313 136 264 224 b 403 543 264 440 303 543 b 538 340 499 543 538 440 b 403 136 538 218 486 136 z "},"ύ":{"ha":775,"x_min":0,"x_max":0,"o":"m 369 974 l 306 763 l 446 763 l 560 974 z m 474 679 b 515 407 489 640 515 525 b 392 156 515 271 482 156 b 285 292 333 156 285 201 l 285 547 b 263 679 285 624 279 661 l 57 679 b 74 453 71 633 74 554 l 74 278 b 374 -15 74 79 206 -15 b 722 419 639 -15 722 208 b 671 679 722 536 694 632 z "},"ϋ":{"ha":775,"x_min":0,"x_max":0,"o":"m 236 760 b 328 856 289 760 328 803 b 236 951 328 911 288 951 b 139 856 181 951 139 911 b 235 760 139 803 179 760 z m 521 760 b 614 856 575 760 614 803 b 521 951 614 911 575 951 b 425 856 465 951 425 911 b 519 760 425 803 464 760 z m 474 679 b 515 407 489 640 515 525 b 392 156 515 271 482 156 b 285 292 333 156 285 201 l 285 547 b 263 679 285 624 279 661 l 57 679 b 74 453 71 633 74 554 l 74 278 b 374 -15 74 79 206 -15 b 722 419 639 -15 722 208 b 671 679 722 536 694 632 z "},"ώ":{"ha":1018,"x_min":0,"x_max":0,"o":"m 500 972 l 436 761 l 574 761 l 686 972 z m 606 519 l 408 519 l 411 271 b 346 161 413 208 388 161 b 250 360 299 161 250 222 b 349 678 250 485 290 603 l 349 682 l 158 682 b 46 346 104 619 46 503 b 318 -15 46 104 179 -15 b 501 92 403 -15 465 31 l 507 92 b 689 -15 538 25 610 -15 b 972 363 844 -15 972 119 b 863 682 972 513 914 633 l 671 682 l 671 678 b 767 372 733 607 767 485 b 669 161 767 233 724 161 b 601 271 626 161 601 210 z "},"ΐ":{"ha":389,"x_min":0,"x_max":0,"o":"m 296 679 l 85 679 l 85 192 b 260 -15 85 31 150 -15 b 349 -1 292 -15 331 -10 l 358 146 b 296 213 315 143 296 161 z m 153 999 l 124 758 l 231 758 l 307 999 z m 0 769 b 83 856 47 769 83 808 b 0 940 83 904 47 940 b -87 854 -49 940 -87 904 b -1 769 -87 808 -50 769 z m 407 769 b 492 856 456 769 492 808 b 407 940 492 904 456 940 b 321 854 358 940 321 904 b 406 769 321 808 357 769 z "},"ΰ":{"ha":775,"x_min":0,"x_max":0,"o":"m 474 679 b 515 407 489 640 515 525 b 392 156 515 271 482 156 b 285 292 333 156 285 201 l 285 547 b 263 679 285 624 279 661 l 57 679 b 74 453 71 633 74 554 l 74 278 b 374 -15 74 79 206 -15 b 722 419 639 -15 722 208 b 671 679 722 536 694 632 z m 332 997 l 303 757 l 410 757 l 488 997 z m 179 768 b 263 854 226 768 263 807 b 179 939 263 903 226 939 b 92 853 131 939 92 903 b 178 768 92 807 129 768 z m 588 768 b 674 854 638 768 674 807 b 588 939 674 903 636 939 b 501 853 539 939 501 903 b 586 768 501 807 538 768 z "},"ς":{"ha":636,"x_min":0,"x_max":0,"o":"m 615 661 b 444 694 574 682 513 694 b 46 318 186 694 46 508 b 313 -8 46 125 169 32 b 418 -33 350 -19 388 -26 b 382 -169 414 -67 397 -139 l 514 -212 b 613 85 564 -156 613 -10 b 600 104 613 96 608 103 b 407 149 532 117 471 128 b 264 332 319 176 264 232 b 454 536 264 451 343 536 b 575 513 500 536 542 525 z "},";":{"ha":385,"x_min":0,"x_max":0,"o":"m 172 -154 b 318 228 228 -44 283 101 l 106 221 b 33 -167 96 101 65 -43 z m 204 396 b 335 531 283 396 335 453 b 204 665 335 610 282 665 b 74 531 126 665 74 608 b 203 396 74 453 126 396 z "},"·":{"ha":385,"x_min":0,"x_max":0,"o":"m 192 297 b 329 438 275 297 329 357 b 193 578 328 521 274 578 b 56 438 114 578 56 519 b 190 297 56 357 113 297 z "},"А":{"ha":911,"x_min":0,"x_max":0,"o":"m 578 240 l 650 0 l 878 0 l 586 936 l 310 936 l 24 0 l 243 0 l 308 240 z m 339 399 l 396 597 b 438 778 410 651 425 722 l 442 778 b 488 597 456 724 472 653 l 546 399 z "},"Б":{"ha":838,"x_min":0,"x_max":0,"o":"m 93 936 l 93 4 b 319 -10 140 -3 215 -10 b 700 97 463 -10 610 18 b 789 310 754 146 789 218 b 681 535 789 413 746 488 b 417 610 610 586 511 610 b 303 603 381 610 335 607 l 303 764 l 714 764 l 714 936 z m 303 449 b 376 454 328 451 353 454 b 517 413 426 454 479 442 b 567 306 547 389 567 354 b 521 196 567 260 549 222 b 383 149 486 165 435 149 b 303 154 354 149 326 150 z "},"В":{"ha":839,"x_min":0,"x_max":0,"o":"m 92 4 b 321 -10 139 -3 217 -10 b 689 75 507 -10 621 21 b 786 274 747 121 786 188 b 600 504 786 394 707 476 l 600 507 b 753 706 704 547 753 624 b 642 890 753 792 707 856 b 365 943 574 931 494 943 b 92 922 258 943 147 933 z m 301 782 b 392 789 318 786 344 789 b 542 681 488 789 542 751 b 371 565 542 611 483 565 l 301 565 z m 301 414 l 374 414 b 564 282 479 414 564 376 b 383 146 564 183 479 146 b 301 150 347 146 322 146 z "},"Г":{"ha":679,"x_min":0,"x_max":0,"o":"m 93 936 l 93 0 l 304 0 l 304 763 l 658 763 l 658 936 z "},"Ґ":{"ha":683,"x_min":0,"x_max":0,"o":"m 92 936 l 92 0 l 303 0 l 303 763 l 657 763 l 672 1117 l 521 1117 l 499 936 z "},"Д":{"ha":956,"x_min":0,"x_max":0,"o":"m 222 936 l 222 686 b 186 375 222 572 211 469 b 97 167 165 301 135 232 l 18 161 l 26 -236 l 188 -236 l 199 0 l 747 0 l 758 -236 l 917 -236 l 926 161 l 835 167 l 835 936 z m 418 764 l 624 764 l 624 171 l 313 171 b 376 331 336 217 360 274 b 418 640 404 425 418 531 z "},"Е":{"ha":742,"x_min":0,"x_max":0,"o":"m 649 568 l 304 568 l 304 763 l 669 763 l 669 936 l 93 936 l 93 0 l 689 0 l 689 174 l 304 174 l 304 396 l 649 396 z "},"Ж":{"ha":1215,"x_min":0,"x_max":0,"o":"m 8 936 l 326 518 b 101 285 201 494 142 406 b 4 0 71 193 44 92 l 217 0 b 283 207 246 63 264 140 b 472 392 314 307 358 392 l 506 392 l 506 0 l 710 0 l 710 392 l 742 392 b 931 207 857 392 901 307 b 999 0 950 140 969 63 l 1213 0 b 1115 290 1171 92 1149 193 b 888 518 1076 411 1015 504 l 1207 936 l 961 936 l 728 547 l 710 547 l 710 936 l 506 936 l 506 547 l 488 547 l 254 936 z "},"З":{"ha":756,"x_min":0,"x_max":0,"o":"m 107 726 b 313 781 160 753 240 781 b 454 678 403 781 454 740 b 286 560 454 603 382 560 l 199 560 l 199 404 l 288 404 b 483 281 375 404 483 383 b 311 157 483 203 418 157 b 85 214 224 157 126 192 l 40 50 b 321 -15 118 6 224 -15 b 706 267 496 -15 706 57 b 488 488 706 392 604 472 l 488 490 b 675 711 596 517 675 594 b 350 951 675 849 554 951 b 58 876 219 951 122 915 z "},"И":{"ha":958,"x_min":0,"x_max":0,"o":"m 92 936 l 92 0 l 332 0 l 522 338 b 682 671 578 436 639 560 l 686 671 b 671 276 674 549 671 421 l 671 0 l 865 0 l 865 936 l 649 936 l 447 568 b 279 235 392 468 329 344 l 275 235 b 286 658 282 360 286 508 l 286 936 z "},"Й":{"ha":958,"x_min":0,"x_max":0,"o":"m 92 936 l 92 0 l 332 0 l 522 338 b 682 671 578 436 639 560 l 686 671 b 671 276 674 549 671 421 l 671 0 l 865 0 l 865 936 l 649 936 l 447 568 b 279 235 392 468 329 344 l 275 235 b 286 658 282 360 286 508 l 286 936 z m 274 1150 b 475 979 285 1033 354 979 b 686 1150 599 979 678 1032 l 543 1150 b 479 1065 539 1096 521 1065 b 417 1150 435 1065 419 1096 z "},"К":{"ha":840,"x_min":0,"x_max":0,"o":"m 93 936 l 93 0 l 301 0 l 301 392 l 342 392 b 531 206 456 392 499 311 b 603 0 553 136 571 64 l 831 0 b 722 294 786 93 756 194 b 508 519 683 407 629 490 l 835 936 l 578 936 l 321 546 l 301 546 l 301 936 z "},"Л":{"ha":896,"x_min":0,"x_max":0,"o":"m 172 936 l 172 526 b 101 206 172 385 158 264 b -6 156 78 181 40 161 l 21 -15 b 207 31 96 -15 160 4 b 379 540 349 114 379 300 l 379 763 l 592 763 l 592 0 l 803 0 l 803 936 z "},"М":{"ha":1175,"x_min":0,"x_max":0,"o":"m 899 0 l 1104 0 l 1054 936 l 776 936 l 678 625 b 589 289 646 521 614 397 l 583 289 b 504 624 563 399 535 515 l 413 936 l 131 936 l 71 0 l 267 0 l 285 356 b 300 743 290 472 296 617 l 303 743 b 388 378 326 619 357 488 l 488 15 l 653 15 l 767 381 b 872 743 803 490 842 624 l 875 743 b 883 358 875 606 879 471 z "},"Н":{"ha":957,"x_min":0,"x_max":0,"o":"m 93 936 l 93 0 l 304 0 l 304 390 l 653 390 l 653 0 l 864 0 l 864 936 l 653 936 l 653 575 l 304 575 l 304 936 z "},"О":{"ha":996,"x_min":0,"x_max":0,"o":"m 490 -15 b 949 478 764 -15 949 169 b 504 951 949 736 792 951 b 49 461 229 951 49 742 b 489 -15 49 194 213 -15 z m 499 153 b 272 467 357 153 272 290 b 500 783 272 642 354 783 b 725 471 646 783 725 639 b 500 153 725 288 643 153 z "},"П":{"ha":940,"x_min":0,"x_max":0,"o":"m 93 936 l 93 0 l 304 0 l 304 763 l 638 763 l 638 0 l 849 0 l 849 936 z "},"Р":{"ha":807,"x_min":0,"x_max":0,"o":"m 92 0 l 301 0 l 301 336 b 374 331 321 332 346 331 b 678 429 499 331 606 363 b 764 651 735 481 764 558 b 664 867 764 743 725 821 b 378 943 601 918 508 943 b 92 924 249 943 157 935 z m 301 775 b 388 782 317 779 346 782 b 554 644 494 782 554 731 b 372 493 554 550 485 493 b 301 499 340 493 319 494 z "},"С":{"ha":826,"x_min":0,"x_max":0,"o":"m 747 193 b 569 163 704 175 635 163 b 271 467 382 163 271 281 b 568 776 271 675 401 776 b 746 742 644 776 704 760 l 790 910 b 560 950 753 928 669 950 b 49 456 276 950 49 774 b 539 -14 49 189 215 -14 b 778 26 651 -14 740 8 z "},"Т":{"ha":761,"x_min":0,"x_max":0,"o":"m 274 0 l 485 0 l 485 758 l 740 758 l 740 936 l 21 936 l 21 758 l 274 758 z "},"У":{"ha":817,"x_min":0,"x_max":0,"o":"m 4 938 l 319 288 b 322 243 326 272 329 260 b 196 157 304 201 261 157 b 125 164 164 157 143 160 l 111 -6 b 214 -21 138 -15 167 -21 b 463 103 325 -21 401 26 b 649 475 533 189 590 331 l 824 938 l 601 938 l 500 604 b 449 421 476 524 461 461 l 444 421 b 378 600 424 478 404 535 l 242 938 z "},"Ф":{"ha":1096,"x_min":0,"x_max":0,"o":"m 450 976 l 450 894 b 49 464 269 879 49 761 b 447 46 49 176 244 61 l 447 -39 l 644 -39 l 644 46 b 1047 471 853 65 1047 182 b 647 894 1047 763 849 879 l 647 976 z m 449 193 b 261 468 365 203 261 285 b 449 749 261 667 367 738 z m 646 749 b 835 471 735 738 835 668 b 646 193 835 272 729 203 z "},"Х":{"ha":851,"x_min":0,"x_max":0,"o":"m 829 0 l 551 479 l 815 936 l 574 936 l 494 765 b 431 610 471 711 453 669 l 428 610 b 357 765 406 663 385 708 l 275 936 l 32 936 l 293 474 l 22 0 l 264 0 l 340 169 b 414 338 371 235 394 283 l 417 338 b 500 169 443 283 465 235 l 585 0 z "},"Ц":{"ha":964,"x_min":0,"x_max":0,"o":"m 93 936 l 93 0 l 756 0 l 767 -236 l 926 -236 l 936 161 l 843 167 l 843 936 l 632 936 l 632 174 l 304 174 l 304 936 z "},"Ч":{"ha":892,"x_min":0,"x_max":0,"o":"m 83 936 l 83 622 b 375 332 83 422 206 332 b 585 379 453 332 517 347 l 589 379 l 589 -12 l 800 -12 l 800 936 l 589 936 l 589 536 b 451 500 549 515 500 500 b 294 660 353 500 294 551 l 294 936 z "},"Ш":{"ha":1268,"x_min":0,"x_max":0,"o":"m 93 936 l 93 0 l 1176 0 l 1176 936 l 969 936 l 969 174 l 738 174 l 738 936 l 531 936 l 531 174 l 300 174 l 300 936 z "},"Щ":{"ha":1297,"x_min":0,"x_max":0,"o":"m 93 936 l 93 0 l 1089 0 l 1100 -236 l 1260 -236 l 1269 161 l 1176 167 l 1176 936 l 969 936 l 969 174 l 738 174 l 738 936 l 531 936 l 531 174 l 300 174 l 300 936 z "},"Ъ":{"ha":981,"x_min":0,"x_max":0,"o":"m 17 936 l 17 764 l 254 764 l 254 4 b 482 -10 301 -3 379 -10 b 857 110 626 -10 767 18 b 932 313 903 157 932 224 b 576 618 932 515 760 618 b 464 611 535 618 490 614 l 464 936 z m 464 450 b 540 456 485 453 514 456 b 710 306 629 456 710 410 b 540 149 710 204 636 149 b 464 154 507 149 483 150 z "},"Ы":{"ha":1183,"x_min":0,"x_max":0,"o":"m 93 936 l 93 4 b 319 -10 140 -3 217 -10 b 703 110 456 -10 613 18 b 778 311 749 157 778 224 b 407 618 778 522 600 618 b 303 610 372 618 331 614 l 303 936 z m 303 450 b 376 456 324 453 349 456 b 556 306 457 456 556 413 b 374 149 556 203 467 149 b 303 154 346 149 319 150 z m 864 936 l 864 0 l 1075 0 l 1075 936 z "},"Ь":{"ha":838,"x_min":0,"x_max":0,"o":"m 93 936 l 93 4 b 322 -10 140 -3 217 -10 b 714 110 467 -10 624 18 b 789 314 760 157 789 224 b 417 618 789 522 618 618 b 303 610 378 618 332 614 l 303 936 z m 303 450 b 383 456 328 453 353 456 b 567 304 485 456 567 411 b 381 149 567 199 483 149 b 303 154 350 149 326 150 z "},"Э":{"ha":815,"x_min":0,"x_max":0,"o":"m 138 392 l 538 392 b 261 158 522 256 421 158 b 75 192 194 158 122 172 l 38 29 b 278 -15 86 7 181 -15 b 767 467 553 -15 767 151 b 299 951 767 726 626 951 b 49 899 197 951 106 924 l 90 742 b 282 781 138 761 207 781 b 539 557 438 781 525 682 l 138 557 z "},"Ю":{"ha":1279,"x_min":0,"x_max":0,"o":"m 92 936 l 92 0 l 303 0 l 303 393 l 410 393 b 811 -15 433 156 579 -15 b 1233 478 1061 -15 1233 169 b 825 951 1233 736 1089 951 b 415 571 606 951 453 796 l 303 571 l 303 936 z m 818 151 b 617 467 690 151 617 290 b 819 785 617 642 689 785 b 1019 471 950 785 1019 639 b 819 151 1019 289 949 151 z "},"Я":{"ha":833,"x_min":0,"x_max":0,"o":"m 236 0 b 269 79 251 29 260 51 b 381 332 297 156 321 276 b 481 368 406 356 439 368 l 532 368 l 532 0 l 742 0 l 742 922 b 474 943 674 935 576 943 b 167 869 351 943 239 924 b 69 671 108 825 69 757 b 267 443 69 536 163 463 l 267 439 b 189 392 236 428 210 411 b 58 106 118 324 96 213 b 11 0 46 67 31 31 z m 532 525 b 457 521 513 521 483 521 b 281 651 360 521 281 565 b 446 785 281 747 354 785 b 532 776 489 785 517 781 z "},"Ё":{"ha":742,"x_min":0,"x_max":0,"o":"m 649 568 l 304 568 l 304 763 l 669 763 l 669 936 l 93 936 l 93 0 l 689 0 l 689 174 l 304 174 l 304 396 l 649 396 z m 235 990 b 326 1085 288 990 326 1033 b 235 1181 326 1140 286 1181 b 139 1085 181 1181 139 1139 b 233 990 139 1033 181 990 z m 522 990 b 615 1085 576 990 615 1033 b 522 1181 615 1140 575 1181 b 428 1085 468 1181 428 1139 b 521 990 428 1033 467 990 z "},"Ђ":{"ha":1003,"x_min":0,"x_max":0,"o":"m 19 936 l 19 763 l 263 763 l 263 0 l 474 0 l 474 424 b 576 456 497 440 533 456 b 690 399 625 456 661 438 b 732 225 717 364 732 304 b 675 29 732 131 707 65 b 551 -37 642 -7 594 -26 l 583 -211 b 756 -139 635 -204 697 -183 b 954 239 885 -72 954 67 b 872 515 954 350 928 446 b 643 626 821 581 750 626 b 479 586 579 626 517 607 l 474 586 l 474 763 l 800 763 l 800 936 z "},"Ѓ":{"ha":679,"x_min":0,"x_max":0,"o":"m 93 936 l 93 0 l 304 0 l 304 763 l 658 763 l 658 936 z m 381 1157 l 264 986 l 433 986 l 603 1157 z "},"Є":{"ha":826,"x_min":0,"x_max":0,"o":"m 788 903 b 550 951 749 924 668 951 b 49 465 214 951 49 715 b 539 -15 49 171 232 -15 b 779 31 649 -15 738 10 l 747 190 b 571 158 700 171 628 158 b 278 390 401 158 292 253 l 701 390 l 701 556 l 276 556 b 560 781 297 681 392 781 b 744 743 636 781 703 763 z "},"Ѕ":{"ha":750,"x_min":0,"x_max":0,"o":"m 56 44 b 321 -14 108 15 214 -14 b 697 276 578 -14 697 119 b 456 556 697 408 621 494 b 282 688 333 601 282 628 b 418 778 282 735 326 778 b 613 733 508 778 576 751 l 660 903 b 421 950 604 929 528 950 b 67 669 201 950 67 829 b 325 392 67 533 169 447 b 482 261 438 353 482 319 b 333 160 482 200 431 160 b 99 218 243 160 154 189 z "},"І":{"ha":396,"x_min":0,"x_max":0,"o":"m 93 936 l 93 0 l 304 0 l 304 936 z "},"Ї":{"ha":396,"x_min":0,"x_max":0,"o":"m 93 936 l 93 0 l 304 0 l 304 936 z m 56 990 b 147 1085 108 990 147 1033 b 56 1181 147 1140 107 1181 b -40 1085 1 1181 -40 1139 b 54 990 -40 1033 1 990 z m 343 990 b 436 1085 397 990 436 1033 b 343 1181 436 1140 396 1181 b 249 1085 289 1181 249 1139 b 342 990 249 1033 288 990 z "},"Ј":{"ha":571,"x_min":0,"x_max":0,"o":"m 275 346 b 131 161 275 201 219 161 b 22 178 89 161 51 168 l -1 7 b 154 -15 40 -7 104 -15 b 486 344 358 -15 486 78 l 486 936 l 275 936 z "},"Љ":{"ha":1313,"x_min":0,"x_max":0,"o":"m 172 936 l 172 528 b 101 207 172 386 158 267 b -6 154 79 183 40 161 l 22 -15 b 207 31 94 -15 160 4 b 378 540 349 114 378 300 l 378 763 l 576 763 l 576 4 b 801 -10 624 -3 697 -10 b 1174 96 944 -10 1085 17 b 1264 310 1228 144 1264 218 b 897 610 1264 517 1088 610 b 786 603 860 610 817 607 l 786 936 z m 786 449 b 861 454 810 451 833 454 b 1044 306 960 454 1044 411 b 858 149 1044 203 957 149 b 786 153 832 149 811 149 z "},"Њ":{"ha":1325,"x_min":0,"x_max":0,"o":"m 93 936 l 93 0 l 304 0 l 304 410 l 589 410 l 589 4 b 815 -10 636 -3 710 -10 b 1186 96 960 -10 1097 17 b 1276 310 1240 144 1276 217 b 914 606 1276 513 1110 606 b 799 599 872 606 831 603 l 799 936 l 589 936 l 589 588 l 304 588 l 304 936 z m 799 444 b 876 450 822 447 844 450 b 1057 304 975 450 1057 408 b 874 149 1057 201 974 149 b 799 154 847 149 824 150 z "},"Ћ":{"ha":1014,"x_min":0,"x_max":0,"o":"m 21 936 l 21 763 l 263 763 l 263 0 l 474 0 l 474 417 b 597 458 506 442 550 458 b 685 424 636 458 665 446 b 718 307 710 397 718 357 l 718 0 l 929 0 l 929 335 b 860 557 929 429 907 506 b 676 629 818 603 757 629 b 478 574 601 629 525 603 l 474 574 l 474 763 l 786 763 l 786 936 z "},"Ќ":{"ha":840,"x_min":0,"x_max":0,"o":"m 93 936 l 93 0 l 301 0 l 301 392 l 342 392 b 531 206 456 392 499 311 b 603 0 553 136 571 64 l 831 0 b 722 294 786 93 756 194 b 508 519 683 407 629 490 l 835 936 l 578 936 l 321 546 l 301 546 l 301 936 z m 433 1150 l 317 979 l 486 979 l 656 1150 z "},"Ў":{"ha":817,"x_min":0,"x_max":0,"o":"m 4 938 l 319 288 b 322 243 326 272 329 260 b 196 157 304 201 261 157 b 125 164 164 157 143 160 l 111 -6 b 214 -21 138 -15 167 -21 b 463 103 325 -21 401 26 b 649 475 533 189 590 331 l 824 938 l 601 938 l 500 604 b 449 421 476 524 461 461 l 444 421 b 378 600 424 478 404 535 l 242 938 z m 206 1151 b 407 981 217 1035 286 981 b 618 1151 531 981 610 1033 l 475 1151 b 411 1067 471 1097 453 1067 b 349 1151 367 1067 351 1097 z "},"Џ":{"ha":936,"x_min":0,"x_max":0,"o":"m 93 936 l 93 0 l 371 0 l 382 -256 l 556 -256 l 567 0 l 844 0 l 844 936 l 633 936 l 633 174 l 304 174 l 304 936 z "},"а":{"ha":733,"x_min":0,"x_max":0,"o":"m 650 401 b 353 694 650 561 579 694 b 89 633 229 694 136 660 l 128 499 b 315 549 172 525 246 549 b 439 461 419 549 439 497 l 439 453 b 40 193 199 453 40 369 b 260 -15 40 85 122 -15 b 454 68 340 -15 410 14 l 458 68 l 471 0 l 661 0 b 650 164 653 38 650 100 z m 446 247 b 442 211 446 235 444 222 b 332 133 428 168 383 133 b 249 214 285 133 249 160 b 446 321 249 294 335 321 z "},"б":{"ha":801,"x_min":0,"x_max":0,"o":"m 683 1000 b 481 971 635 988 544 978 b 197 846 357 957 264 917 b 51 432 97 751 51 608 b 407 -17 51 174 169 -17 b 756 340 608 -17 756 121 b 454 679 756 544 638 679 b 231 551 354 679 272 625 l 224 551 b 297 719 229 604 257 676 b 511 808 343 772 413 799 b 671 833 561 813 632 822 z m 539 333 b 404 135 539 238 503 135 b 267 343 304 135 267 254 b 303 478 267 401 279 443 b 401 533 324 510 357 533 b 539 335 506 533 539 425 z "},"в":{"ha":767,"x_min":0,"x_max":0,"o":"m 83 3 b 321 -10 126 -3 226 -10 b 722 200 460 -10 722 7 b 554 365 722 293 656 349 l 554 369 b 693 515 622 382 693 428 b 357 689 693 675 472 689 b 83 671 251 689 135 679 z m 292 554 b 363 558 315 556 335 558 b 485 488 447 558 485 532 b 346 414 485 436 431 414 l 292 414 z m 290 292 l 350 292 b 506 206 450 292 506 265 b 361 118 506 139 433 118 b 290 121 329 118 313 118 z "},"г":{"ha":578,"x_min":0,"x_max":0,"o":"m 83 679 l 83 0 l 294 0 l 294 515 l 557 515 l 557 679 z "},"ґ":{"ha":599,"x_min":0,"x_max":0,"o":"m 83 679 l 83 0 l 294 0 l 294 515 l 563 515 l 574 843 l 428 843 l 408 679 z "},"д":{"ha":819,"x_min":0,"x_max":0,"o":"m 175 679 l 175 513 b 144 290 175 438 164 361 b 78 149 129 240 106 192 l 14 143 l 19 -219 l 179 -219 l 188 0 l 617 0 l 624 -219 l 783 -219 l 792 146 l 717 149 l 717 679 z m 358 525 l 511 525 l 511 153 l 286 153 b 333 269 306 189 324 229 b 358 446 349 328 358 389 z "},"е":{"ha":733,"x_min":0,"x_max":0,"o":"m 685 272 b 692 356 688 288 692 319 b 389 694 692 524 608 694 b 46 332 154 694 46 504 b 408 -14 46 119 178 -14 b 654 29 500 -14 585 0 l 626 172 b 439 143 569 153 511 143 b 247 272 340 143 254 185 z m 246 417 b 378 554 251 472 288 554 b 496 417 474 554 496 468 z "},"ж":{"ha":1024,"x_min":0,"x_max":0,"o":"m 1 679 l 238 385 b 81 213 161 372 110 299 b -3 0 53 138 29 64 l 206 0 b 265 156 225 35 240 85 b 393 271 293 232 332 271 l 410 271 l 410 0 l 614 0 l 614 271 l 631 271 b 756 156 686 271 729 231 b 814 0 778 88 794 33 l 1025 0 b 944 214 994 63 972 138 b 786 385 915 297 863 372 l 1022 679 l 789 679 l 635 407 l 614 407 l 614 679 l 410 679 l 410 407 l 388 407 l 235 679 z "},"з":{"ha":676,"x_min":0,"x_max":0,"o":"m 153 285 l 254 285 b 401 208 344 285 401 264 b 271 136 401 169 361 136 b 76 183 200 138 122 158 l 32 53 b 297 -12 104 10 201 -12 b 633 197 435 -12 633 31 b 457 356 633 299 542 346 l 457 361 b 603 510 524 376 603 422 b 329 692 603 649 453 692 b 53 622 235 692 133 671 l 93 500 b 265 547 142 528 206 547 b 381 481 340 547 381 519 b 253 414 381 443 339 414 l 151 414 z "},"и":{"ha":829,"x_min":0,"x_max":0,"o":"m 83 679 l 83 0 l 340 0 b 482 318 388 106 439 222 b 553 500 510 381 526 426 l 558 500 b 546 207 551 357 546 313 l 546 0 l 746 0 l 746 679 l 488 679 l 356 388 b 278 193 328 324 310 269 l 272 193 b 283 471 278 286 283 363 l 283 679 z "},"й":{"ha":829,"x_min":0,"x_max":0,"o":"m 83 679 l 83 0 l 340 0 b 482 318 388 106 439 222 b 553 500 510 381 526 426 l 558 500 b 546 207 551 357 546 313 l 546 0 l 746 0 l 746 679 l 488 679 l 356 388 b 278 193 328 324 310 269 l 272 193 b 283 471 278 286 283 363 l 283 679 z m 217 960 b 411 764 222 840 283 764 b 615 960 531 764 607 831 l 482 960 b 414 861 478 900 456 861 b 350 960 375 861 351 899 z "},"к":{"ha":736,"x_min":0,"x_max":0,"o":"m 85 679 l 85 0 l 296 0 l 296 269 l 317 269 b 457 150 385 269 428 228 b 518 0 483 78 500 29 l 739 0 b 657 200 706 64 681 144 b 486 386 618 299 567 372 l 736 679 l 490 679 l 318 408 l 296 408 l 296 679 z "},"л":{"ha":758,"x_min":0,"x_max":0,"o":"m 121 679 l 121 404 b 76 186 121 289 115 225 b 0 150 60 168 32 156 l 24 -14 b 221 53 118 -14 178 7 b 317 393 297 114 317 229 l 317 518 l 464 518 l 464 0 l 675 0 l 675 679 z "},"м":{"ha":997,"x_min":0,"x_max":0,"o":"m 61 0 l 250 0 l 261 268 b 268 506 264 325 265 421 l 274 506 b 329 281 289 442 311 346 l 410 11 l 564 11 l 654 288 b 719 510 689 397 693 419 l 724 510 b 731 272 725 429 729 331 l 742 0 l 938 0 l 896 679 l 629 679 l 554 438 b 500 251 535 372 513 299 l 496 251 b 451 422 482 313 463 382 l 378 679 l 108 679 z "},"н":{"ha":804,"x_min":0,"x_max":0,"o":"m 83 679 l 83 0 l 294 0 l 294 269 l 508 269 l 508 0 l 719 0 l 719 679 l 508 679 l 508 433 l 294 433 l 294 679 z "},"о":{"ha":801,"x_min":0,"x_max":0,"o":"m 399 -15 b 756 346 579 -15 756 99 b 410 694 756 551 617 694 b 46 335 190 694 46 554 b 397 -15 46 115 199 -15 z m 401 136 b 264 339 313 136 264 224 b 403 543 264 440 303 543 b 538 340 499 543 538 440 b 403 136 538 218 486 136 z "},"п":{"ha":800,"x_min":0,"x_max":0,"o":"m 83 679 l 83 0 l 294 0 l 294 517 l 503 517 l 503 0 l 714 0 l 714 679 z "},"р":{"ha":831,"x_min":0,"x_max":0,"o":"m 85 -275 l 296 -275 l 296 63 l 299 63 b 475 -15 329 18 393 -15 b 783 349 626 -15 783 101 b 501 694 783 565 650 694 b 275 585 403 694 325 656 l 272 585 l 263 679 l 79 679 b 85 451 82 615 85 540 z m 296 385 b 300 422 296 397 297 411 b 426 529 314 485 367 529 b 569 339 521 529 569 447 b 424 147 569 224 515 147 b 300 247 363 147 314 190 b 296 292 297 261 296 275 z "},"с":{"ha":626,"x_min":0,"x_max":0,"o":"m 569 174 b 449 151 538 160 499 151 b 263 342 346 151 263 217 b 444 531 261 451 333 531 b 563 510 500 531 538 521 l 596 667 b 435 693 551 683 490 693 b 46 333 182 693 46 531 b 406 -14 46 121 186 -14 b 594 18 486 -14 557 0 z "},"т":{"ha":640,"x_min":0,"x_max":0,"o":"m 18 679 l 18 517 l 215 517 l 215 0 l 426 0 l 426 517 l 624 517 l 624 679 z "},"у":{"ha":726,"x_min":0,"x_max":0,"o":"m 8 679 l 258 57 b 267 22 265 40 267 31 b 256 -8 267 14 263 3 b 168 -93 236 -42 200 -76 b 76 -129 136 -111 103 -124 l 121 -307 b 325 -214 175 -301 253 -278 b 564 232 401 -146 467 -39 l 722 679 l 496 679 l 413 346 b 382 218 403 306 392 256 l 378 218 b 344 344 369 254 356 306 l 243 679 z "},"ф":{"ha":1000,"x_min":0,"x_max":0,"o":"m 401 979 l 403 690 b 46 335 211 671 46 557 b 404 -12 46 118 214 1 l 401 -275 l 600 -275 l 597 -12 b 954 336 785 1 954 117 b 597 690 954 554 790 671 l 600 979 z m 404 125 b 254 340 303 149 254 231 b 404 554 254 444 301 529 z m 596 554 b 746 340 699 529 746 446 b 596 125 746 232 697 150 z "},"х":{"ha":721,"x_min":0,"x_max":0,"o":"m 10 679 l 235 347 l 4 0 l 236 0 l 300 122 b 351 226 317 156 335 189 l 356 226 b 408 122 371 190 389 156 l 476 0 l 715 0 l 489 356 l 713 679 l 483 679 l 424 569 b 371 464 406 535 389 501 l 368 464 b 313 565 350 497 332 531 l 246 679 z "},"ц":{"ha":818,"x_min":0,"x_max":0,"o":"m 83 679 l 83 0 l 617 0 l 624 -219 l 783 -219 l 792 146 l 717 149 l 717 679 l 506 679 l 506 161 l 294 161 l 294 679 z "},"ч":{"ha":775,"x_min":0,"x_max":0,"o":"m 76 679 l 76 447 b 307 203 76 286 161 203 b 478 246 371 203 436 219 l 481 246 l 481 -10 l 692 -10 l 692 679 l 481 679 l 481 382 b 389 353 461 367 424 353 b 288 467 315 353 288 392 l 288 679 z "},"ш":{"ha":1129,"x_min":0,"x_max":0,"o":"m 83 679 l 83 0 l 1046 0 l 1046 679 l 836 679 l 836 161 l 669 161 l 669 679 l 460 679 l 460 161 l 293 161 l 293 679 z "},"щ":{"ha":1147,"x_min":0,"x_max":0,"o":"m 83 679 l 83 0 l 946 0 l 953 -219 l 1113 -219 l 1121 146 l 1046 149 l 1046 679 l 836 679 l 836 161 l 669 161 l 669 679 l 460 679 l 460 161 l 293 161 l 293 679 z "},"ъ":{"ha":903,"x_min":0,"x_max":0,"o":"m 28 679 l 28 518 l 219 518 l 219 4 b 446 -8 290 -4 368 -8 b 767 67 549 -8 681 7 b 860 243 822 106 860 161 b 542 486 860 426 696 486 b 431 479 497 486 461 483 l 431 679 z m 429 336 b 493 343 449 340 468 343 b 650 236 563 343 650 325 b 501 135 650 160 572 135 b 429 139 467 135 447 136 z "},"ы":{"ha":1079,"x_min":0,"x_max":0,"o":"m 83 679 l 83 4 b 310 -8 154 -4 232 -8 b 617 67 411 -8 531 7 b 710 249 672 106 710 161 b 404 486 710 422 554 486 b 294 478 358 486 322 482 l 294 679 z m 293 336 b 365 343 313 340 333 343 b 500 242 431 343 500 318 b 357 135 500 163 428 135 b 293 138 332 135 311 136 z m 785 679 l 785 0 l 996 0 l 996 679 z "},"ь":{"ha":769,"x_min":0,"x_max":0,"o":"m 83 679 l 83 4 b 310 -8 154 -4 232 -8 b 633 67 413 -8 547 7 b 726 250 689 106 726 164 b 401 486 726 431 560 486 b 294 478 364 486 324 482 l 294 679 z m 293 338 b 361 343 313 340 333 343 b 517 240 426 343 517 324 b 364 135 517 158 433 135 b 293 139 332 135 311 136 z "},"э":{"ha":674,"x_min":0,"x_max":0,"o":"m 115 275 l 408 275 b 218 146 390 192 317 146 b 63 174 150 146 92 161 l 31 31 b 239 -15 88 1 163 -15 b 628 342 479 -15 628 126 b 517 611 628 464 582 551 b 268 694 451 668 360 694 b 40 644 192 694 104 678 l 79 510 b 231 540 117 525 165 540 b 413 408 340 540 399 488 l 115 408 z "},"ю":{"ha":1071,"x_min":0,"x_max":0,"o":"m 83 679 l 83 0 l 293 0 l 293 272 l 376 272 b 693 -15 400 92 528 -15 b 1025 347 867 -15 1025 107 b 703 694 1025 551 894 694 b 381 426 532 694 413 590 l 293 426 l 293 679 z m 696 135 b 576 339 614 135 576 228 b 697 543 576 442 611 543 b 814 340 779 543 814 444 b 697 135 814 225 776 135 z "},"я":{"ha":768,"x_min":0,"x_max":0,"o":"m 685 675 b 425 690 624 682 531 690 b 175 649 332 690 236 679 b 60 485 108 618 60 569 b 235 317 60 378 158 326 l 235 313 b 149 263 199 306 171 286 b 54 76 106 218 76 129 b 11 0 42 47 28 21 l 236 0 b 263 56 247 22 254 36 b 336 207 282 108 300 172 b 433 256 357 235 389 256 l 476 256 l 476 0 l 685 0 z m 476 386 b 407 383 458 385 440 383 b 278 472 344 383 278 413 b 404 560 278 533 336 560 b 476 554 438 560 458 557 z "},"ё":{"ha":733,"x_min":0,"x_max":0,"o":"m 685 272 b 692 356 688 288 692 319 b 389 694 692 524 608 694 b 46 332 154 694 46 504 b 408 -14 46 119 178 -14 b 654 29 500 -14 585 0 l 626 172 b 439 143 569 153 511 143 b 247 272 340 143 254 185 z m 246 417 b 378 554 251 472 288 554 b 496 417 474 554 496 468 z m 246 774 b 340 872 300 774 340 818 b 246 969 340 928 299 969 b 146 872 190 969 146 928 b 244 774 146 818 189 774 z m 538 774 b 633 872 593 774 633 818 b 538 969 633 928 592 969 b 439 872 481 969 439 928 b 535 774 439 818 481 774 z "},"ђ":{"ha":814,"x_min":0,"x_max":0,"o":"m 3 892 l 3 753 l 103 753 l 103 0 l 314 0 l 314 403 b 331 460 314 429 318 444 b 425 506 350 483 385 506 b 518 444 465 506 497 481 b 553 261 543 394 553 325 b 489 14 553 150 525 54 b 389 -39 456 -21 424 -32 l 428 -207 b 590 -147 474 -204 533 -183 b 764 278 703 -78 764 72 b 699 553 764 389 744 479 b 496 676 656 628 586 676 b 317 601 421 676 358 643 l 314 601 l 314 753 l 608 753 l 608 892 l 314 892 l 314 985 l 103 985 l 103 892 z "},"ѓ":{"ha":578,"x_min":0,"x_max":0,"o":"m 83 679 l 83 0 l 294 0 l 294 515 l 557 515 l 557 679 z m 333 975 l 214 764 l 358 764 l 528 975 z "},"є":{"ha":656,"x_min":0,"x_max":0,"o":"m 625 658 b 447 694 588 678 515 694 b 46 333 225 694 46 567 b 422 -15 46 119 192 -15 b 626 24 511 -15 588 4 l 596 168 b 458 143 564 156 511 143 b 269 275 357 143 286 189 l 549 275 l 549 408 l 265 408 b 451 540 281 488 349 540 b 588 513 510 540 558 526 z "},"ѕ":{"ha":603,"x_min":0,"x_max":0,"o":"m 46 35 b 265 -14 97 7 176 -14 b 558 207 460 -14 558 79 b 375 415 557 306 504 371 b 265 493 292 443 265 461 b 346 547 265 526 294 547 b 493 510 403 547 463 525 l 529 654 b 339 694 488 675 418 694 b 63 471 171 694 63 599 b 257 268 61 392 115 315 b 356 190 335 243 356 225 b 265 135 356 156 329 135 b 83 185 203 135 122 161 z "},"і":{"ha":381,"x_min":0,"x_max":0,"o":"m 296 0 l 296 679 l 85 679 l 85 0 z m 190 763 b 303 868 260 763 303 810 b 192 974 301 928 260 974 b 79 868 124 974 79 928 b 189 763 79 810 122 763 z "},"ї":{"ha":381,"x_min":0,"x_max":0,"o":"m 296 0 l 296 679 l 85 679 l 85 0 z m 46 774 b 140 872 100 774 140 818 b 46 969 140 928 99 969 b -54 872 -10 969 -54 928 b 44 774 -54 818 -11 774 z m 338 774 b 433 872 393 774 433 818 b 338 969 433 928 392 969 b 239 872 281 969 239 928 b 335 774 239 818 281 774 z "},"ј":{"ha":404,"x_min":0,"x_max":0,"o":"m -33 -299 b 228 -215 67 -299 165 -272 b 324 82 292 -157 324 -67 l 324 679 l 113 679 l 113 132 b 71 -89 113 -3 101 -57 b -54 -133 44 -117 0 -129 z m 217 763 b 329 868 286 763 329 810 b 218 974 328 928 286 974 b 106 868 150 974 106 928 b 215 763 106 810 149 763 z "},"љ":{"ha":1144,"x_min":0,"x_max":0,"o":"m 124 679 l 124 404 b 76 185 124 299 118 222 b 1 150 60 169 33 156 l 24 -15 b 221 53 118 -15 178 7 b 318 393 296 114 318 228 l 318 518 l 464 518 l 464 4 b 693 -8 535 -4 619 -8 b 1017 69 793 -8 931 4 b 1101 240 1067 106 1101 160 b 781 482 1101 419 938 482 b 675 475 746 482 704 479 l 675 679 z m 674 335 b 750 340 696 338 722 340 b 892 238 813 340 892 318 b 743 135 892 157 810 135 b 674 138 713 135 692 136 z "},"њ":{"ha":1167,"x_min":0,"x_max":0,"o":"m 83 679 l 83 0 l 294 0 l 294 294 l 488 294 l 488 4 b 717 -8 558 -4 643 -8 b 1038 68 817 -8 951 4 b 1122 239 1086 106 1122 158 b 806 481 1122 414 961 481 b 699 472 769 481 728 476 l 699 679 l 488 679 l 488 450 l 294 450 l 294 679 z m 697 333 b 768 339 718 336 740 339 b 913 236 836 339 913 318 b 767 135 913 158 833 135 b 697 139 735 135 715 136 z "},"ћ":{"ha":831,"x_min":0,"x_max":0,"o":"m 3 892 l 3 753 l 103 753 l 103 0 l 314 0 l 314 383 b 321 431 314 400 315 418 b 426 506 336 468 369 506 b 536 356 506 506 536 444 l 536 0 l 747 0 l 747 381 b 510 676 747 569 660 676 b 399 649 469 676 431 665 b 317 581 367 632 339 610 l 314 581 l 314 753 l 590 753 l 590 892 l 314 892 l 314 988 l 103 988 l 103 892 z "},"ќ":{"ha":736,"x_min":0,"x_max":0,"o":"m 85 679 l 85 0 l 296 0 l 296 269 l 317 269 b 457 150 385 269 428 228 b 518 0 483 78 500 29 l 739 0 b 657 200 706 64 681 144 b 486 386 618 299 567 372 l 736 679 l 490 679 l 318 408 l 296 408 l 296 679 z m 392 975 l 272 764 l 417 764 l 586 975 z "},"ў":{"ha":726,"x_min":0,"x_max":0,"o":"m 8 679 l 258 57 b 267 22 265 40 267 31 b 256 -8 267 14 263 3 b 168 -93 236 -42 200 -76 b 76 -129 136 -111 103 -124 l 121 -307 b 325 -214 175 -301 253 -278 b 564 232 401 -146 467 -39 l 722 679 l 496 679 l 413 346 b 382 218 403 306 392 256 l 378 218 b 344 344 369 254 356 306 l 243 679 z m 165 960 b 360 764 171 840 232 764 b 564 960 479 764 556 831 l 431 960 b 363 861 426 900 404 861 b 299 960 324 861 300 899 z "},"џ":{"ha":800,"x_min":0,"x_max":0,"o":"m 83 679 l 83 0 l 303 0 l 315 -229 l 485 -229 l 496 0 l 717 0 l 717 679 l 506 679 l 506 161 l 294 161 l 294 679 z "},"ә":{"ha":733,"x_min":0,"x_max":0,"o":"m 106 506 b 297 538 171 528 229 538 b 485 407 406 538 478 496 l 49 407 b 40 325 44 392 40 360 b 346 -14 40 157 124 -14 b 686 349 579 -14 686 176 b 326 694 686 560 554 694 b 78 646 236 694 150 676 z m 486 263 b 358 126 481 208 449 126 b 236 263 261 126 236 213 z "},"€":{"ha":771,"x_min":0,"x_max":0,"o":"m 697 192 b 539 156 668 176 603 156 b 360 226 469 156 404 176 b 314 324 339 250 324 282 l 663 324 l 663 422 l 294 422 b 294 444 294 429 294 436 b 296 488 294 460 294 474 l 663 488 l 663 586 l 317 586 b 361 676 326 622 342 654 b 532 751 404 728 465 751 b 686 718 593 751 650 733 l 725 876 b 517 918 675 899 601 918 b 196 775 386 918 275 865 b 100 586 151 725 118 661 l 7 586 l 7 488 l 85 488 b 83 446 85 474 83 460 b 83 422 83 438 83 429 l 8 422 l 8 324 l 97 324 b 175 143 111 250 138 190 b 514 -15 253 40 378 -15 b 731 38 603 -15 683 11 z "},"ℓ":{"ha":771,"x_min":0,"x_max":0,"o":"m 353 679 b 419 850 353 808 383 850 b 475 751 453 850 475 817 b 353 490 475 669 431 575 z m 633 267 b 463 158 596 218 538 158 b 353 285 397 158 353 199 l 353 303 b 632 754 536 460 632 590 b 414 989 632 897 547 989 b 153 650 263 989 153 885 l 153 343 b 36 260 115 315 74 286 l 90 149 b 157 192 113 164 135 176 b 158 183 158 190 158 188 b 411 -15 189 53 272 -15 b 729 174 531 -15 649 36 z "},"№":{"ha":1346,"x_min":0,"x_max":0,"o":"m 1069 883 b 822 635 924 883 822 788 b 1065 393 822 482 926 393 b 1310 643 1197 393 1310 468 b 1071 883 1310 783 1218 883 z m 1067 779 b 1147 639 1122 779 1147 708 b 1067 497 1147 557 1121 497 b 986 636 1019 497 986 557 b 1065 779 986 699 1010 779 z m 1272 235 l 1272 339 l 863 339 l 863 235 z m 272 0 l 272 258 b 264 657 272 413 268 543 l 267 657 b 388 346 306 556 346 440 l 543 0 l 756 0 l 756 904 l 574 904 l 574 653 b 589 267 574 510 579 382 l 588 267 b 468 569 551 364 508 476 l 319 904 l 90 904 l 90 0 z "},"℮":{"ha":1135,"x_min":0,"x_max":0,"o":"m 1086 439 b 1086 451 1086 443 1086 447 b 568 918 1086 710 854 918 b 49 451 282 918 49 710 b 568 -15 49 193 282 -15 b 979 167 735 -15 885 57 l 903 167 b 569 13 822 72 703 13 b 251 150 444 13 331 65 b 239 179 244 158 239 168 l 239 433 b 246 439 239 438 242 439 z m 897 472 b 890 465 897 468 894 465 l 246 465 b 239 472 242 465 239 468 l 239 722 b 253 754 239 735 244 746 b 569 890 333 838 444 890 b 883 758 692 890 803 839 b 897 728 892 750 897 740 z "},"∂":{"ha":796,"x_min":0,"x_max":0,"o":"m 126 794 b 311 846 157 814 219 846 b 544 557 453 846 544 724 b 544 533 544 550 544 540 l 543 533 b 339 638 515 576 447 638 b 32 294 153 638 32 486 b 338 -15 32 154 128 -15 b 753 517 561 -15 753 168 b 339 1017 753 825 572 1017 b 65 938 199 1017 107 964 z m 360 154 b 243 293 293 154 243 204 b 388 475 243 394 303 475 b 524 374 463 475 511 418 b 361 154 511 263 447 154 z "},"∆":{"ha":876,"x_min":0,"x_max":0,"o":"m 818 0 l 818 107 l 568 906 l 315 906 l 57 106 l 57 0 z m 592 172 l 269 172 l 375 525 b 426 735 393 588 417 689 l 432 735 b 488 513 444 676 471 575 z "},"∏":{"ha":921,"x_min":0,"x_max":0,"o":"m 904 729 l 904 903 l 14 903 l 14 729 l 143 729 l 143 -125 l 339 -125 l 339 729 l 579 729 l 579 -125 l 775 -125 l 775 729 z "},"∑":{"ha":754,"x_min":0,"x_max":0,"o":"m 749 -125 l 749 49 l 290 49 l 290 54 l 550 393 l 304 724 l 304 729 l 711 729 l 711 903 l 36 903 l 36 765 l 322 385 l 21 -6 l 21 -125 z "},"√":{"ha":818,"x_min":0,"x_max":0,"o":"m 850 1167 l 708 1167 l 481 204 b 456 86 469 160 461 115 l 454 86 b 421 200 446 118 435 160 l 272 613 l 28 513 l 63 418 l 171 461 l 392 -110 l 533 -110 z "},"∞":{"ha":1044,"x_min":0,"x_max":0,"o":"m 771 135 b 1006 367 913 135 1006 243 b 782 599 1006 499 915 599 b 522 456 663 599 594 524 b 272 599 454 522 375 599 b 38 367 131 599 38 490 b 261 135 38 235 128 135 b 521 278 381 135 449 210 b 769 135 589 211 668 135 z m 768 263 b 607 368 703 263 650 326 b 772 471 656 415 708 471 b 869 367 826 471 869 428 b 769 263 869 310 825 263 z m 271 263 b 174 367 217 263 174 306 b 275 471 174 424 218 471 b 436 365 340 471 393 407 b 272 263 388 318 335 263 z "},"∫":{"ha":497,"x_min":0,"x_max":0,"o":"m 486 1113 b 407 1122 471 1117 439 1122 b 250 1060 347 1122 290 1103 b 165 763 193 997 165 914 b 186 126 165 540 186 365 b 151 -61 186 18 171 -35 b 92 -92 135 -82 115 -92 b 38 -83 71 -92 51 -89 l 14 -212 b 113 -229 35 -222 74 -229 b 296 -124 185 -229 256 -199 b 343 132 325 -72 343 17 b 322 750 343 367 322 539 b 351 956 322 863 332 924 b 418 993 365 979 390 993 b 467 986 436 993 453 990 z "},"≈":{"ha":828,"x_min":0,"x_max":0,"o":"m 722 604 b 574 517 694 572 643 517 b 424 564 510 517 465 546 b 254 614 379 583 331 614 b 26 483 154 614 75 551 l 97 396 b 253 485 132 438 185 485 b 404 438 318 485 363 456 b 575 388 449 418 501 388 b 800 522 671 388 753 446 z m 728 308 b 575 221 697 268 644 221 b 425 268 511 221 467 250 b 254 318 381 288 331 318 b 29 189 161 318 76 260 l 99 101 b 251 189 133 142 189 189 b 406 142 319 189 364 160 b 575 92 450 122 503 92 b 803 231 671 92 754 150 z "},"≠":{"ha":828,"x_min":0,"x_max":0,"o":"m 772 160 l 772 289 l 425 289 l 531 454 l 772 454 l 772 583 l 614 583 l 703 724 l 568 724 l 482 583 l 56 583 l 56 454 l 399 454 l 294 289 l 56 289 l 56 160 l 211 160 l 121 19 l 257 19 l 343 160 z "},"≤":{"ha":828,"x_min":0,"x_max":0,"o":"m 747 163 l 747 304 l 260 469 l 260 472 l 746 639 l 746 779 l 81 535 l 81 408 z m 746 0 l 746 121 l 82 121 l 82 0 z "},"≥":{"ha":828,"x_min":0,"x_max":0,"o":"m 747 408 l 747 535 l 82 779 l 82 639 l 568 472 l 568 469 l 82 304 l 82 163 z m 746 0 l 746 121 l 82 121 l 82 0 z "},"◊":{"ha":797,"x_min":0,"x_max":0,"o":"m 742 451 l 476 954 l 321 954 l 56 451 l 321 -53 l 476 -53 z m 572 446 l 421 140 b 401 99 415 128 407 110 l 399 99 b 381 140 396 110 386 128 l 224 454 l 375 761 b 394 803 382 772 389 790 l 397 803 b 417 761 401 790 410 772 z "},"":{"ha":417,"x_min":0,"x_max":0,"o":"m 211 990 b 304 1085 264 990 304 1035 b 211 1181 304 1139 264 1181 b 114 1085 157 1181 114 1139 b 210 990 114 1035 156 990 z "},"":{"ha":417,"x_min":0,"x_max":0,"o":"m 13 1178 b 207 1003 15 1076 71 1003 b 403 1178 340 1003 400 1076 l 294 1178 b 207 1114 288 1144 265 1114 b 125 1178 149 1114 129 1147 z "},"":{"ha":417,"x_min":0,"x_max":0,"o":"m 114 1 b 60 -157 96 -24 60 -92 b 215 -304 60 -256 119 -304 b 357 -261 261 -304 319 -290 l 328 -162 b 265 -174 314 -167 292 -174 b 192 -100 219 -174 192 -142 b 226 1 192 -61 214 -22 z "},"":{"ha":417,"x_min":0,"x_max":0,"o":"m 171 6 l 113 -124 b 222 -176 190 -132 222 -147 b 172 -210 222 -200 200 -210 b 94 -190 147 -210 115 -201 l 67 -276 b 186 -303 99 -294 143 -303 b 351 -175 265 -303 351 -271 b 250 -62 351 -110 303 -75 l 283 6 z "},"":{"ha":556,"x_min":0,"x_max":0,"o":"m 279 1240 b 119 1103 176 1240 119 1178 b 279 969 119 1029 179 969 b 438 1104 378 969 438 1029 b 281 1240 438 1179 385 1240 z m 278 1169 b 339 1104 317 1169 339 1138 b 278 1040 339 1068 317 1040 b 217 1103 239 1040 217 1071 b 276 1169 217 1138 238 1169 z "},"":{"ha":417,"x_min":0,"x_max":0,"o":"m 111 993 b 144 1053 114 1033 126 1053 b 204 1028 164 1053 179 1042 b 294 1001 229 1014 257 1001 b 403 1175 367 1001 406 1050 l 308 1175 b 271 1115 303 1128 294 1115 b 210 1142 253 1115 233 1128 b 121 1169 185 1157 158 1169 b 14 993 54 1169 11 1110 z "},"":{"ha":417,"x_min":0,"x_max":0,"o":"m 129 1157 l -10 986 l 138 986 l 207 1072 l 210 1072 l 279 986 l 428 986 l 288 1157 z "},"":{"ha":417,"x_min":0,"x_max":0,"o":"m 221 1157 l 104 986 l 274 986 l 443 1157 z "},"":{"ha":417,"x_min":0,"x_max":0,"o":"m 288 986 l 426 1157 l 279 1157 l 210 1071 l 207 1071 l 138 1157 l -11 1157 l 129 986 z "},"":{"ha":417,"x_min":0,"x_max":0,"o":"m 65 990 b 157 1085 118 990 157 1033 b 65 1181 157 1140 117 1181 b -31 1085 11 1181 -31 1139 b 64 990 -31 1033 11 990 z m 353 990 b 446 1085 407 990 446 1033 b 353 1181 446 1140 406 1181 b 258 1085 299 1181 258 1139 b 351 990 258 1033 297 990 z "},"":{"ha":417,"x_min":0,"x_max":0,"o":"m -36 990 b 51 1079 14 990 51 1031 b -35 1169 51 1131 14 1169 b -126 1079 -86 1169 -126 1131 b -37 990 -126 1032 -87 990 z m 457 990 b 546 1079 507 990 546 1029 b 458 1169 546 1131 508 1169 b 368 1079 407 1169 368 1131 b 456 990 368 1032 407 990 z m 158 1163 l 51 989 l 204 989 l 365 1163 z "},"":{"ha":417,"x_min":0,"x_max":0,"o":"m -36 990 b 51 1079 14 990 51 1031 b -35 1169 51 1131 14 1169 b -126 1079 -86 1169 -126 1131 b -37 990 -126 1032 -87 990 z m 457 990 b 546 1079 507 990 546 1029 b 458 1169 546 1131 508 1169 b 368 1079 407 1169 368 1131 b 456 990 368 1032 407 990 z m 51 1163 l 213 989 l 367 989 l 258 1163 z "},"":{"ha":417,"x_min":0,"x_max":0,"o":"m -19 1158 l 150 989 l 319 989 l 203 1158 z "},"":{"ha":417,"x_min":0,"x_max":0,"o":"m 100 1158 l 10 997 l 156 997 l 296 1158 z m 353 1158 l 263 997 l 407 997 l 549 1158 z "},"":{"ha":417,"x_min":0,"x_max":0,"o":"m 29 1132 l 29 1019 l 389 1019 l 389 1132 z "},"":{"ha":417,"x_min":0,"x_max":0,"o":"m 3 1174 b 204 1003 14 1057 83 1003 b 415 1174 328 1003 407 1056 l 272 1174 b 208 1089 268 1119 250 1089 b 146 1174 164 1089 149 1119 z "},"":{"ha":417,"x_min":0,"x_max":0,"o":"m 415 1003 b 214 1172 408 1114 336 1172 b 3 1003 90 1172 13 1118 l 146 1001 b 211 1086 151 1053 168 1086 b 272 1001 256 1086 271 1053 z "},"":{"ha":417,"x_min":0,"x_max":0,"o":"m -128 1161 l 43 988 l 194 988 l 82 1161 z m 176 1161 l 346 988 l 499 988 l 385 1161 z "},"":{"ha":417,"x_min":0,"x_max":0,"o":"m 10 960 b 204 764 15 840 76 764 b 408 960 324 764 400 831 l 275 960 b 207 861 271 900 249 861 b 143 960 168 861 144 899 z "},"":{"ha":417,"x_min":0,"x_max":0,"o":"m 138 778 b 206 876 142 838 164 876 b 269 778 244 876 268 839 l 403 778 b 208 974 397 899 336 974 b 4 778 89 974 13 908 z "},"":{"ha":417,"x_min":0,"x_max":0,"o":"m -43 972 l 94 764 l 213 764 l 124 972 z m 203 972 l 340 764 l 458 764 l 369 972 z "},"":{"ha":418,"x_min":0,"x_max":0,"o":"m -6 778 b 83 869 46 778 83 818 b -4 961 83 922 46 961 b -97 869 -57 961 -97 922 b -7 778 -97 819 -58 778 z m 422 778 b 513 869 474 778 513 818 b 424 961 513 922 475 961 b 332 869 371 961 332 922 b 421 778 332 819 369 778 z m 171 985 l 92 774 l 218 774 l 350 985 z "},"":{"ha":418,"x_min":0,"x_max":0,"o":"m -4 778 b 85 869 47 778 85 818 b -3 961 85 922 47 961 b -96 869 -56 961 -96 922 b -6 778 -96 819 -57 778 z m 422 778 b 513 869 474 778 513 818 b 424 961 513 922 475 961 b 332 869 371 961 332 922 b 421 778 332 819 369 778 z m 68 985 l 200 774 l 328 774 l 249 985 z "},"":{"ha":417,"x_min":0,"x_max":0,"o":"m 114 -335 b 333 -164 235 -331 333 -279 b 279 -54 333 -114 307 -75 l 133 -78 b 174 -161 151 -99 174 -129 b 82 -246 174 -208 128 -236 z "},"":{"ha":771,"x_min":0,"x_max":0,"o":"m 258 333 b 246 453 249 374 246 413 b 386 758 246 649 300 758 b 478 701 431 758 461 736 z m 515 575 b 525 453 522 531 525 493 b 385 144 525 247 471 144 b 293 200 343 144 315 163 z m 721 889 l 639 946 l 581 854 b 389 918 532 896 468 918 b 46 450 156 918 46 717 b 122 129 46 326 71 210 l 53 28 l 133 -32 l 188 53 b 385 -15 239 10 304 -15 b 725 456 613 -15 725 176 b 647 779 725 578 703 694 z "},"":{"ha":771,"x_min":0,"x_max":0,"o":"m 385 -15 b 725 456 613 -15 725 178 b 389 918 725 703 629 918 b 46 450 156 918 46 713 b 383 -15 47 194 150 -15 z m 386 144 b 257 453 306 144 256 244 b 386 758 257 657 307 758 b 514 453 471 758 514 653 b 388 144 514 247 469 144 z "},"":{"ha":529,"x_min":0,"x_max":0,"o":"m 217 0 l 421 0 l 421 903 l 247 903 l 7 792 l 42 633 l 214 715 l 217 715 z "},"":{"ha":685,"x_min":0,"x_max":0,"o":"m 646 0 l 646 174 l 304 174 l 304 176 l 388 246 b 628 635 519 363 628 483 b 311 918 628 799 517 918 b 17 825 190 918 83 876 l 76 675 b 269 749 124 710 192 749 b 417 617 374 749 417 690 b 121 232 415 511 319 410 l 6 128 l 6 0 z "},"":{"ha":692,"x_min":0,"x_max":0,"o":"m 10 47 b 278 -15 63 15 161 -15 b 647 260 507 -15 647 101 b 451 481 647 379 560 461 l 451 483 b 617 693 563 521 617 597 b 318 918 617 817 510 918 b 39 850 200 918 93 885 l 82 697 b 269 751 118 719 196 751 b 403 657 360 751 403 711 b 243 553 403 581 314 553 l 161 553 l 161 401 l 247 401 b 428 271 339 401 428 361 b 263 151 428 204 372 151 b 53 207 176 151 90 186 z "},"":{"ha":758,"x_min":0,"x_max":0,"o":"m 622 0 l 622 215 l 729 215 l 729 374 l 622 374 l 622 903 l 363 903 l 22 353 l 22 215 l 422 215 l 422 0 z m 218 374 l 219 376 l 339 574 b 424 742 369 631 394 683 l 428 742 b 422 574 425 683 422 628 l 422 374 z "},"":{"ha":703,"x_min":0,"x_max":0,"o":"m 618 903 l 121 903 l 63 429 b 183 438 99 435 133 438 b 438 288 364 438 438 381 b 257 150 438 192 344 150 b 54 194 175 150 93 175 l 15 36 b 267 -15 65 10 157 -15 b 654 301 510 -15 654 133 b 544 528 654 407 613 482 b 307 593 482 574 393 593 b 249 590 285 593 268 592 l 268 729 l 618 729 z "},"":{"ha":772,"x_min":0,"x_max":0,"o":"m 636 915 b 551 914 617 917 590 918 b 204 782 411 907 293 864 b 43 379 106 690 43 549 b 403 -15 43 164 161 -15 b 735 311 597 -15 735 132 b 456 606 735 499 607 606 b 264 535 372 606 308 579 l 260 535 b 554 750 283 639 367 736 b 636 753 588 753 613 754 z m 399 140 b 253 322 303 140 257 226 b 263 376 253 347 256 364 b 386 456 282 421 329 456 b 521 300 476 456 521 383 b 400 140 521 208 474 140 z "},"":{"ha":643,"x_min":0,"x_max":0,"o":"m 6 903 l 6 729 l 419 729 l 419 726 l 47 0 l 271 0 l 643 771 l 643 903 z "},"":{"ha":771,"x_min":0,"x_max":0,"o":"m 392 918 b 75 664 213 918 75 817 b 206 465 75 585 118 511 l 206 463 b 44 236 107 419 44 344 b 379 -15 44 114 150 -15 b 726 260 589 -15 726 96 b 560 483 726 375 649 450 l 560 488 b 692 686 650 532 692 608 b 393 918 692 796 604 918 z m 386 131 b 260 257 308 131 258 192 b 369 392 260 322 300 372 b 511 243 451 369 511 322 b 388 131 511 179 461 131 z m 385 775 b 493 663 461 775 493 719 b 401 549 493 607 450 563 b 275 671 329 571 275 610 b 383 775 275 726 311 775 z "},"":{"ha":772,"x_min":0,"x_max":0,"o":"m 124 -12 b 219 -12 147 -14 185 -15 b 567 114 361 -7 481 35 b 724 529 664 204 724 340 b 382 918 724 740 614 918 b 42 593 183 918 42 769 b 322 311 42 417 169 311 b 506 376 406 311 464 335 l 508 375 b 394 208 493 307 454 247 b 215 153 346 175 281 156 b 124 153 174 150 151 149 z m 376 764 b 508 574 472 764 510 669 b 499 519 508 547 506 533 b 379 461 478 488 439 461 b 251 606 294 461 251 528 b 375 764 251 700 304 764 z "},"":{"ha":1238,"x_min":0,"x_max":0,"o":"m 281 856 b 28 572 126 856 28 733 b 274 300 28 403 136 300 b 524 586 404 300 524 400 b 282 856 524 742 436 856 z m 276 740 b 367 578 342 740 367 669 b 278 415 367 475 338 415 b 185 576 217 415 183 482 b 275 740 185 668 213 740 z m 433 -15 l 918 857 l 806 857 l 319 -15 z m 967 543 b 714 261 813 543 714 421 b 960 -12 714 90 822 -12 b 1210 276 1090 -12 1210 88 b 968 543 1210 429 1122 543 z m 963 428 b 1053 267 1028 428 1053 358 b 964 103 1053 164 1024 103 b 871 265 903 103 869 171 b 961 428 871 357 899 428 z "},"":{"ha":779,"x_min":0,"x_max":0,"o":"m 390 -15 b 736 339 614 -15 736 147 b 390 694 736 532 613 694 b 44 339 167 694 44 532 b 389 -15 44 146 167 -15 z m 390 139 b 246 339 300 139 246 215 b 390 540 246 464 300 540 b 535 339 481 540 535 464 b 392 139 535 215 481 139 z "},"":{"ha":779,"x_min":0,"x_max":0,"o":"m 574 0 l 574 679 l 404 679 l 99 561 l 126 406 l 367 501 l 369 501 l 369 0 z "},"":{"ha":779,"x_min":0,"x_max":0,"o":"m 679 0 l 679 163 l 526 163 b 381 150 493 163 429 158 l 381 154 l 439 192 b 633 469 539 258 633 349 b 360 697 633 608 529 697 b 88 617 235 697 135 650 l 135 483 b 299 532 179 508 240 532 b 421 429 375 532 421 497 b 168 168 421 349 343 278 l 85 114 l 85 0 z "},"":{"ha":779,"x_min":0,"x_max":0,"o":"m 82 -143 b 289 -175 121 -160 197 -175 b 665 99 486 -175 665 -72 b 467 297 665 214 575 281 l 467 300 b 633 490 560 322 633 399 b 354 694 633 617 518 694 b 93 625 254 694 151 665 l 129 486 b 304 532 171 507 240 532 b 422 453 379 532 422 504 b 236 354 422 392 339 361 l 197 351 l 199 204 b 274 207 219 206 247 207 b 447 103 381 207 447 167 b 267 -14 447 26 372 -14 b 104 10 201 -14 142 -4 z "},"":{"ha":779,"x_min":0,"x_max":0,"o":"m 739 43 l 739 197 l 631 197 l 631 682 l 372 682 l 40 179 l 40 43 l 435 43 l 435 -174 l 631 -174 l 631 43 z m 435 197 l 235 197 l 232 203 l 347 372 b 433 532 378 421 408 481 l 439 532 b 435 376 435 482 435 428 z "},"":{"ha":779,"x_min":0,"x_max":0,"o":"m 97 -147 b 288 -175 136 -161 211 -175 b 667 122 533 -175 667 -44 b 601 288 667 192 643 246 b 311 376 536 350 431 375 l 336 508 l 629 508 l 653 679 l 200 679 l 125 232 b 421 181 304 236 382 218 b 450 108 440 161 450 136 b 268 -18 450 26 367 -18 b 121 0 211 -18 151 -10 z "},"":{"ha":779,"x_min":0,"x_max":0,"o":"m 654 856 b 58 344 278 851 58 638 b 397 -15 58 131 186 -15 b 729 297 576 -15 729 115 b 460 567 729 468 610 567 b 290 501 381 567 321 533 l 288 501 b 667 706 314 600 422 697 z m 400 140 b 267 307 315 140 267 208 b 289 379 267 335 272 361 b 397 429 313 407 349 429 b 519 286 469 429 519 371 b 401 140 519 188 458 140 z "},"":{"ha":779,"x_min":0,"x_max":0,"o":"m 683 679 l 82 679 l 82 507 l 467 507 l 467 504 b 104 -147 390 315 224 28 l 307 -172 b 683 551 447 43 603 344 z "},"":{"ha":779,"x_min":0,"x_max":0,"o":"m 565 457 b 693 639 636 492 693 550 b 396 857 693 750 594 857 b 81 615 204 857 81 757 b 206 440 81 536 129 478 l 206 435 b 50 226 113 393 50 321 b 381 -15 50 85 182 -15 b 726 247 582 -15 726 90 b 565 450 726 350 650 415 z m 396 726 b 503 622 453 726 503 690 b 414 510 503 568 463 526 b 286 628 335 532 286 576 b 394 726 286 683 328 726 z m 386 126 b 261 244 311 126 261 178 b 365 372 261 303 300 351 b 508 233 450 350 508 300 b 388 126 508 171 457 126 z "},"":{"ha":779,"x_min":0,"x_max":0,"o":"m 118 -167 b 719 346 440 -168 719 -12 b 389 703 719 553 592 703 b 50 390 199 703 50 571 b 315 122 50 233 163 122 b 489 188 394 122 460 154 l 492 186 b 106 -18 453 68 338 -10 z m 383 261 b 260 401 314 261 260 311 b 383 544 260 494 318 544 b 510 390 457 544 510 479 b 494 322 510 361 504 336 b 385 261 474 288 428 261 z "},"":{"ha":779,"x_min":0,"x_max":0,"o":"m 690 171 b 543 140 660 156 600 140 b 394 193 483 140 433 156 b 363 246 381 207 369 225 l 650 246 l 650 340 l 338 340 b 336 374 336 354 336 364 b 338 406 336 381 336 393 l 650 406 l 650 499 l 361 499 b 397 557 368 521 381 542 b 540 611 435 594 486 611 b 668 585 599 611 643 597 l 708 726 b 525 763 674 742 610 763 b 242 654 415 763 313 725 b 153 499 201 613 168 560 l 60 499 l 60 406 l 136 406 b 135 371 135 393 135 379 b 136 340 135 364 136 354 l 60 340 l 60 246 l 151 246 b 239 88 168 183 199 129 b 507 -15 306 21 401 -15 b 711 31 593 -15 671 7 z "},"":{"ha":779,"x_min":0,"x_max":0,"o":"m 168 361 l 276 361 l 257 181 b 144 -18 236 22 213 -17 b 79 -6 121 -17 99 -14 l 49 -153 b 175 -176 71 -164 118 -176 b 451 128 372 -178 429 -43 l 481 361 l 639 361 l 639 486 l 494 486 l 506 572 b 617 697 515 647 549 697 b 682 685 643 697 665 692 l 715 835 b 601 857 692 847 647 857 b 300 557 361 857 310 649 l 292 486 l 168 486 z "},"":{"ha":779,"x_min":0,"x_max":0,"o":"m 319 336 l 342 493 l 468 493 l 447 336 z m 268 -11 l 299 208 l 425 208 l 393 -11 l 518 -11 l 549 208 l 685 208 l 685 336 l 571 336 l 592 493 l 724 493 l 724 621 l 613 621 l 643 833 l 519 833 l 489 621 l 361 621 l 392 833 l 268 833 l 238 621 l 101 621 l 101 493 l 218 493 l 196 336 l 61 336 l 61 208 l 175 208 l 143 -11 z "},"":{"ha":779,"x_min":0,"x_max":0,"o":"m 715 0 l 715 165 l 343 165 l 343 168 b 418 299 375 192 413 235 b 418 319 418 306 418 313 l 597 319 l 597 435 l 397 435 b 392 494 393 453 392 474 b 521 628 392 572 433 628 b 639 603 567 628 611 618 l 672 756 b 510 790 640 774 578 790 b 196 500 308 790 196 660 b 203 435 196 478 199 456 l 99 435 l 99 319 l 226 319 b 229 281 228 307 229 294 b 82 113 229 204 167 144 l 82 0 z "},"":{"ha":779,"x_min":0,"x_max":0,"o":"m 483 0 l 483 146 l 694 146 l 694 244 l 483 244 l 483 317 l 694 317 l 694 415 l 533 415 l 746 747 l 533 747 l 451 575 b 392 435 429 524 411 481 l 390 435 b 332 574 372 482 356 519 l 253 747 l 35 747 l 239 415 l 76 415 l 76 317 l 285 317 l 285 244 l 76 244 l 76 146 l 285 146 l 285 0 z "},"":{"ha":779,"x_min":0,"x_max":0,"o":"m 451 -122 l 451 1 b 676 208 600 26 676 114 b 458 414 676 301 619 365 b 332 494 351 449 332 463 b 433 544 332 526 374 544 b 603 501 500 544 568 521 l 644 636 b 457 682 604 658 536 678 l 457 804 l 335 804 l 335 675 b 119 485 201 653 119 582 b 339 279 119 386 181 329 b 457 199 435 249 457 229 b 349 143 457 161 414 143 b 146 197 281 143 190 169 l 103 57 b 328 -4 154 25 242 -1 l 328 -122 z "}}}
